<ttFont>
          <CharString index="0">
            81 474 rmoveto
            43 -9 2 -19 -2 -28 -51 callsubr
            -11 -47 -4 -6 rlinecurve
            -45 -35 callgsubr
            0 21 3 47 1 vhcurveto
            231 hlineto
            16 69 -30 callgsubr
            -5 -16 -4 -11 rlinecurve
            -5 -8 -5 -12 -10 -15 rrcurveto
            -3 -14 -18 -3 -21 hhcurveto
            -85 hlineto
            11 79 12 74 rlineto
            1 17 -1 0 vhcurveto
            12 hlineto
            16 24 -9 callsubr
            1 -43 57 4 rlineto
            return
          </CharString>
          <CharString index="1">
            449 720 rmoveto
            -270 -144 -185 -245 -182 105 -123 208 88 77 16 18 69 hvcurveto
            26 177 rlineto
            7 50 22 95 0 vvcurveto
            -24 25 rlineto
            0 -82 -3 -33 vhcurveto
            -108 hlineto
            -19 -98 102 -8 rlineto
            0 4 -41 -3 -20 vhcurveto
            -10 -68 -1 -8 -5 -16 -7 -18 rlinecurve
            -5 -32 -28 -3 -33 hhcurveto
            -104 -40 90 115 169 63 175 162 41 33 -5 -9 41 hvcurveto
            3 -13 4 -22 -1 -6 -4 -47 rcurveline
            77 -4 37 165 rlineto
            16 -64 -68 18 -89 hhcurveto
            return
          </CharString>
          <CharString index="2">
            -51 callgsubr
            hstemhm
            82 715 hintmask 11010000
            hintmask 10110000
            -57 callsubr
            hintmask 11010000
            -41 callsubr
            hintmask 10110000
            -94 callgsubr
            hintmask 11010000
            -58 callgsubr
            hintmask 10110000
            -82 callsubr
            hintmask 11010000
            -48 callgsubr
            hintmask 10110000
            -93 callgsubr
            return
          </CharString>
          <CharString index="3">
            150 hintmask 11010000
            hintmask 10110000
            635 -14 callsubr
            -46 -25 callgsubr
            hintmask 11010000
            -48 -24 -6 callgsubr
            -86 callgsubr
            hintmask 11001000
            33 221 rlineto
            5 11 37 3 7 vhcurveto
            45 4 6 71 rlineto
            0 -75 -25 callgsubr
            hintmask 10110000
            -47 -62 callsubr
            hintmask 11010000
            42 -9 1 -10 -1 -35 -8 -52 rlinecurve
            hintmask 10101000
            -90 callgsubr
            return
          </CharString>
          <CharString index="4">
            -20 callgsubr
            -2 -10 rlinecurve
            -85 callsubr
            112 -62 callgsubr
            -61 6 1 14 0 52 return
          </CharString>
          <CharString index="5">
            42 -9 -1 -13 0 -34 -7 -52 rlinecurve
            -35 -232 -30 callsubr
            -44 -39 callsubr
            47 51 callgsubr
            -37 4 1 11 -1 40 7 41 rlinecurve
            37 257 1 6 10 33 4 12 rlinecurve
            return
          </CharString>
          <CharString index="6">
            199 473 63 -27 -20 53 -20 hstemhm
            49 774 -566 46 485 32 hintmask 10010000
            hintmask 10000100
            818 474 rmoveto
            hintmask 00100100
            5 66 rlineto
            hintmask 10000100
            0 -29 -4 -83 -42 -48 6 0 vhcurveto
            hintmask 01101000
            -13 -60 41 -10 rlineto
            0 7 -4 -6 -15 vhcurveto
            -107 -272 -33 328 rlineto
            -111 hlineto
            -136 -328 -16 274 rlineto
            hintmask 10001000
            2 10 8 7 0 vvcurveto
            43 2 6 66 rlineto
            hintmask 00101000
            0 -60 -4 -123 vhcurveto
            hintmask 10001000
            -29 -33 6 0 hvcurveto
            -12 -60 rlineto
            hintmask 00110000
            42 -7 rlineto
            0 2 -9 3 -19 vhcurveto
            73 -447 rlineto
            110 hlineto
            132 288 39 -288 rlineto
            109 hlineto
            193 413 rlineto
            15 31 21 29 0 vvcurveto
            return
          </CharString>
          <CharString index="7">
            -24 0 63 410 62 7 -20 43 callgsubr
            hintmask 11010000
            hintmask 11001000
            605 474 rmoveto
            hintmask 10101000
            6 66 rlineto
            hintmask 11001000
            0 -29 -4 -83 -42 -48 6 0 vhcurveto
            hintmask 10110000
            -13 -60 18 -10 rlineto
            0 3 -19 1 vhcurveto
            -104 -162 -56 164 rlineto
            hintmask 11010000
            2 -2 0 19 0 vvcurveto
            28 2 6 66 rlineto
            hintmask 10110000
            0 -60 -4 -123 vhcurveto
            hintmask 11010000
            -29 -31 6 0 hvcurveto
            -13 -60 rlineto
            hintmask 10110000
            41 -7 rlineto
            0 23 -17 5 -11 vhcurveto
            105 -257 -8 -56 -3 -16 -13 -47 -1 -6 rlinecurve
            -45 -39 callsubr
            47 35 callsubr
            13 65 -38 4 1 11 -1 40 6 41 rlinecurve
            2 16 156 240 rlineto
            11 16 45 44 0 vvcurveto
            return
          </CharString>
          <CharString index="8">
            -59 callsubr
            -3 50 callsubr
            hintmask 11010011
            -107 callsubr
            hintmask 10110011
            -75 callsubr
            hintmask 11010011
            -98 callsubr
            hintmask 11001011
            -57 callgsubr
            hintmask 11010011
            -40 callgsubr
            return
          </CharString>
          <CharString index="9">
            0 -13 -7 -14 vhcurveto
            -46 hlineto
            16 110 rlineto
            2 7 34 2 13 vhcurveto
            72 hlineto
            25 19 -1 -2 14 hvcurveto
            2 -4 -2 -8 2 -2 rrcurveto
            -11 -2 -24 -12 vvcurveto
            61 4 rlineto
            return
          </CharString>
          <CharString index="10">
            570 191 rmoveto
            -74 -2 rlineto
            0 -8 -36 -2 -11 vhcurveto
            -1 -8 -19 -34 -3 -7 rrcurveto
            -10 -45 -35 -5 -42 hhcurveto
            -92 -36 87 112 165 56 185 153 38 29 -5 -9 39 hvcurveto
            3 -13 4 -22 -1 -6 -6 -61 rcurveline
            75 -4 38 179 rlineto
            16 -61 -63 18 -84 hhcurveto
            -260 -139 -187 -246 return
          </CharString>
          <CharString index="11">
            73 0 74 203 84 272 82 -10 36 callgsubr
            474 161 hintmask 11100100
            430 715 rmoveto
            -54 -97 -10 -56 hhcurveto
            hintmask 11010100
            -50 -53 -88 callsubr
            hintmask 11001100
            64 -12 rlineto
            -18 -1 -44 -7 -49 vhcurveto
            -54 -14 callgsubr
            -68 -12 -5 -70 rlineto
            0 54 5 46 113 80 -5 0 vhcurveto
            17 76 -64 6 rlineto
            14 1 52 8 50 vhcurveto
            13 87 rlineto
            -2 17 17 -1 11 hhcurveto
            13 hlineto
            59 -161 rlineto
            9 -24 23 -92 0 vvcurveto
            113 77 -5 0 hvcurveto
            15 76 -47 4 -9 21 -12 23 -5 12 rlinecurve
            -4 8 -42 81 -32 93 rrcurveto
            87 42 65 78 102 vvcurveto
            112 -81 68 -124 vhcurveto
            -70 -82 rmoveto
            hintmask 11100100
            77 37 -34 -69 -99 -40 -70 -118 hvcurveto
            -24 hlineto
            27 181 20 90 rlineto
            1 9 7 0 5 hhcurveto
            return
          </CharString>
          <CharString index="12">
            hintmask 11010000
            581 61 rmoveto
            -27 4 -11 13 -10 13 -5 7 rlinecurve
            -40 61 -42 61 -41 61 115 134 rcurveline
            14 15 18 17 21 18 35 4 rcurveline
            hintmask 10110000
            6 71 rlineto
            0 -45 -4 -96 vhcurveto
            hintmask 11010000
            -49 -19 -6 callgsubr
            13 -2 -21 -33 -137 -171 rlineto
            0 71 -125 12 -18 vhcurveto
            8 -14 11 -27 12 -23 -21 -3 rcurveline
            -45 callsubr
            0 8 4 48 98 80 -4 0 vhcurveto
            -239 544 rmoveto
            0 -70 -4 -98 -48 -15 4 0 vhcurveto
            -12 -66 rlineto
            hintmask 11010000
            38 -9 -1 -13 1 -34 -9 -52 rlinecurve
            hintmask 10110000
            -34 -232 -30 callsubr
            -41 -35 callgsubr
            0 14 4 48 98 64 -4 0 vhcurveto
            13 65 -32 4 rlineto
            11 -1 40 7 41 12 callsubr
            41 4 rlineto
            return
          </CharString>
          <CharString index="13">
            23 callgsubr
            -34 -232 -25 callsubr
            vhcurveto
            213 hlineto
            15 70 -30 callgsubr
            -6 -16 -5 -11 rlinecurve
            -1 -4 -8 -15 -9 -16 rrcurveto
            -3 -13 -20 -3 -20 hhcurveto
            -61 hlineto
            19 2 28 4 32 12 callsubr
            return
          </CharString>
          <CharString index="14">
            -50 -7 -41 -29 -48 hhcurveto
            -49 -33 29 50 7 hvcurveto
            -64 hlineto
            -100 -14 51 -55 91 hhcurveto
            90 67 55 100 14 hvcurveto
            endchar
          </CharString>
          <CharString index="15">
            -45 -1 -36 5 0 vvcurveto
            -14 -66 46 -9 rlineto
            -15 -1 -33 -8 -51 vhcurveto
            -37 -232 -1 -16 -14 -47 -2 -6 rlinecurve
            -48 -35 callgsubr
            0 26 4 46 99 68 -4 0 vhcurveto
            14 65 -41 4 rlineto
            11 0 40 7 41 vhcurveto
            7 45 rlineto
            -1 7 5 0 4 hhcurveto
            16 hlineto
            42 -113 rlineto
            7 -18 16 -70 0 vvcurveto
            100 60 -9 callsubr
            11 65 -27 2 -16 37 -3 5 -35 63 -25 71 rlinecurve
            63 35 47 57 72 vvcurveto
            return
          </CharString>
          <CharString index="16">
            106 0 63 -63 79 34 75 50 71 7 46 95 79 -6 13 -3 -20 hstemhm
            338 134 -130 128 90 55 36 68 hintmask 0111010001110000
            hintmask 0111001001110000
            726 530 rmoveto
            -23 callsubr
            hintmask 0111010001110000
            -259 hlineto
            -46 -22 -77 callgsubr
            hintmask 1011000110110000
            46 -9 -262 -339 -8 -11 -23 -28 -22 -25 rlinecurve
            -36 -4 -45 callsubr
            0 33 4 45 63 52 -4 0 vhcurveto
            14 65 -47 4 rlineto
            15 10 8 13 1 hhcurveto
            14 20 rlineto
            168 hlineto
            1 -12 rlineto
            -6 -5 -28 -1 -2 vhcurveto
            hintmask 0111010010110000
            -45 -35 callgsubr
            0 13 4 34 vhcurveto
            223 hlineto
            14 71 -29 callgsubr
            4 -3 -13 -6 -15 -4 -11 rlinecurve
            -1 -5 -8 -14 -10 -17 rrcurveto
            -3 -14 -18 -2 -21 hhcurveto
            -67 hlineto
            hintmask 0111010001110000
            -3 76 rlineto
            82 vlineto
            -6 0 1 1 hhcurveto
            52 hlineto
            15 26 -5 0 hvcurveto
            -42 vlineto
            55 4 rlineto
            0 7 66 6 38 vhcurveto
            2 15 8 46 0 vvcurveto
            hintmask 0110110001110000
            -53 4 -13 -48 rlineto
            0 -13 -7 -15 vhcurveto
            -73 hlineto
            hintmask 0111010001110000
            -2 -5 1 7 hhcurveto
            -1 102 rlineto
            4 3 29 1 12 vhcurveto
            120 hlineto
            23 21 -2 -2 14 hvcurveto
            -6 0 -5 1 -2 vhcurveto
            2 -11 -3 -24 -1 -12 61 4 rcurveline
            -496 -209 rmoveto
            131 177 -10 -176 rlineto
            return
          </CharString>
          <CharString index="17">
            hintmask 11010000
            642 531 rmoveto
            hintmask 10110000
            49 callsubr
            hintmask 11010000
            48 callgsubr
            hintmask 10110000
            -31 -166 rlineto
            hintmask 11010000
            70 -5 3 15 10 39 6 15 rlinecurve
            1 4 5 9 5 10 rrcurveto
            2 20 29 3 29 hhcurveto
            45 hlineto
            -1 -17 1 -45 -8 -49 -50 -349 rcurveline
            44 callsubr
            -65 -12 rcurveline
            -5 -70 -61 callgsubr
            48 111 79 -5 0 vhcurveto
            -3 callgsubr
            1 52 7 50 vhcurveto
            51 349 -65 callgsubr
            return
          </CharString>
          <CharString index="18">
            hintmask 11010000
            hintmask 10110000
            410 -27 callsubr
            0 -45 -7 35 callgsubr
            -103 callsubr
            8 50 rlinecurve
            50 -15 callgsubr
            13 36 callsubr
            hintmask 11010000
            -4 callgsubr
            return
          </CharString>
          <CharString index="19">
            -70 callsubr
            -75 rlineto
            return
          </CharString>
          <CharString index="20">
            -13 -91 -103 callsubr
            7 50 rlinecurve
            7 51 194 300 rlineto
            20 32 53 54 0 vvcurveto
            return
          </CharString>
          <CharString index="21">
            9 -14 rlineto
            0 14 1 6 21 16 -5 -21 -29 -26 -9 -25 -19 -18 6 5 -15 vhcurveto
            -25 -49 rlineto
            -8 16 39 -10 36 hhcurveto
            67 58 30 71 46 -35 28 -52 1 hvcurveto
            return
          </CharString>
          <CharString index="22">
            24 callsubr
            5 47 return
          </CharString>
          <CharString index="23">
            304 456 rmoveto
            -37 -65 -152 -204 rlineto
            -19 -28 -81 -89 0 vvcurveto
            -1 -70 rlineto
            306 42 callsubr
            19 14 31 149 -55 4 -3 -13 -8 -14 -4 -11 rlinecurve
            -21 -41 rlineto
            -3 -15 -26 -2 -21 hhcurveto
            -97 hlineto
            56 90 126 170 95 125 2 71 rlineto
            -305 hlineto
            -14 -71 7 0 hvcurveto
            return
          </CharString>
          <CharString index="24">
            -59 -58 171 -143 213 143 -42 58 -73 -53 -10 -5 -39 -22 -34 -20 rlinecurve
            -28 20 -33 22 -9 5 rrcurveto
            return
          </CharString>
          <CharString index="25">
            -47 -48 -88 callsubr
            return
          </CharString>
          <CharString index="26">
            221 0 74 228 89 235 53 callgsubr
            813 hintmask 11101000
            hintmask 11011000
            825 -47 callgsubr
            hintmask 11101000
            -47 -48 -6 callsubr
            -48 callsubr
            -17 -119 -266 -4 23 153 -26 callsubr
            hintmask 11101000
            64 6 24 callgsubr
            hintmask 11011000
            -82 callsubr
            hintmask 11101000
            61 -39 callgsubr
            hintmask 11011000
            -56 callsubr
            112 79 -5 0 vhcurveto
            16 76 -60 -5 callgsubr
            16 109 rlineto
            264 hlineto
            -20 -139 -103 callsubr
            8 50 rlinecurve
            50 -15 callgsubr
            13 46 5 15 45 callgsubr
            return
          </CharString>
          <CharString index="27">
            59 -4 2 11 8 33 5 11 rlinecurve
            2 2 5 1 6 vhcurveto
            2 15 22 2 23 hhcurveto
            28 hlineto
            -1 -12 2 -34 -9 -51 -33 -232 rcurveline
            -3 -16 -13 -47 -2 -6 -45 -7 rcurveline
            -45 callgsubr
            48 98 67 -4 0 vhcurveto
            -3 callsubr
            0 40 6 41 vhcurveto
            38 257 -66 callsubr
            return
          </CharString>
          <CharString index="28">
            -49 -28 -36 -46 -34 19 -68 callsubr
            hvcurveto
            230 hmoveto
            -49 -27 -36 -46 -34 18 -68 callsubr
            hvcurveto
            endchar
          </CharString>
          <CharString index="29">
            -213 -133 36 -58 73 48 88 42 75 -42 57 -48 20 callsubr
          </CharString>
          <CharString index="30">
            133 -6 83 245 73 237 83 -10 36 callgsubr
            548 166 hintmask 11100100
            53 322 rmoveto
            73 hlineto
            -23 -159 rlineto
            -2 -20 -19 -66 0 vvcurveto
            6 callgsubr
            59 87 -6 63 hhcurveto
            259 138 181 240 178 -100 122 -198 hvcurveto
            -46 -111 -10 -45 hhcurveto
            hintmask 11010100
            -47 -50 -88 callsubr
            hintmask 11001100
            61 -12 rlineto
            0 0 -61 -8 -50 vhcurveto
            -17 -117 rlineto
            -74 hlineto
            330 237 rmoveto
            114 41 -93 -116 hvcurveto
            hintmask 11100100
            -159 -50 -187 -188 -25 -26 2 1 -9 vhcurveto
            1 12 5 57 7 44 19 129 rcurveline
            77 hlineto
            16 73 rlineto
            -83 hlineto
            22 147 2 16 10 49 3 17 rlinecurve
            4 23 23 4 18 hhcurveto
            endchar
          </CharString>
          <CharString index="31">
            27 35 47 36 -20 21 -36 return
          </CharString>
          <CharString index="32">
            0 7 66 5 38 vhcurveto
            2 15 8 48 0 vvcurveto
            -52 4 -14 -48 rlineto
            return
          </CharString>
          <CharString index="33">
            -72 -49 -87 -41 -76 41 -58 49 -53 -58 172 -133 212 133 rlineto
            endchar
          </CharString>
          <CharString index="34">
            hintmask 10100000
            314 469 rmoveto
            hintmask 01100000
            6 71 rlineto
            0 -71 -4 -100 vhcurveto
            hintmask 10100000
            -46 -62 callsubr
            hintmask 01100000
            42 -9 rlineto
            -12 -1 -35 -7 -52 vhcurveto
            -53 -358 rlineto
            -2 -15 -73 -118 0 vvcurveto
            46 -27 105 81 65 59 5 28 rlinecurve
            58 398 1 6 13 40 1 5 rlinecurve
            return
          </CharString>
          <CharString index="35">
            33 callsubr
            hintmask 11011000
            hintmask 10111000
            635 -14 callsubr
            -46 -25 callgsubr
            hintmask 11011000
            -48 -24 -77 callgsubr
            hintmask 10111000
            -86 callgsubr
            hintmask 11010100
            33 221 rlineto
            5 11 37 3 7 vhcurveto
            45 4 6 71 rlineto
            0 -75 -25 callgsubr
            hintmask 10111000
            -47 -62 callsubr
            hintmask 11011000
            42 -9 1 -10 -1 -35 -8 -52 rlinecurve
            hintmask 10110100
            -90 callgsubr
            return
          </CharString>
          <CharString index="36">
            rmoveto
            20 14 4 2 9 hvcurveto
            4 50 rlineto
            -1 -3 -8 -1 -6 hhcurveto
            -21 -11 26 34 34 10 65 49 27 11 -33 -39 -80 -31 -180 -205 -50 hvcurveto
            8 -52 rlineto
            220 37 120 184 138 vvcurveto
            81 -56 58 -93 -94 -79 -72 -95 -69 40 -41 75 vhcurveto
            endchar
          </CharString>
          <CharString index="37">
            5 0 hvcurveto
            -16 return
          </CharString>
          <CharString index="38">
            25 -39 rlineto
            7 25 19 2 14 hhcurveto
            42 17 -22 -36 -67 -23 -37 -151 -34 hvcurveto
            8 -52 rlineto
            191 30 88 71 110 vvcurveto
            66 -42 42 -85 -10 -15 0 -1 -12 vhcurveto
            12 51 6 31 0 vvcurveto
            65 hlineto
            19 75 8 0 hvcurveto
            9 90 rlineto
            endchar
          </CharString>
          <CharString index="39">
            -23 38 49 -76 callsubr
            return
          </CharString>
          <CharString index="40">
            -209 437 92 -64 41 -4 -20 24 -20 222 74 hstemhm
            65 98 hintmask 00011100
            hintmask 00101100
            401 502 rmoveto
            hintmask 00011100
            -51 4 5 100 17 80 20 77 rlinecurve
            -28 19 -55 -13 rlineto
            2 -20 -47 11 -22 hhcurveto
            -79 -76 -130 -113 hvcurveto
            hintmask 10001100
            -49 14 -53 37 67 60 69 88 39 vhcurveto
            hintmask 01001100
            -7 -47 -39 -97 0 vvcurveto
            24 -12 138 27 rlineto
            hintmask 10001100
            -219 64 rmoveto
            -15 -1 15 20 75 24 69 21 23 26 -9 -7 19 hvcurveto
            -92 -16 -53 -71 -28 hhcurveto
            endchar
          </CharString>
          <CharString index="41">
            1 7 10 31 3 11 rlinecurve
            33 hlineto
            23 20 -2 -2 11 hvcurveto
            -1 -6 0 -5 -2 vvcurveto
            2 -11 -2 -33 -1 -11 rrcurveto
            return
          </CharString>
          <CharString index="42">
            15 0 87 229 82 225 82 -70 70 5 -20 25 -20 return
          </CharString>
          <CharString index="43">
            2 -51 rlineto
            0 24 3 14 35 16 -17 -35 -74 -76 -52 -109 -10 vhcurveto
            7 -53 rlineto
            163 11 133 85 96 vvcurveto
            42 -31 41 -43 8 vhcurveto
            return
          </CharString>
          <CharString index="44">
            rlinecurve
            -45 -7 -5 -62 28 callsubr
            46 return
          </CharString>
          <CharString index="45">
            -20 -77 callgsubr
            return
          </CharString>
          <CharString index="46">
            rmoveto
            -40 -44 -6 -13 -38 hvcurveto
            -7 -112 57 4 6 41 6 18 rlineto
            4 13 19 3 15 hhcurveto
            25 14 -14 -24 -56 -41 -41 -73 -13 hvcurveto
            return
          </CharString>
          <CharString index="47">
            -230 104 -35 -84 rlineto
            0 138 -40 19 -6 vhcurveto
            72 -38 rlineto
            endchar
          </CharString>
          <CharString index="48">
            -104 0 78 153 73 7 46 106 73 -6 13 return
          </CharString>
          <CharString index="49">
            16 156 -16 18 rlineto
            0 -92 -10 -20 vhcurveto
            return
          </CharString>
          <CharString index="50">
            797 -13 callgsubr
            -57 -55 callsubr
            return
          </CharString>
          <CharString index="51">
            55 callsubr
            -85 callsubr
            return
          </CharString>
          <CharString index="52">
            -5 -112 vhcurveto
            return
          </CharString>
          <CharString index="53">
            -37 callsubr
            43 -28 rlineto
            0 33 42 24 vhcurveto
            return
          </CharString>
          <CharString index="54">
            hvcurveto
            21 18 40 176 -68 5 -4 -16 return
          </CharString>
          <CharString index="55">
            hintmask 10100000
            386 629 rmoveto
            hintmask 01100000
            24 callgsubr
            hintmask 10100000
            -82 callsubr
            hintmask 01100000
            61 -12 rlineto
            -15 -1 -46 -7 -50 vhcurveto
            -73 -501 rlineto
            -3 -20 -97 -160 0 vvcurveto
            50 -31 109 89 91 88 5 33 rlinecurve
            77 532 3 20 15 52 3 9 rlinecurve
            return
          </CharString>
          <CharString index="56">
            -9 -52 rlinecurve
            -34 -232 -2 -16 return
          </CharString>
          <CharString index="57">
            rmoveto
            -44 callsubr
            return
          </CharString>
          <CharString index="58">
            -228 -121 38 -63 72 40 rlineto
            18 6 135 59 0 vvcurveto
            184 74 rmoveto
            -229 -117 35 -62 71 38 rlineto
            19 6 138 51 -9 callgsubr
          </CharString>
          <CharString index="59">
            54 callgsubr
            0 -45 -7 -50 rlinecurve
            return
          </CharString>
          <CharString index="60">
            rmoveto
            -48 -33 -49 -52 -39 21 -29 37 48 33 50 52 39 -21 28 -37 hvcurveto
            endchar
          </CharString>
          <CharString index="61">
            67 -4 0 vhcurveto
            12 65 return
          </CharString>
          <CharString index="62">
            -5 -62 rlineto
            return
          </CharString>
          <CharString index="63">
            0 -72 -25 callgsubr
            return
          </CharString>
          <CharString index="64">
            0 92 hstem
            -10 489 vstem
            205 -230 rmoveto
            140 36 30 194 rlineto
            87 hlineto
            17 105 -89 -5 21 136 -142 -48 -15 -95 -122 -2 216 257 rlineto
            17 23 108 102 0 vvcurveto
            -86 84 -397 -465 61 -92 rlineto
            189 hlineto
            endchar
          </CharString>
          <CharString index="65">
            -263 hlineto
            -36 -59 5 0 hvcurveto
            return
          </CharString>
          <CharString index="66">
            -48 -48 -88 callsubr
            return
          </CharString>
          <CharString index="67">
            7 -26 callgsubr
            return
          </CharString>
          <CharString index="68">
            -7 -45 callgsubr
            return
          </CharString>
          <CharString index="69">
            rmoveto
            54 22 -21 -46 -66 -21 -57 -91 hvcurveto
            21 136 1 1 6 29 5 24 rlinecurve
            endchar
          </CharString>
          <CharString index="70">
            13 callsubr
            -45 -62 -105 0 hvcurveto
            return
          </CharString>
          <CharString index="71">
            hstem
            25 164 239 164 vstem
            return
          </CharString>
          <CharString index="72">
            26 callsubr
            42 57 101 1 callgsubr
          </CharString>
          <CharString index="73">
            28 -11 107 371 69 4 -20 return
          </CharString>
          <CharString index="74">
            -77 0 62 53 75 355 -20 return
          </CharString>
          <CharString index="75">
            15 40 32 19 30 13 -5 29 rcurveline
            -105 -9 -64 -94 -74 vvcurveto
            -44 20 -35 47 50 42 46 50 35 -24 24 -38 vhcurveto
            return
          </CharString>
          <CharString index="76">
            rmoveto
            -73 -39 -47 -65 hvcurveto
            hintmask 11111110
            -47 28 -32 56 73 39 47 64 vhcurveto
            hintmask 11101110
            49 -28 31 -56 vhcurveto
            -8 -58 rmoveto
            18 8 -14 -17 hvcurveto
            hintmask 11111110
            -21 -12 -23 -25 -19 -7 14 16 vhcurveto
            hintmask 11101110
            21 10 24 27 vhcurveto
            endchar
          </CharString>
          <CharString index="77">
            -2 -16 -13 -47 -2 -6 rlinecurve
            return
          </CharString>
          <CharString index="78">
            rmoveto
            -62 -33 -40 -55 hvcurveto
            hintmask 11111110
            -40 24 -28 48 62 33 40 55 vhcurveto
            hintmask 11101110
            41 -24 27 -48 vhcurveto
            -6 -49 rmoveto
            15 7 -12 -15 hvcurveto
            hintmask 11111110
            -18 -10 -19 -22 -16 -6 12 13 vhcurveto
            hintmask 11101110
            18 9 21 23 vhcurveto
            return
          </CharString>
          <CharString index="79">
            -13 -66 41 -9 rlineto
            -7 0 -40 26 callgsubr
            return
          </CharString>
          <CharString index="80">
            -47 callgsubr
            hintmask 11010000
            -82 callsubr
            hintmask 10110000
            54 callgsubr
            return
          </CharString>
          <CharString index="81">
            3 20 12 36 callsubr
            return
          </CharString>
          <CharString index="82">
            -2 -16 -13 -47 -2 -6 -63 callsubr
            return
          </CharString>
          <CharString index="83">
            -39 -11 84 121 94 174 85 return
          </CharString>
          <CharString index="84">
            -13 13 rlineto
            0 -71 -7 -15 vhcurveto
            return
          </CharString>
          <CharString index="85">
            rmoveto
            -62 4 -104 11 0 vvcurveto
            -20 -19 -4 -90 6 -6 rlineto
            0 147 18 25 1 vhcurveto
            90 hmoveto
            63 -4 103 -11 0 vvcurveto
            21 19 3 90 -5 6 rlineto
            0 -148 -18 -25 -1 vhcurveto
            return
          </CharString>
          <CharString index="86">
            64 6 -2 callgsubr
            return
          </CharString>
          <CharString index="87">
            105 150 rmoveto
            -15 callsubr
            return
          </CharString>
          <CharString index="88">
            rmoveto
            -47 -28 -36 -46 -34 19 50 callgsubr
            169 hmoveto
            -48 -26 -36 -46 -34 18 50 callgsubr
            return
          </CharString>
          <CharString index="89">
            196 0 74 549 82 -79 84 -25 20 return
          </CharString>
          <CharString index="90">
            -258 hlineto
            -14 -70 7 0 hvcurveto
            -16 -13 rlineto
            return
          </CharString>
          <CharString index="91">
            91 -53 91 hstemhm
            return
          </CharString>
          <CharString index="92">
            -59 callgsubr
            198 hmoveto
            -59 callgsubr
            return
          </CharString>
          <CharString index="93">
            540 rmoveto
            0 return
          </CharString>
          <CharString index="94">
            44 callgsubr
            19 vhcurveto
            -10 48 rlineto
            -5 -14 return
          </CharString>
          <CharString index="95">
            -16 92 384 92 return
          </CharString>
          <CharString index="96">
            3 callgsubr
            -85 callsubr
            112 return
          </CharString>
          <CharString index="97">
            653 -14 callsubr
            -68 -4 -62 vhcurveto
            return
          </CharString>
          <CharString index="98">
            -4 0 hvcurveto
            return
          </CharString>
          <CharString index="99">
            2 7 36 2 12 vhcurveto
            3 17 13 4 4 hhcurveto
            return
          </CharString>
          <CharString index="100">
            222 951 rmoveto
            -134 -23 2 -35 44 -6 return
          </CharString>
          <CharString index="101">
            -88 callsubr
            hintmask 11011000
            return
          </CharString>
          <CharString index="102">
            -8 35 callgsubr
            -2 -20 return
          </CharString>
          <CharString index="103">
            hstemhm
            310 57 39 67 return
          </CharString>
          <CharString index="104">
            12 65 -36 4 rlineto
            11 return
          </CharString>
          <CharString index="105">
            rmoveto
            -71 callgsubr
            return
          </CharString>
          <CharString index="106">
            54 27 32 40 51 vvcurveto
            64 -45 33 -88 vhcurveto
            return
          </CharString>
          <CharString index="107">
            -9 callsubr
            21 18 return
          </CharString>
          <CharString index="108">
            0 -1 -127 -2 -19 vhcurveto
            -15 -93 82 -5 47 244 rlineto
            return
          </CharString>
          <CharString index="109">
            292 rmoveto
            -87 callgsubr
            endchar
          </CharString>
          <CharString index="110">
            -8 69 258 67 -58 69 249 66 8 -20 hstemhm
            53 108 130 107 85 111 137 112 return
          </CharString>
          <CharString index="111">
            50 85 116 0 hvcurveto
            -48 45 rlineto
            0 -44 -49 -30 vhcurveto
            return
          </CharString>
          <CharString index="112">
            -5 -13 -11 -2 -10 hhcurveto
            -26 -11 18 22 return
          </CharString>
          <CharString index="113">
            37 14 9 20 vhcurveto
            -11 48 rlineto
            return
          </CharString>
          <CharString index="114">
            rmoveto
            -1 vlineto
            1 0 1 -1 hhcurveto
            endchar
          </CharString>
          <CharString index="115">
            -20 29 rlineto
            -69 -99 4 0 hvcurveto
            -12 -66 68 -9 rlineto
            -8 0 -45 -5 -37 vhcurveto
            endchar
          </CharString>
          <CharString index="116">
            782 rmoveto
            -129 -28 rlineto
            -35 vlineto
            return
          </CharString>
          <CharString index="117">
            6 40 17 50 0 vvcurveto
            70 9 6 66 rlineto
            0 -99 -4 -69 vhcurveto
            -28 -29 rlineto
            0 return
          </CharString>
          <CharString index="118">
            186 rmoveto
            -207 -93 32 -58 64 34 rlineto
            17 6 125 36 -9 callgsubr
          </CharString>
          <CharString index="119">
            vhcurveto
            38 257 1 6 10 33 4 12 rlinecurve
            return
          </CharString>
          <CharString index="120">
            -44 -76 38 -43 hhcurveto
            return
          </CharString>
          <CharString index="121">
            rmoveto
            -59 callgsubr
            return
          </CharString>
          <CharString index="122">
            0 78 389 69 4 -20 hstemhm
            return
          </CharString>
          <CharString index="123">
            4 rlineto
            11 -1 40 7 41 vhcurveto
            return
          </CharString>
          <CharString index="124">
            4 0 hvcurveto
            -13 -66 rlineto
            hintmask 11011000
            42 -9 -1 -13 0 -34 -7 -52 rlinecurve
            return
          </CharString>
          <CharString index="125">
            165 -134 152 hintmask 11100000
            hintmask 11010000
            return
          </CharString>
          <CharString index="126">
            0 -26 -38 -24 vhcurveto
            return
          </CharString>
          <CharString index="127">
            55 58 rlineto
            endchar
          </CharString>
          <CharString index="128">
            14 callgsubr
            -37 callsubr
            return
          </CharString>
          <CharString index="129">
            9 4 callgsubr
            return
          </CharString>
          <CharString index="130">
            -101 -24 -78 vhcurveto
            24 -12 136 27 return
          </CharString>
          <CharString index="131">
            -65 -12 -5 -70 rlineto
            0 49 return
          </CharString>
          <CharString index="132">
            256 -155 155 hstemhm
            return
          </CharString>
          <CharString index="133">
            42 71 -38 42 hhcurveto
            return
          </CharString>
          <CharString index="134">
            -235 56 64 13 return
          </CharString>
          <CharString index="135">
            rlineto
            0 21 4 return
          </CharString>
          <CharString index="136">
            113 rlineto
            5 50 30 184 0 vvcurveto
            -95 12 rlineto
            0 return
          </CharString>
          <CharString index="137">
            -8 callsubr
            endchar
          </CharString>
          <CharString index="138">
            -8 -52 rlinecurve
            -33 -231 -3 -17 return
          </CharString>
          <CharString index="139">
            -91 rlineto
            455 hlineto
            14 96 rlineto
            return
          </CharString>
          <CharString index="140">
            hstemhm
            69 566 -559 150 return
          </CharString>
          <CharString index="141">
            101 rlineto
            -455 hlineto
            -15 -106 rlineto
            return
          </CharString>
          <CharString index="142">
            99 67 -4 0 vhcurveto
            return
          </CharString>
          <CharString index="143">
            46 5 15 rlinecurve
            return
          </CharString>
          <CharString index="144">
            -142 -59 -117 -116 hvcurveto
            238 81 rmoveto
            return
          </CharString>
          <CharString index="145">
            167 103 138 131 -18 18 10 -20 hstemhm
            return
          </CharString>
          <CharString index="146" raw="1">
            540a13d0 0b  
          </CharString>
          <CharString index="147">
            -10 80 532 80 hstemhm
            return
          </CharString>
          <CharString index="148" raw="1">
            b41eb1f7 958c0b  
          </CharString>
          <CharString index="149">
            hlineto
            15 70 -3 0 hvcurveto
            return
          </CharString>
          <CharString index="150">
            -121 66 750 66 return
          </CharString>
          <CharString index="151">
            -3 53 callsubr
            return
          </CharString>
          <CharString index="152">
            1 6 10 33 4 12 rlinecurve
            hintmask 11101000
            44 4 return
          </CharString>
          <CharString index="153">
            6 1 1 -3 41 6 42 rlinecurve
            3 22 rlineto
            return
          </CharString>
          <CharString index="154">
            14 0 hvcurveto
            hintmask 10011000
            11 127 rlineto
            endchar
          </CharString>
          <CharString index="155">
            -83 -179 -19 vhcurveto
            12 -76 rlineto
            255 19 return
          </CharString>
          <CharString index="156">
            17 166 -16 18 rlineto
            0 -93 -10 -19 vhcurveto
            return
          </CharString>
          <CharString index="157">
            -20 -4 callsubr
            return
          </CharString>
          <CharString index="158">
            114 122 113 vstem
            return
          </CharString>
          <CharString index="159">
            -70 70 5 36 callgsubr
            return
          </CharString>
          <CharString index="160">
            -19 callgsubr
            -3 -10 return
          </CharString>
          <CharString index="161">
            -168 81 5 9 61 10 31 rlineto
            7 return
          </CharString>
          <CharString index="162">
            -51 -14 callgsubr
            return
          </CharString>
          <CharString index="163">
            -45 -7 -5 -62 28 callsubr
            46 vhcurveto
            return
          </CharString>
          <CharString index="164">
            6 -12 -36 rlineto
            -1 -4 -18 -36 -2 vvcurveto
            return
          </CharString>
          <CharString index="165">
            -12 rlineto
            hintmask 11001000
            return
          </CharString>
          <CharString index="166">
            79 5 -20 hstemhm
            return
          </CharString>
        <CharString name=".notdef">
          -361 endchar
        </CharString>
        <CharString name="A">
          -33 callgsubr
          hstem
          -31 653 vstem
          -106 callgsubr
          endchar
        </CharString>
        <CharString name="AE">
          -91 callgsubr
          endchar
        </CharString>
        <CharString name="AEacute">
          -91 callgsubr
          290 630 rmoveto
          -81 callgsubr
        </CharString>
        <CharString name="Aacute">
          -33 callgsubr
          hstem
          -31 653 vstem
          -106 callgsubr
          268 637 rmoveto
          -81 callgsubr
        </CharString>
        <CharString name="Abreve">
          -33 callgsubr
          47 76 hstemhm
          -31 653 hintmask 11101000
          -106 callgsubr
          hintmask 11111000
          249 637 rmoveto
          -93 callsubr
        </CharString>
        <CharString name="Acircumflex">
          -33 callgsubr
          hstem
          -31 653 vstem
          -106 callgsubr
          165 642 rmoveto
          -78 callsubr
        </CharString>
        <CharString name="Adieresis">
          -33 callgsubr
          61 139 hstem
          216 28 callgsubr
          vstem
          -106 callgsubr
          49 635 rmoveto
          -79 callsubr
        </CharString>
        <CharString name="Agrave">
          -33 callgsubr
          hstem
          -31 653 vstem
          -106 callgsubr
          266 543 rmoveto
          -60 callsubr
        </CharString>
        <CharString name="Amacron">
          -33 callgsubr
          75 73 hstem
          -31 653 vstem
          -106 callgsubr
          323 510 rmoveto
          -52 callgsubr
        </CharString>
        <CharString name="Aogonek">
          58 -197 64 133 71 108 83 454 -20 hstem
          247 107 vstem
          619 65 rmoveto
          -52 9 -15 54 -109 588 -109 -11 -264 -544 -52 -86 -45 -7 -6 -73 rlineto
          0 53 5 83 45 56 -5 0 vhcurveto
          15 70 -54 12 12 38 25 64 rlineto
          184 hlineto
          6 -50 rlineto
          -9 vlineto
          -121 -145 -22 -98 vvcurveto
          -51 37 -25 56 40 6 callsubr
          -5 -14 -10 -2 -10 hhcurveto
          -26 -12 18 22 37 33 47 53 9 hvcurveto
          84 hlineto
          34 46 -5 0 hvcurveto
          -259 503 rmoveto
          27 -235 -131 -2 rlineto
          endchar
        </CharString>
        <CharString name="Aring">
          -33 callgsubr
          39 58 75 58 hstemhm
          307 67 63 66 hintmask 11101110
          -106 callgsubr
          175 665 -31 callsubr
        </CharString>
        <CharString name="Aringacute">
          -33 callgsubr
          43 50 64 49 hstemhm
          310 57 54 56 hintmask 11101110
          -106 callgsubr
          161 641 -29 callsubr
          65 11 callsubr
        </CharString>
        <CharString name="Atilde">
          -33 callgsubr
          58 -16 callsubr
          -31 653 hintmask 11110100
          -106 callgsubr
          299 622 rmoveto
          14 callgsubr
          hintmask 11101100
          -54 callsubr
          hintmask 11110100
          -54 callgsubr
        </CharString>
        <CharString name="B">
          46 -5 82 243 87 226 82 -10 36 callgsubr
          449 152 -126 148 hintmask 10100100
          hintmask 10100010
          421 715 rmoveto
          -44 -117 -10 -42 hhcurveto
          hintmask 10010100
          -47 -45 -88 callsubr
          hintmask 10001100
          57 -12 2 -23 -3 -48 -6 -40 rlinecurve
          -54 -349 -2 -20 -14 -52 -5 -14 rlinecurve
          -62 -12 -5 -70 rlineto
          0 45 5 48 vhcurveto
          58 102 -5 60 hhcurveto
          141 129 70 149 87 -60 50 -86 13 hvcurveto
          1 7 rlineto
          94 22 73 74 96 vvcurveto
          97 -91 55 -111 vhcurveto
          hintmask 10100010
          -86 -86 rmoveto
          2 16 17 2 17 hhcurveto
          55 35 -39 -49 -88 -53 -50 -69 hvcurveto
          -6 hlineto
          hintmask 11100010
          -19 -87 rlineto
          9 hlineto
          59 53 -24 -74 -88 -60 -57 -82 hvcurveto
          hintmask 11100100
          -18 -19 1 2 -18 hvcurveto
          1 14 6 55 7 44 53 349 rcurveline
          3 19 11 60 2 8 rrcurveto
          endchar
        </CharString>
        <CharString name="C">
          35 -15 93 549 93 hstem
          34 179 vstem
          -97 callsubr
          -180 100 -122 198 83 72 18 16 66 hvcurveto
          endchar
        </CharString>
        <CharString name="Cacute">
          35 -15 93 549 93 hstem
          34 179 vstem
          -97 callsubr
          -180 100 -122 198 83 72 18 16 66 hvcurveto
          -28 889 rmoveto
          -81 callgsubr
        </CharString>
        <CharString name="Ccaron">
          35 -15 93 549 93 hstem
          34 179 vstem
          -97 callsubr
          -180 100 -122 198 83 72 18 16 66 hvcurveto
          57 920 rmoveto
          -74 callsubr
        </CharString>
        <CharString name="Ccedilla">
          35 27 callsubr
          88 92 549 93 hstem
          34 179 126 88 vstem
          -97 callsubr
          -169 87 -117 173 -14 hvcurveto
          -21 -89 -86 callsubr
          15 45 73 3 65 15 60 15 rlinecurve
          endchar
        </CharString>
        <CharString name="Ccircumflex">
          35 -15 93 549 93 hstem
          34 179 vstem
          -97 callsubr
          -180 100 -122 198 83 72 18 16 66 hvcurveto
          -91 924 rmoveto
          -78 callsubr
        </CharString>
        <CharString name="Cdotaccent">
          35 -15 93 549 93 26 159 hstemhm
          34 179 145 156 hintmask 11010000
          -97 callsubr
          -180 100 -122 198 83 72 18 16 66 hvcurveto
          hintmask 11111000
          -105 886 rmoveto
          -76 callgsubr
        </CharString>
        <CharString name="D">
          -72 callgsubr
          endchar
        </CharString>
        <CharString name="Dcaron">
          -72 callgsubr
          170 297 rmoveto
          -74 callsubr
        </CharString>
        <CharString name="Dcroat">
          -77 callsubr
        </CharString>
        <CharString name="Delta">
          95 0 80 636 -20 hstem
          -20 635 vstem
          583 hmoveto
          32 69 rlineto
          0 -29 80 -5 25 vhcurveto
          -5 22 -134 520 0 vvcurveto
          -106 -11 -268 -500 -88 -139 17 -66 rlineto
          219 80 rmoveto
          -22 -27 0 1 -29 hvcurveto
          28 78 172 332 79 -316 3 -16 3 -44 2 -31 rlinecurve
          -2 -96 -99 -2 -14 hhcurveto
          endchar
        </CharString>
        <CharString name="E">
          15 0 87 229 82 225 82 -70 70 10 -20 hstemhm
          398 65 hintmask 11100100
          hintmask 11010100
          101 635 rmoveto
          hintmask 11100100
          -107 callgsubr
          hintmask 11001100
          -58 callsubr
          hintmask 11100100
          -42 callsubr
          endchar
        </CharString>
        <CharString name="Eacute">
          -65 callsubr
          hstemhm
          398 65 hintmask 11100010
          hintmask 11010010
          101 635 rmoveto
          hintmask 11100010
          -107 callgsubr
          hintmask 11000110
          -58 callsubr
          hintmask 11100010
          -42 callsubr
          357 188 rmoveto
          hintmask 11001010
          -81 callgsubr
        </CharString>
        <CharString name="Ebreve">
          -65 callsubr
          48 76 hstemhm
          398 65 hintmask 11100011
          hintmask 11010011
          101 635 rmoveto
          hintmask 11100011
          -107 callgsubr
          hintmask 11000111
          -58 callsubr
          hintmask 11100011
          -42 callsubr
          348 188 rmoveto
          hintmask 11001011
          -93 callsubr
        </CharString>
        <CharString name="Ecaron">
          -65 callsubr
          hstemhm
          398 65 hintmask 11100010
          hintmask 11010010
          101 635 rmoveto
          hintmask 11100010
          -107 callgsubr
          hintmask 11000110
          -58 callsubr
          hintmask 11100010
          -42 callsubr
          415 209 rmoveto
          hintmask 11001010
          -74 callsubr
        </CharString>
        <CharString name="Ecircumflex">
          -65 callsubr
          hstemhm
          398 65 hintmask 11100010
          hintmask 11010010
          101 635 rmoveto
          hintmask 11100010
          -107 callgsubr
          hintmask 11000110
          -58 callsubr
          hintmask 11100010
          -42 callsubr
          264 233 rmoveto
          hintmask 11001010
          -78 callsubr
        </CharString>
        <CharString name="Edieresis">
          -65 callsubr
          62 139 hstemhm
          188 133 77 65 -44 132 hintmask 1110001110000000
          hintmask 1101001110000000
          101 635 rmoveto
          hintmask 1110001110000000
          -107 callgsubr
          hintmask 1100011110000000
          -58 callsubr
          hintmask 1110001110000000
          -42 callsubr
          148 186 rmoveto
          hintmask 1100101101000000
          -79 callsubr
        </CharString>
        <CharString name="Edotaccent">
          -65 callsubr
          51 159 hstemhm
          300 156 -58 65 hintmask 1110000010000000
          hintmask 1101000010000000
          101 635 rmoveto
          hintmask 1110000010000000
          -107 callgsubr
          hintmask 1100010010000000
          -58 callsubr
          hintmask 1110000010000000
          -42 callsubr
          273 195 rmoveto
          hintmask 1100101100000000
          -76 callgsubr
        </CharString>
        <CharString name="Egrave">
          -65 callsubr
          hstemhm
          398 65 hintmask 11100010
          hintmask 11010010
          101 635 rmoveto
          hintmask 11100010
          -107 callgsubr
          hintmask 11000110
          -58 callsubr
          hintmask 11100010
          -42 callsubr
          365 94 rmoveto
          hintmask 11001010
          -60 callsubr
        </CharString>
        <CharString name="Emacron">
          -65 callsubr
          76 73 hstemhm
          398 65 hintmask 11100011
          hintmask 11010011
          101 635 rmoveto
          hintmask 11100011
          -107 callgsubr
          hintmask 11000111
          -58 callsubr
          hintmask 11100011
          -42 callsubr
          425 61 rmoveto
          hintmask 11001011
          -52 callgsubr
        </CharString>
        <CharString name="Eng">
          208 0 74 549 82 -79 84 -25 20 hstemhm
          12 811 hintmask 10101000
          823 -13 callgsubr
          -84 -5 -78 vhcurveto
          hintmask 10011000
          -96 5 rlineto
          hintmask 10101000
          -16 -75 rlineto
          hintmask 11001000
          61 -12 rlineto
          -16 -2 -58 -5 -37 vhcurveto
          -41 -282 -170 307 rlineto
          -10 22 -53 126 0 vvcurveto
          hintmask 10011000
          -16 20 rlineto
          -99 hlineto
          -45 -51 -27 callgsubr
          -75 rlineto
          hintmask 10101000
          61 58 callsubr
          -11 -1 -50 -7 -50 vhcurveto
          -51 -349 -3 -20 -14 -55 -4 -11 rlinecurve
          -66 -12 -6 -70 rlineto
          0 53 5 45 110 51 -5 0 vhcurveto
          15 76 -62 6 1 10 1 56 7 50 rlinecurve
          38 257 249 -450 rlineto
          -7 -19 -92 -150 0 vvcurveto
          48 -31 95 85 86 84 1 31 rlinecurve
          0 21 143 -40 callsubr
          14 49 4 12 rlinecurve
          hintmask 10101000
          65 6 rlineto
          endchar
        </CharString>
        <CharString name="Eogonek">
          15 -198 64 134 87 229 82 225 82 -70 70 10 -20 hstemhm
          278 107 13 65 hintmask 01110001
          hintmask 01101001
          101 635 rmoveto
          hintmask 11110011
          61 -12 2 -21 -2 -40 -5 callsubr
          -14 -56 -5 -10 rlinecurve
          24 callsubr
          4 48 1 vhcurveto
          255 hlineto
          -40 -33 -46 -24 -65 vvcurveto
          -51 37 -13 callsubr
          -10 -2 -10 hhcurveto
          -26 -12 18 22 71 81 19 30 -53 callsubr
          -9 -26 -6 -15 rlinecurve
          -5 -10 -8 -15 -12 -18 rrcurveto
          -4 -20 -27 -4 -28 hhcurveto
          -120 hlineto
          2 20 5 48 6 38 18 122 rcurveline
          hintmask 01110001
          1 6 20 0 3 hhcurveto
          28 hlineto
          20 40 -6 0 hvcurveto
          -60 vlineto
          65 6 rlineto
          0 8 77 7 50 vhcurveto
          3 20 10 63 0 vvcurveto
          -60 5 -18 -64 rlineto
          0 -24 -9 -19 vhcurveto
          -53 hlineto
          -5 -10 0 1 -9 hvcurveto
          21 143 2 16 10 47 3 18 rlinecurve
          105 hlineto
          30 27 -2 -2 19 hvcurveto
          4 -8 1 -12 1 -4 rrcurveto
          1 -15 -1 -28 -16 vvcurveto
          71 5 rlineto
          hintmask 01100101
          -58 callsubr
          hintmask 01110001
          -42 callsubr
          endchar
        </CharString>
        <CharString name="Eth">
          -77 callsubr
        </CharString>
        <CharString name="Etilde">
          -65 callsubr
          59 -16 callsubr
          398 65 hintmask 1110001010000000
          hintmask 1101001010000000
          101 635 rmoveto
          hintmask 1110001010000000
          -107 callgsubr
          hintmask 1100011010000000
          -58 callsubr
          hintmask 1110001010000000
          -42 callsubr
          410 173 rmoveto
          hintmask 1100101010000000
          21 callsubr
          hintmask 1110000110000000
          43 -28 rlineto
          0 33 42 24 vhcurveto
          -54 callgsubr
        </CharString>
        <CharString name="Euro">
          51 -18 82 154 64 -50 64 38 65 -51 64 173 82 hstemhm
          101 178 hintmask 10101110
          529 47 callgsubr
          9 -49 -45 11 -73 hhcurveto
          -169 -117 -106 -160 -44 hvcurveto
          hintmask 11010110
          -71 -3 -8 -65 66 3 -3 -17 -1 -17 -1 -18 rlinecurve
          -63 -2 -8 -65 71 3 rlineto
          -145 9 85 -93 160 hhcurveto
          71 67 16 16 63 hvcurveto
          18 175 -59 3 -40 -117 rlineto
          -7 -33 -34 -4 -27 hhcurveto
          hintmask 10101110
          -69 -32 73 91 -1 hvcurveto
          164 8 8 64 -170 -8 2 18 1 17 3 17 rlinecurve
          166 8 8 64 -161 -7 rlineto
          101 28 52 75 72 hhcurveto
          30 22 -5 -6 28 hvcurveto
          endchar
        </CharString>
        <CharString name="F">
          -32 0 74 231 82 236 82 52 callsubr
          397 64 hintmask 11100010
          hintmask 11000110
          587 715 rmoveto
          0 -92 -10 -20 vhcurveto
          hintmask 11100010
          -263 hlineto
          -82 callsubr
          hintmask 11001010
          61 -12 rlineto
          hintmask 11010010
          2 -14 -2 -47 -8 -50 rrcurveto
          hintmask 11100010
          -51 -349 -2 -20 -14 -56 -5 -10 rlinecurve
          -85 callsubr
          112 110 -5 0 vhcurveto
          16 76 -91 6 -2 17 2 46 7 50 rlinecurve
          17 114 rlineto
          1 7 10 0 6 hhcurveto
          35 hlineto
          19 41 -6 0 hvcurveto
          -60 vlineto
          -4 callgsubr
          0 8 77 8 50 vhcurveto
          2 20 11 63 0 vvcurveto
          -61 5 -18 -64 rlineto
          0 -23 -9 -20 vhcurveto
          -55 hlineto
          -6 -6 0 1 -10 hvcurveto
          23 154 2 16 10 47 3 18 rlinecurve
          105 hlineto
          30 28 -3 -2 19 hvcurveto
          5 -23 rlineto
          1 -15 -1 -28 -16 vvcurveto
          71 5 16 156 rlineto
          endchar
        </CharString>
        <CharString name="G">
          -24 callgsubr
          hstem
          35 179 vstem
          -106 callsubr
          endchar
        </CharString>
        <CharString name="Gbreve">
          -24 callgsubr
          23 76 hstemhm
          35 179 hintmask 11101000
          -106 callsubr
          hintmask 11111000
          122 178 rmoveto
          -93 callsubr
        </CharString>
        <CharString name="Gcircumflex">
          -24 callgsubr
          hstem
          35 179 vstem
          -106 callsubr
          38 213 rmoveto
          -78 callsubr
        </CharString>
        <CharString name="Gcommaaccent">
          -24 callgsubr
          hstem
          35 179 61 127 vstem
          -106 callsubr
          -174 -853 rmoveto
          -96 callgsubr
          endchar
        </CharString>
        <CharString name="Gdieresis">
          -24 callgsubr
          37 139 hstem
          35 179 70 28 callgsubr
          vstem
          -106 callsubr
          -88 176 rmoveto
          -79 callsubr
        </CharString>
        <CharString name="Gdotaccent">
          -24 callgsubr
          26 159 hstemhm
          35 179 169 156 hintmask 11101000
          -106 callsubr
          hintmask 11111100
          24 185 rmoveto
          -76 callgsubr
        </CharString>
        <CharString name="Gtilde">
          -24 callgsubr
          34 -16 callsubr
          35 179 hintmask 11110100
          -106 callsubr
          154 163 rmoveto
          14 callgsubr
          hintmask 11101100
          -54 callsubr
          hintmask 11110100
          -54 callgsubr
        </CharString>
        <CharString name="H">
          -81 callsubr
          endchar
        </CharString>
        <CharString name="Hbar">
          221 0 74 228 89 96 64 75 53 callgsubr
          813 -666 156 263 156 hintmask 11110100
          hintmask 11101100
          825 -47 callgsubr
          hintmask 11110001
          -82 callsubr
          hintmask 11101011
          61 -12 -1 -12 0 -27 -3 -33 rlinecurve
          -263 hlineto
          5 22 9 37 5 13 64 6 rcurveline
          hintmask 11110010
          24 callgsubr
          hintmask 11101100
          -82 callsubr
          hintmask 11110010
          61 -12 -1 -12 1 -27 -3 -33 rlinecurve
          hintmask 11101011
          -84 hlineto
          -9 -64 rlineto
          84 hlineto
          -47 -324 -11 callsubr
          79 -5 0 vhcurveto
          16 76 -60 -5 callgsubr
          16 109 rlineto
          264 hlineto
          -20 -139 -103 callsubr
          8 50 rlinecurve
          42 294 rlineto
          85 hlineto
          9 64 rlineto
          -85 hlineto
          5 22 10 37 5 13 64 6 rcurveline
          -527 -240 rmoveto
          14 98 rlineto
          hintmask 11110001
          265 hlineto
          -13 -94 rlineto
          endchar
        </CharString>
        <CharString name="Hcircumflex">
          -81 callsubr
          -321 304 rmoveto
          hintmask 11101000
          -78 callsubr
        </CharString>
        <CharString name="I">
          -36 callgsubr
          hstemhm
          17 393 -89 callsubr
          endchar
        </CharString>
        <CharString name="IJ">
          120 0 74 553 77 6 -20 hstemhm
          16 719 hintmask 11010000
          hintmask 10110000
          735 -13 callgsubr
          -79 -5 -110 vhcurveto
          hintmask 11010000
          -328 hlineto
          -45 -51 -88 callsubr
          hintmask 10110000
          62 -12 rlineto
          -19 -1 -42 -7 -50 vhcurveto
          -51 -349 -3 -20 -16 -54 -2 -12 rlinecurve
          -67 -12 -5 -70 rlineto
          0 53 5 45 110 78 -5 0 vhcurveto
          15 76 -62 6 1 9 1 57 7 50 rlinecurve
          51 -15 callgsubr
          11 47 6 14 rlinecurve
          hintmask 11010000
          82 9 78 -9 1 -15 -1 -46 -7 -50 rlinecurve
          -73 -501 rlineto
          -3 -20 -98 -160 0 vvcurveto
          49 -31 106 89 89 78 5 33 rlinecurve
          79 542 3 20 15 52 3 9 rlinecurve
          65 6 rlineto
          endchar
        </CharString>
        <CharString name="Iacute">
          -36 callgsubr
          hstemhm
          17 410 -89 callsubr
          -11 269 rmoveto
          -81 callgsubr
        </CharString>
        <CharString name="Ibreve">
          -36 callgsubr
          53 76 hstemhm
          17 426 hintmask 11011000
          hintmask 10111000
          410 -47 callgsubr
          hintmask 11011000
          -82 callsubr
          hintmask 10111000
          -48 callsubr
          -51 -349 -103 callsubr
          8 50 rlinecurve
          50 -15 callgsubr
          13 36 callsubr
          hintmask 11011000
          -4 callgsubr
          -24 269 rmoveto
          -93 callsubr
        </CharString>
        <CharString name="Icircumflex">
          -36 callgsubr
          hstemhm
          17 450 -89 callsubr
          -107 304 rmoveto
          -78 callsubr
        </CharString>
        <CharString name="Idieresis">
          -36 callgsubr
          67 139 hstemhm
          132 129 41 128 hintmask 11011100
          207 896 -19 callsubr
          hintmask 10111100
          34 -186 rmoveto
          hintmask 11011100
          0 -81 -5 -112 -47 -48 5 0 vhcurveto
          hintmask 10111100
          -16 -75 -48 callsubr
          -51 -349 -103 callsubr
          8 50 rlinecurve
          50 349 rlineto
          hintmask 11011100
          3 20 13 46 5 15 64 6 rcurveline
          endchar
        </CharString>
        <CharString name="Idotaccent">
          -36 callgsubr
          56 159 hstemhm
          200 156 hintmask 11011000
          hintmask 10111000
          410 -47 callgsubr
          hintmask 11011000
          -82 callsubr
          hintmask 10111000
          -48 callsubr
          -51 -349 -103 callsubr
          8 50 rlinecurve
          50 -15 callgsubr
          13 36 callsubr
          hintmask 11011000
          -4 callgsubr
          -113 276 rmoveto
          -76 callgsubr
        </CharString>
        <CharString name="Igrave">
          -36 callgsubr
          hstemhm
          17 393 -89 callsubr
          -20 175 rmoveto
          -60 callsubr
        </CharString>
        <CharString name="Imacron">
          -36 callgsubr
          81 73 hstemhm
          17 451 hintmask 11011000
          hintmask 10111000
          410 -47 callgsubr
          hintmask 11011000
          -82 callsubr
          hintmask 10111000
          -48 callsubr
          -51 -349 -103 callsubr
          8 50 rlinecurve
          50 -15 callgsubr
          13 36 callsubr
          hintmask 11011000
          -4 callgsubr
          47 142 rmoveto
          -52 callgsubr
        </CharString>
        <CharString name="Iogonek">
          -193 -197 64 128 79 552 59 callsubr
          -35 108 hintmask 11101000
          108 163 rmoveto
          -30 -207 -113 30 -107 vvcurveto
          -51 38 -13 callsubr
          -10 -2 -10 hhcurveto
          -26 -12 18 22 37 32 47 54 9 hvcurveto
          84 -1 58 -4 0 vvcurveto
          15 76 -62 6 rlineto
          14 2 52 7 50 -17 callgsubr
          65 6 rlineto
          hintmask 11011000
          -2 callgsubr
          -79 -5 -110 vhcurveto
          hintmask 11101000
          -45 -51 -6 callsubr
          62 -12 -1 -16 0 -45 -7 -50 rlinecurve
          endchar
        </CharString>
        <CharString name="Itilde">
          -36 callgsubr
          64 -16 callsubr
          17 449 hintmask 11010100
          hintmask 10110100
          410 -47 callgsubr
          hintmask 11010100
          -82 callsubr
          hintmask 10110100
          -48 callsubr
          -51 -349 -103 callsubr
          8 50 rlinecurve
          50 -15 callgsubr
          13 36 callsubr
          hintmask 11010100
          -4 callgsubr
          18 254 rmoveto
          21 callsubr
          hintmask 11001100
          43 -28 rlineto
          0 33 42 24 vhcurveto
          -54 callgsubr
        </CharString>
        <CharString name="J">
          -222 626 59 callsubr
          -31 424 -52 callsubr
          endchar
        </CharString>
        <CharString name="Jcircumflex">
          -222 626 59 callsubr
          -31 468 -52 callsubr
          hintmask 10100000
          -56 310 rmoveto
          -78 callsubr
        </CharString>
        <CharString name="K">
          57 callgsubr
          15 742 -78 callgsubr
          endchar
        </CharString>
        <CharString name="Kcommaaccent">
          57 callgsubr
          275 127 -78 callgsubr
          -120 -762 rmoveto
          hintmask 11010000
          -96 callgsubr
          endchar
        </CharString>
        <CharString name="L">
          -35 0 87 539 53 callgsubr
          520 -85 callgsubr
          endchar
        </CharString>
        <CharString name="Lacute">
          -35 0 87 539 53 callgsubr
          520 -85 callgsubr
          -52 269 rmoveto
          -81 callgsubr
        </CharString>
        <CharString name="Lcaron">
          -35 0 87 268 241 30 53 callgsubr
          549 hintmask 10101000
          hintmask 11011000
          446 597 rmoveto
          0 -1 -127 -2 -19 vhcurveto
          -15 -93 86 -5 47 244 rlineto
          -156 113 -38 callgsubr
          hintmask 10101000
          -82 callsubr
          hintmask 10011000
          61 -12 -1 -16 1 -45 -8 -50 rlinecurve
          -51 -349 -92 callgsubr
          51 349 3 20 12 46 5 15 rlinecurve
          hintmask 10101000
          -4 callgsubr
          endchar
        </CharString>
        <CharString name="Lcommaaccent">
          -35 0 87 539 59 callsubr
          203 127 -85 callgsubr
          -195 -762 rmoveto
          -96 callgsubr
          endchar
        </CharString>
        <CharString name="Ldot">
          -35 0 87 240 169 0 -20 150 59 callsubr
          377 157 hintmask 10110100
          468 496 rmoveto
          -55 -36 -42 -57 hvcurveto
          hintmask 11010100
          -42 24 -28 42 56 35 42 57 vhcurveto
          hintmask 10110100
          44 -24 26 -42 vhcurveto
          hintmask 10101100
          -63 214 -38 callgsubr
          hintmask 10110100
          -82 callsubr
          hintmask 10101100
          61 -12 -1 -16 1 -45 -8 -50 rlinecurve
          -51 -349 -92 callgsubr
          51 349 3 20 12 46 5 15 rlinecurve
          hintmask 10110100
          -4 callgsubr
          endchar
        </CharString>
        <CharString name="Lslash">
          -35 0 87 407 -20 152 53 callgsubr
          520 hintmask 11101000
          hintmask 11011000
          405 -47 callgsubr
          hintmask 11101000
          -47 -48 -6 callsubr
          61 -39 callgsubr
          -19 -126 -118 -42 13 -60 95 34 -22 -155 -92 callgsubr
          27 183 161 58 -12 60 -139 -50 14 98 -26 callsubr
          hintmask 11101000
          -4 callgsubr
          endchar
        </CharString>
        <CharString name="M">
          369 0 71 614 20 5 -20 hstemhm
          5 933 hintmask 11010000
          711 705 rmoveto
          -22 -20 rlineto
          0 -48 -113 -11 -23 vhcurveto
          -155 -328 -52 313 rlineto
          -6 37 -13 114 0 vvcurveto
          -16 20 rlineto
          -143 hlineto
          -43 -57 5 0 hvcurveto
          hintmask 10110000
          -15 -72 62 -12 rlineto
          -18 -1 -27 -1 -12 vhcurveto
          -92 -437 -4 -13 -10 -27 -7 -18 rlinecurve
          -67 -12 -5 -67 rlineto
          0 56 5 42 107 43 -5 0 vhcurveto
          17 73 -64 6 1 23 4 43 4 22 rlinecurve
          70 356 95 -518 rlineto
          93 hlineto
          252 518 -37 -356 -4 -22 -8 -43 -5 -23 rlinecurve
          -66 -12 -5 -67 rlineto
          0 57 5 42 107 70 -5 0 vhcurveto
          15 73 -63 6 rlineto
          -1 18 -3 27 13 vvcurveto
          33 437 2 13 5 27 4 18 rlinecurve
          63 11 7 72 rlineto
          0 -79 -5 -49 vhcurveto
          endchar
        </CharString>
        <CharString name="N">
          -18 callsubr
          hstemhm
          12 812 -99 callgsubr
          endchar
        </CharString>
        <CharString name="Nacute">
          -18 callsubr
          hstemhm
          12 812 -99 callgsubr
          -240 269 rmoveto
          -81 callgsubr
        </CharString>
        <CharString name="Ncaron">
          -18 callsubr
          hstemhm
          12 812 -99 callgsubr
          -195 260 rmoveto
          -74 callsubr
        </CharString>
        <CharString name="Ncommaaccent">
          -18 callsubr
          hstemhm
          304 127 -99 callgsubr
          -513 -762 rmoveto
          -96 callgsubr
          endchar
        </CharString>
        <CharString name="Ntilde">
          -18 callsubr
          49 -16 callsubr
          12 812 hintmask 10101010
          824 -13 callgsubr
          -84 -5 -79 vhcurveto
          hintmask 10011010
          -97 5 rlineto
          hintmask 10101010
          -16 -75 rlineto
          hintmask 11001010
          60 -12 rlineto
          -16 -2 -58 -5 -37 vhcurveto
          -41 -282 -166 307 rlineto
          -11 22 -52 126 0 vvcurveto
          hintmask 10011010
          -15 20 rlineto
          -103 hlineto
          -48 -48 -27 callgsubr
          -75 rlineto
          hintmask 10101010
          60 -12 rlineto
          hintmask 11001010
          -11 0 -50 -8 -50 vhcurveto
          -51 -349 -2 -20 -15 -55 -4 -11 rlinecurve
          -65 -12 -5 -70 rlineto
          0 50 -32 callgsubr
          51 -5 0 vhcurveto
          16 76 -61 6 1 10 0 56 7 50 rlinecurve
          38 257 244 -450 rlineto
          137 hlineto
          0 21 143 -40 callsubr
          13 49 4 12 rlinecurve
          hintmask 10101010
          -4 callgsubr
          -199 254 rmoveto
          21 callsubr
          hintmask 10100110
          43 -28 rlineto
          0 33 42 24 vhcurveto
          -54 callgsubr
        </CharString>
        <CharString name="O">
          25 callgsubr
          -23 callgsubr
          -103 callgsubr
          endchar
        </CharString>
        <CharString name="OE">
          422 -19 97 -78 87 232 79 225 82 -78 97 -9 -20 hstemhm
          35 172 600 63 hintmask 01110011
          964 190 rmoveto
          -68 5 -4 -16 -10 -26 -6 -15 rlinecurve
          -4 -10 -8 -15 -12 -18 rrcurveto
          -4 -20 -28 -4 -28 hhcurveto
          -121 hlineto
          2 20 5 48 5 38 18 125 rcurveline
          1 8 20 0 3 hhcurveto
          30 hlineto
          20 41 -6 0 hvcurveto
          -60 vlineto
          63 6 rlineto
          0 8 77 7 50 vhcurveto
          3 20 10 60 0 vvcurveto
          -59 5 -19 -64 rlineto
          0 -24 -9 -19 vhcurveto
          -55 hlineto
          -5 -10 0 1 -10 hvcurveto
          21 143 2 16 10 47 4 18 rlinecurve
          107 hlineto
          29 28 -2 -2 18 hvcurveto
          4 -8 2 -12 1 -4 2 -15 -1 -28 -1 -16 71 5 rcurveline
          hintmask 01100111
          16 156 -17 18 rlineto
          0 -92 -10 -19 vhcurveto
          hintmask 01110011
          -260 hlineto
          -21 -29 2 1 -21 hvcurveto
          11 -32 -37 5 -41 hhcurveto
          hintmask 10101011
          -237 -169 -176 -256 -189 111 -122 186 41 39 5 11 37 hvcurveto
          70 3 rlineto
          hintmask 01110011
          273 32 callgsubr
          rlineto
          -396 182 rmoveto
          -72 -43 -41 -46 -97 hhcurveto
          hintmask 10101011
          -93 -46 65 129 212 63 143 156 97 20 -34 -57 33 hvcurveto
          endchar
        </CharString>
        <CharString name="Oacute">
          25 callgsubr
          -23 callgsubr
          -103 callgsubr
          337 637 rmoveto
          -81 callgsubr
        </CharString>
        <CharString name="Obreve">
          25 callgsubr
          29 76 hstemhm
          35 177 353 178 hintmask 11011000
          -103 callgsubr
          hintmask 11111000
          319 637 rmoveto
          -93 callsubr
        </CharString>
        <CharString name="Ocircumflex">
          25 callgsubr
          -23 callgsubr
          -103 callgsubr
          245 662 rmoveto
          -78 callsubr
        </CharString>
        <CharString name="Odieresis">
          25 callgsubr
          33 139 hstemhm
          35 177 42 28 callgsubr
          -52 178 hintmask 11111010
          -103 callgsubr
          119 625 rmoveto
          -49 -28 -36 -46 -34 19 -68 callsubr
          hvcurveto
          hintmask 11111100
          230 hmoveto
          -49 -27 -36 -46 -34 18 -68 callsubr
          hvcurveto
          endchar
        </CharString>
        <CharString name="Ograve">
          25 callgsubr
          -23 callgsubr
          -103 callgsubr
          336 533 rmoveto
          -60 callsubr
        </CharString>
        <CharString name="Ohungarumlaut">
          25 callgsubr
          -23 callgsubr
          -103 callgsubr
          250 647 rmoveto
          -49 callsubr
        </CharString>
        <CharString name="Omacron">
          25 callgsubr
          47 73 -23 callgsubr
          -103 callgsubr
          413 500 rmoveto
          -52 callgsubr
        </CharString>
        <CharString name="Omega">
          281 0 83 540 97 hstemhm
          -10 75 25 177 336 180 hintmask 11011000
          345 128 rmoveto
          -56 22 -22 63 82 vvcurveto
          177 79 151 125 87 45 -74 -105 -146 -60 -137 -90 -33 vhcurveto
          -6 -128 rlineto
          198 hlineto
          20 94 0 callsubr
          41 176 -69 5 -6 -21 -17 -41 -18 -37 rlinecurve
          -20 -4 -32 -5 -31 -2 -87 -3 rcurveline
          153 55 89 145 163 vvcurveto
          165 -103 110 -195 -234 -161 -166 -230 -110 50 -91 102 -41 vhcurveto
          hintmask 11111000
          -84 3 -32 2 -30 5 -18 4 rlinecurve
          -8 35 -4 39 18 vvcurveto
          7 vlineto
          -70 -5 -11 -176 16 -18 rlineto
          0 94 4 20 vhcurveto
          hintmask 11011000
          198 hlineto
          endchar
        </CharString>
        <CharString name="Oslash">
          -73 callgsubr
          endchar
        </CharString>
        <CharString name="Oslashacute">
          -73 callgsubr
          -27 466 rmoveto
          -81 callgsubr
        </CharString>
        <CharString name="Otilde">
          25 callgsubr
          30 -16 callsubr
          35 177 353 178 hintmask 11001100
          -103 callgsubr
          hintmask 11101100
          368 612 rmoveto
          14 callgsubr
          hintmask 11011100
          -54 callsubr
          hintmask 11101100
          -54 callgsubr
        </CharString>
        <CharString name="P">
          20 0 74 197 82 280 82 -10 36 callgsubr
          465 161 hintmask 11100100
          425 715 rmoveto
          -50 -94 -9 -1 -55 hvcurveto
          hintmask 11010100
          -14 hlineto
          -82 callsubr
          hintmask 11001100
          61 -12 -1 -16 1 -45 -8 -50 rlinecurve
          -56 callsubr
          112 89 -5 0 vhcurveto
          16 76 -70 -5 callgsubr
          11 78 rlineto
          51 hlineto
          150 151 94 164 119 -79 67 -122 hvcurveto
          -111 -173 rmoveto
          hintmask 11100100
          2 16 9 49 5 25 rrcurveto
          1 11 9 0 5 hhcurveto
          76 34 -33 -71 -113 -67 -63 -99 hvcurveto
          -13 hlineto
          endchar
        </CharString>
        <CharString name="Q">
          168 -12 callgsubr
          -23 callgsubr
          598 -224 rmoveto
          107 124 rlineto
          0 -129 58 -14 10 vhcurveto
          -59 46 rlineto
          147 65 93 145 188 vvcurveto
          190 -116 122 -187 -237 -168 -176 -256 -189 116 -122 187 vhcurveto
          19 hlineto
          -145 290 rmoveto
          212 62 144 155 92 44 -64 -130 -212 -62 -143 -154 -92 -45 64 129 vhcurveto
          endchar
        </CharString>
        <CharString name="R">
          -96 callsubr
          endchar
        </CharString>
        <CharString name="Racute">
          -96 callsubr
          139 265 rmoveto
          -81 callgsubr
        </CharString>
        <CharString name="Rcaron">
          -96 callsubr
          184 286 rmoveto
          -74 callsubr
        </CharString>
        <CharString name="Rcommaaccent">
          73 0 74 203 84 272 82 -10 36 callgsubr
          285 127 62 161 hintmask 11100110
          430 715 rmoveto
          -54 -97 -10 -56 hhcurveto
          hintmask 11010110
          -50 -53 -88 callsubr
          hintmask 11001110
          64 -12 rlineto
          -18 -1 -44 -7 -49 vhcurveto
          -54 -14 callgsubr
          -68 -12 -5 -70 rlineto
          0 54 5 46 113 80 -5 0 vhcurveto
          17 76 -64 6 rlineto
          14 1 52 8 50 vhcurveto
          13 87 rlineto
          -2 17 17 -1 11 hhcurveto
          13 hlineto
          59 -161 rlineto
          9 -24 23 -92 0 vvcurveto
          113 77 -5 0 hvcurveto
          15 76 -47 4 -9 21 -12 23 -5 12 rlinecurve
          -4 8 -42 81 -32 93 rrcurveto
          87 42 65 78 102 vvcurveto
          112 -81 68 -124 vhcurveto
          -70 -82 rmoveto
          hintmask 11100110
          77 37 -34 -69 -99 -40 -70 -118 hvcurveto
          -24 hlineto
          27 181 20 90 rlineto
          1 9 7 0 5 hhcurveto
          -75 -766 rmoveto
          -96 callgsubr
          endchar
        </CharString>
        <CharString name="S">
          -28 -15 97 545 93 hstem
          81 170 100 171 vstem
          -98 callgsubr
          endchar
        </CharString>
        <CharString name="Sacute">
          -28 -15 97 545 93 hstem
          81 170 100 171 vstem
          -98 callgsubr
          318 677 rmoveto
          -81 callgsubr
        </CharString>
        <CharString name="Scaron">
          -28 -15 97 545 93 hstem
          81 170 100 171 vstem
          -98 callgsubr
          364 698 rmoveto
          -74 callsubr
        </CharString>
        <CharString name="Scedilla">
          -28 27 callsubr
          729 93 hstemhm
          81 170 -7 88 19 171 hintmask 11110100
          60 226 rmoveto
          -43 -193 rlineto
          hintmask 11101100
          0 73 -38 109 -8 vhcurveto
          -21 -89 -86 callsubr
          15 45 rlineto
          hintmask 11110100
          145 8 117 92 146 194 -271 -7 117 vvcurveto
          56 45 35 64 34 20 -11 -12 18 vhcurveto
          4 -16 3 -12 -5 vvcurveto
          -3 -11 -72 0 vhcurveto
          82 -5 41 193 rlineto
          21 -65 -79 15 -68 hhcurveto
          -146 -112 -88 -140 hvcurveto
          -200 270 12 -126 vvcurveto
          -65 -54 -31 -58 -50 -32 17 11 -18 vhcurveto
          -4 15 -4 18 6 vvcurveto
          4 10 68 0 vhcurveto
          endchar
        </CharString>
        <CharString name="Scircumflex">
          -28 -15 97 545 93 hstem
          81 170 100 171 vstem
          -98 callgsubr
          236 712 rmoveto
          -78 callsubr
        </CharString>
        <CharString name="Scommaaccent">
          -28 -15 97 545 93 hstemhm
          81 170 -63 127 36 171 hintmask 11101000
          -98 callgsubr
          hintmask 11011000
          47 -354 rmoveto
          -96 callgsubr
          endchar
        </CharString>
        <CharString name="T">
          24 0 74 549 82 10 -20 hstemhm
          51 608 -90 callsubr
          endchar
        </CharString>
        <CharString name="Tbar">
          24 0 74 283 64 202 82 10 -20 hstemhm
          51 608 hintmask 11101000
          642 531 rmoveto
          hintmask 11011000
          49 callsubr
          hintmask 11101000
          48 callgsubr
          hintmask 11011000
          -31 -166 rlineto
          hintmask 11101000
          70 -5 3 15 10 39 6 15 rlinecurve
          1 4 5 9 5 10 rrcurveto
          2 20 29 3 29 hhcurveto
          45 hlineto
          -1 -17 1 -45 -8 -49 -13 -91 rcurveline
          -125 hlineto
          -9 -64 rlineto
          125 hlineto
          -28 -194 -3 10 callgsubr
          24 callsubr
          5 48 111 79 -5 0 vhcurveto
          -3 callgsubr
          1 52 7 50 vhcurveto
          24 164 rlineto
          145 hlineto
          9 64 rlineto
          -145 hlineto
          18 121 -65 callgsubr
          endchar
        </CharString>
        <CharString name="Tcaron">
          24 0 74 549 82 10 -20 hstemhm
          51 608 -90 callsubr
          -24 393 rmoveto
          -74 callsubr
        </CharString>
        <CharString name="Tcedilla">
          24 27 callsubr
          97 79 549 82 10 -20 hstemhm
          280 88 hintmask 00010100
          642 531 rmoveto
          hintmask 00001100
          49 callsubr
          hintmask 00010100
          48 callgsubr
          hintmask 00001100
          -31 -166 rlineto
          hintmask 11110100
          70 -5 3 15 10 39 6 15 rlinecurve
          1 4 5 9 5 10 rrcurveto
          2 20 29 3 29 hhcurveto
          45 hlineto
          -1 -17 1 -45 -8 -49 -50 -349 rcurveline
          44 callsubr
          -65 -12 rcurveline
          -5 -70 -61 callgsubr
          48 vhcurveto
          17 hlineto
          -24 -102 -86 callsubr
          20 59 rlineto
          66 -2 44 -3 0 vvcurveto
          -3 callgsubr
          1 52 7 50 vhcurveto
          51 349 -65 callgsubr
          endchar
        </CharString>
        <CharString name="Thorn">
          0 0 74 72 82 260 82 56 59 callsubr
          444 156 hintmask 11110100
          394 629 rmoveto
          hintmask 11101100
          -2 callgsubr
          -80 -5 -109 vhcurveto
          hintmask 11110100
          -46 -50 -88 callsubr
          hintmask 11101100
          61 -12 rlineto
          -16 0 -45 -7 -50 vhcurveto
          -51 -349 -3 10 callgsubr
          -66 -12 -5 -70 rlineto
          0 52 5 46 109 78 -5 0 vhcurveto
          16 76 -62 6 1 10 0 27 2 32 rlinecurve
          72 hlineto
          145 131 87 156 114 -78 67 -123 -22 -31 -2 -2 -33 hvcurveto
          5 21 7 26 4 10 rrcurveto
          -29 -136 rmoveto
          hintmask 11110100
          1 13 11 0 7 hhcurveto
          78 35 -34 -68 -104 -66 -54 -100 hvcurveto
          -16 hlineto
          endchar
        </CharString>
        <CharString name="U">
          -105 callsubr
          endchar
        </CharString>
        <CharString name="Uacute">
          -105 callsubr
          -214 269 rmoveto
          hintmask 11010000
          -81 callgsubr
        </CharString>
        <CharString name="Ubreve">
          -51 callgsubr
          53 76 hstemhm
          82 715 hintmask 11011000
          hintmask 10111000
          -57 callsubr
          hintmask 11011000
          -41 callsubr
          hintmask 10111000
          -94 callgsubr
          hintmask 11011000
          -58 callgsubr
          hintmask 10111000
          -47 -48 -6 callsubr
          -48 callgsubr
          hintmask 10111000
          -93 callgsubr
          -232 269 rmoveto
          hintmask 11011000
          -93 callsubr
        </CharString>
        <CharString name="Ucircumflex">
          -105 callsubr
          -316 304 rmoveto
          hintmask 11010000
          -78 callsubr
        </CharString>
        <CharString name="Udieresis">
          -51 callgsubr
          67 139 hstemhm
          281 28 callgsubr
          hintmask 11011100
          hintmask 10111100
          -57 callsubr
          hintmask 11011100
          -41 callsubr
          hintmask 10111100
          -94 callgsubr
          hintmask 11011100
          -58 callgsubr
          hintmask 10111100
          -82 callsubr
          hintmask 11011100
          -48 callgsubr
          hintmask 10111100
          -93 callgsubr
          -432 267 rmoveto
          hintmask 11011100
          -79 callsubr
        </CharString>
        <CharString name="Ugrave">
          -105 callsubr
          -216 175 rmoveto
          hintmask 11010000
          -60 callsubr
        </CharString>
        <CharString name="Uhungarumlaut">
          -105 callsubr
          -301 289 rmoveto
          hintmask 11010000
          -49 callsubr
        </CharString>
        <CharString name="Umacron">
          -51 callgsubr
          81 73 hstemhm
          82 715 hintmask 11011000
          hintmask 10111000
          -57 callsubr
          hintmask 11011000
          -41 callsubr
          hintmask 10111000
          -94 callgsubr
          hintmask 11011000
          -58 callgsubr
          hintmask 10111000
          -47 -48 -6 callsubr
          -48 callgsubr
          hintmask 10111000
          -93 callgsubr
          -158 142 rmoveto
          hintmask 11011000
          -52 callgsubr
        </CharString>
        <CharString name="Uogonek">
          174 -197 64 120 112 527 59 callsubr
          236 108 hintmask 00101000
          hintmask 00011000
          -57 callsubr
          hintmask 00101000
          -41 callsubr
          hintmask 01011000
          -94 callgsubr
          hintmask 00101000
          -58 callgsubr
          hintmask 00011000
          -82 callsubr
          hintmask 00101000
          -48 callgsubr
          hintmask 11011000
          -35 -244 -24 -160 68 -108 161 -13 rlinecurve
          -36 -25 -33 -33 -50 vvcurveto
          -51 38 -25 56 39 6 callsubr
          5 callsubr
          30 15 26 35 26 hvcurveto
          154 19 95 106 23 154 40 274 rcurveline
          3 20 12 47 5 14 64 6 rcurveline
          endchar
        </CharString>
        <CharString name="Uring">
          -51 callgsubr
          45 58 75 58 hstemhm
          372 67 63 66 hintmask 11001110
          hintmask 10101110
          -57 callsubr
          hintmask 11001110
          -41 callsubr
          hintmask 10101110
          -94 callgsubr
          hintmask 11001110
          -58 callgsubr
          hintmask 10101110
          -82 callsubr
          hintmask 11001110
          -48 callgsubr
          hintmask 10101110
          -93 callgsubr
          -306 297 rmoveto
          hintmask 11001110
          -34 callgsubr
          hintmask 11011110
          18 8 -14 -17 -21 -12 -23 -25 hvcurveto
          hintmask 11001110
          -19 -7 14 16 21 10 24 27 hvcurveto
          endchar
        </CharString>
        <CharString name="Utilde">
          -51 callgsubr
          64 -16 callsubr
          82 715 hintmask 11010100
          hintmask 10110100
          -57 callsubr
          hintmask 11010100
          -41 callsubr
          hintmask 10110100
          -94 callgsubr
          hintmask 11010100
          -58 callgsubr
          hintmask 10110100
          -82 callsubr
          hintmask 11010100
          -48 callgsubr
          hintmask 10110100
          -93 callgsubr
          -185 254 rmoveto
          hintmask 11010100
          0 -29 -38 -25 vhcurveto
          -54 callsubr
          hintmask 11001100
          -54 callgsubr
        </CharString>
        <CharString name="V">
          102 628 77 -73 72 6 -20 hstemhm
          56 692 hintmask 01010000
          249 hmoveto
          116 hlineto
          273 544 rlineto
          14 30 42 56 0 vvcurveto
          48 7 rlineto
          hintmask 00110000
          31 callgsubr
          -60 -5 -84 vhcurveto
          hintmask 01010000
          -47 -60 -27 callgsubr
          -70 rlineto
          hintmask 00110000
          59 -12 rlineto
          hintmask 10010000
          0 -2 -18 -10 -20 vhcurveto
          -177 -383 -57 369 rlineto
          -2 18 3 34 0 vvcurveto
          hintmask 01010000
          64 9 31 callgsubr
          -91 -5 -116 vhcurveto
          hintmask 00110000
          -36 -52 -27 callgsubr
          -70 rlineto
          hintmask 01010000
          57 -9 rlineto
          0 12 -29 5 -25 vhcurveto
          endchar
        </CharString>
        <CharString name="W">
          -100 callgsubr
          endchar
        </CharString>
        <CharString name="Wacute">
          -100 callgsubr
          -326 268 rmoveto
          -230 -104 rlineto
          hintmask 01001000
          36 -64 71 38 rlineto
          19 6 139 40 -9 callgsubr
        </CharString>
        <CharString name="Wcircumflex">
          -100 callgsubr
          -408 273 rmoveto
          -213 -133 rlineto
          hintmask 01001000
          36 -58 73 48 88 42 75 -42 57 -48 20 callsubr
        </CharString>
        <CharString name="Wdieresis">
          414 628 77 -73 72 -69 69 6 -20 67 139 hstemhm
          402 28 callgsubr
          hintmask 01001110
          1051 637 rmoveto
          hintmask 00011110
          31 callgsubr
          -60 -5 -84 vhcurveto
          hintmask 01001110
          -46 -61 -27 callgsubr
          -70 rlineto
          hintmask 00011110
          59 -12 rlineto
          hintmask 10001110
          0 3 -16 -9 -22 vhcurveto
          -153 -383 -56 468 rlineto
          -114 hlineto
          -195 -468 -32 369 rlineto
          -1 26 6 26 0 vvcurveto
          hintmask 01001110
          64 9 31 callgsubr
          -91 -5 -116 vhcurveto
          hintmask 00011110
          -36 -52 -27 callgsubr
          -70 rlineto
          hintmask 01001110
          57 -9 rlineto
          0 8 -23 5 -31 vhcurveto
          hintmask 00011110
          96 -577 rlineto
          hintmask 00101110
          116 hlineto
          187 423 63 -423 rlineto
          115 hlineto
          246 544 rlineto
          19 40 32 46 0 vvcurveto
          -524 266 rmoveto
          -49 -28 -36 -46 hvcurveto
          hintmask 01001110
          -34 19 -68 callsubr
          vhcurveto
          230 hmoveto
          -49 -27 -36 -46 -34 18 -68 callsubr
          hvcurveto
          endchar
        </CharString>
        <CharString name="Wgrave">
          -100 callgsubr
          -307 174 rmoveto
          -230 104 rlineto
          hintmask 01001000
          -35 -84 rlineto
          0 138 -40 19 -6 vhcurveto
          72 -38 rlineto
          endchar
        </CharString>
        <CharString name="X">
          90 0 73 560 71 6 -20 hstemhm
          -29 746 hintmask 11010000
          266 343 rmoveto
          -146 -179 -16 -20 -45 -42 -30 -28 rlinecurve
          -52 -9 -6 -70 rlineto
          0 45 5 48 85 62 -5 0 vhcurveto
          17 76 -45 4 13 21 14 23 11 13 rlinecurve
          95 121 57 -111 9 -15 10 -30 8 -25 rlinecurve
          -35 -7 -6 -70 rlineto
          0 43 5 36 117 80 -5 0 vhcurveto
          16 76 -46 5 -16 20 -14 23 -9 13 rlinecurve
          -133 246 149 191 12 14 29 25 23 20 rlinecurve
          64 8 rlineto
          hintmask 10110000
          7 74 rlineto
          0 -59 -5 -82 59 callgsubr
          -51 -70 callsubr
          -70 rlineto
          hintmask 10110000
          36 -8 rlineto
          hintmask 11010000
          -12 -20 -13 -21 -11 -13 -80 -109 rcurveline
          -40 86 -9 17 -12 35 -7 24 rlinecurve
          38 5 9 74 rlineto
          0 -76 -5 -115 vhcurveto
          hintmask 10110000
          -37 -54 -70 callsubr
          -70 rlineto
          hintmask 11010000
          49 -8 40 -74 rlineto
          endchar
        </CharString>
        <CharString name="Y">
          109 -102 callgsubr
          endchar
        </CharString>
        <CharString name="Yacute">
          81 -102 callgsubr
          -149 268 rmoveto
          -81 callgsubr
        </CharString>
        <CharString name="Ycircumflex">
          81 -102 callgsubr
          -251 303 rmoveto
          -78 callsubr
        </CharString>
        <CharString name="Ydieresis">
          56 callgsubr
          67 139 hstemhm
          248 28 callgsubr
          hintmask 10101110
          750 637 rmoveto
          hintmask 10011110
          31 callgsubr
          -60 -5 -84 vhcurveto
          hintmask 10101110
          -46 -61 -27 callgsubr
          -70 rlineto
          hintmask 10011110
          39 -12 rlineto
          hintmask 11001110
          0 -4 -30 -4 -8 vhcurveto
          -139 -221 -72 207 rlineto
          -5 19 -2 33 0 vvcurveto
          51 9 6 73 rlineto
          hintmask 10101110
          0 -91 -5 -116 vhcurveto
          hintmask 10011110
          -36 -51 -27 callgsubr
          -70 rlineto
          hintmask 10101110
          56 -9 rlineto
          0 29 -30 9 -24 vhcurveto
          hintmask 10011110
          127 -323 rlineto
          hintmask 10101110
          -87 callsubr
          -367 266 rmoveto
          -79 callsubr
        </CharString>
        <CharString name="Ygrave">
          81 -102 callgsubr
          -151 174 rmoveto
          -60 callsubr
        </CharString>
        <CharString name="Ytilde">
          56 callgsubr
          64 -16 callsubr
          51 705 hintmask 10101010
          750 637 rmoveto
          hintmask 10011010
          31 callgsubr
          -60 -5 -84 vhcurveto
          hintmask 10101010
          -46 -61 -27 callgsubr
          -70 rlineto
          hintmask 10011010
          39 -12 rlineto
          hintmask 11001010
          0 -4 -30 -4 -8 vhcurveto
          -139 -221 -72 207 rlineto
          -5 19 -2 33 0 vvcurveto
          51 9 6 73 rlineto
          hintmask 10101010
          0 -91 -5 -116 vhcurveto
          hintmask 10011010
          -36 -51 -27 callgsubr
          -70 rlineto
          hintmask 10101010
          56 -9 rlineto
          0 29 -30 9 -24 vhcurveto
          hintmask 10011010
          127 -323 rlineto
          hintmask 10101010
          -87 callsubr
          -119 253 rmoveto
          0 -29 -38 -25 vhcurveto
          -54 callsubr
          hintmask 10100110
          -54 callgsubr
        </CharString>
        <CharString name="Z">
          -88 callgsubr
          endchar
        </CharString>
        <CharString name="Zacute">
          -88 callgsubr
          207 282 rmoveto
          -81 callgsubr
        </CharString>
        <CharString name="Zcaron">
          -88 callgsubr
          262 303 rmoveto
          -74 callsubr
        </CharString>
        <CharString name="Zdotaccent">
          12 0 89 527 89 10 -20 51 159 hstemhm
          288 156 hintmask 11001000
          405 616 rmoveto
          -60 -100 -206 -279 rlineto
          -28 -41 -101 -116 0 vvcurveto
          -1 -80 rlineto
          377 hlineto
          20 91 -9 callsubr
          23 18 39 184 -66 5 -4 -16 -11 -28 -6 -15 rlinecurve
          -2 -6 -11 -20 -13 -21 rrcurveto
          -4 -20 -34 -4 -28 hhcurveto
          -149 hlineto
          77 123 183 252 125 161 1 80 rlineto
          -371 hlineto
          -19 -91 10 0 hvcurveto
          hintmask 10101000
          -22 -18 -31 -185 70 -5 4 17 15 44 6 15 rlinecurve
          hintmask 11011000
          16 28 rlineto
          2 20 30 3 30 hhcurveto
          120 289 rmoveto
          -76 callgsubr
        </CharString>
        <CharString name="a">
          -33 callsubr
          hstem
          -23 510 vstem
          -104 callgsubr
          endchar
        </CharString>
        <CharString name="a.sups">
          -67 callsubr
        </CharString>
        <CharString name="aacute">
          -33 callsubr
          hstem
          -23 510 vstem
          -104 callgsubr
          222 565 18 callgsubr
          endchar
        </CharString>
        <CharString name="abreve">
          -33 callsubr
          49 76 hstemhm
          -23 510 hintmask 11101000
          -104 callgsubr
          hintmask 11111000
          216 539 rmoveto
          -93 callsubr
        </CharString>
        <CharString name="acircumflex">
          -33 callsubr
          hstem
          -23 535 vstem
          487 54 rmoveto
          -39 6 -5 29 -81 456 -109 -9 -205 -413 -40 -60 -26 -2 -5 -65 28 callsubr
          85 42 45 -6 0 vhcurveto
          13 60 -37 10 5 19 11 32 rlineto
          128 hlineto
          2 -34 -8 -17 -39 -3 -6 -65 rlineto
          0 53 4 128 28 26 -6 0 vhcurveto
          -133 771 rmoveto
          -87 callgsubr
          -244 -267 rmoveto
          11 -164 -81 -1 rlineto
          endchar
        </CharString>
        <CharString name="acute">
          58 callgsubr
          313 755 18 callgsubr
          endchar
        </CharString>
        <CharString name="acute.cap">
          519 168 hstem
          93 265 vstem
          323 687 rmoveto
          -81 callgsubr
        </CharString>
        <CharString name="adieresis">
          -33 callsubr
          61 139 hstem
          142 27 callgsubr
          vstem
          -104 callgsubr
          22 535 rmoveto
          -84 callgsubr
        </CharString>
        <CharString name="ae">
          -91 callsubr
          endchar
        </CharString>
        <CharString name="aeacute">
          -91 callsubr
          254 567 18 callgsubr
          endchar
        </CharString>
        <CharString name="agrave">
          -33 callsubr
          hstem
          -23 510 vstem
          -104 callgsubr
          236 433 rmoveto
          -68 callgsubr
        </CharString>
        <CharString name="amacron">
          -33 callsubr
          71 73 hstem
          -23 530 vstem
          -104 callgsubr
          291 406 rmoveto
          -52 callgsubr
        </CharString>
        <CharString name="ampersand">
          21 -18 96 336 89 hstem
          12 132 139 123 75 116 vstem
          697 556 rmoveto
          -29 -28 -34 -28 -39 -29 rrcurveto
          1 15 1 15 15 vvcurveto
          53 -7 60 -10 36 vhcurveto
          -132 -50 rlineto
          21 -53 12 -67 -58 vvcurveto
          -15 -1 -14 -1 -15 vhcurveto
          -30 -18 -32 -17 -32 -16 rrcurveto
          14 25 7 28 29 vvcurveto
          52 -58 27 -109 -97 -130 -211 -157 -97 52 -56 88 195 174 167 217 57 vhcurveto
          53 25 55 24 60 23 13 38 rcurveline
          -551 -398 rmoveto
          -41 -23 26 47 14 0 15 2 15 hvcurveto
          113 27 100 43 102 47 rrcurveto
          -134 -42 -103 -100 -108 hhcurveto
          22 336 rmoveto
          37 16 -9 -20 -53 -55 -51 -73 -22 hvcurveto
          83 17 31 72 27 hhcurveto
          endchar
        </CharString>
        <CharString name="aogonek">
          -77 -197 64 133 57 -57 62 53 75 355 -20 hstemhm
          150 108 hintmask 10111100
          hintmask 11011100
          487 54 rmoveto
          -39 6 -5 29 -81 456 -109 -9 rlineto
          hintmask 10111100
          -205 -413 -40 -60 -26 -2 -5 -65 28 callsubr
          85 42 45 -6 0 vhcurveto
          13 60 -37 10 5 19 11 32 rlineto
          128 -33 hlineto
          -20 -94 -120 -30 -79 vvcurveto
          -51 38 -25 56 39 6 callsubr
          5 callsubr
          hvcurveto
          hintmask 11011100
          37 32 47 53 9 vhcurveto
          77 hlineto
          28 26 -6 0 hvcurveto
          -206 361 rmoveto
          11 -164 -81 -1 rlineto
          endchar
        </CharString>
        <CharString name="approxequal">
          19 64 112 -52 112 28 112 -52 112 hstemhm
          55 493 hintmask 01011000
          hintmask 10011000
          413 64 rmoveto
          4 callsubr
          hintmask 01011000
          -18 callgsubr
          hintmask 10011000
          54 122 -60 60 hhcurveto
          hintmask 01101000
          200 vmoveto
          4 callsubr
          hintmask 01011000
          -18 callgsubr
          hintmask 01101000
          54 122 -60 60 hhcurveto
          endchar
        </CharString>
        <CharString name="aring">
          -33 callsubr
          45 58 75 58 hstemhm
          219 67 63 66 hintmask 11101110
          -104 callgsubr
          133 571 -31 callsubr
        </CharString>
        <CharString name="aringacute">
          -33 callsubr
          45 50 64 49 hstemhm
          240 57 54 56 hintmask 11101110
          -104 callgsubr
          137 543 -29 callsubr
          69 11 callsubr
        </CharString>
        <CharString name="asciicircum">
          -15 264 21 hstem
          356 732 rmoveto
          -319 -359 79 -59 217 264 142 -264 94 59 rlineto
          endchar
        </CharString>
        <CharString name="asciitilde">
          19 160 112 -52 112 hstemhm
          45 493 hintmask 01100000
          hintmask 10100000
          403 160 rmoveto
          4 callsubr
          hintmask 01100000
          -18 callgsubr
          hintmask 10100000
          54 122 -60 60 hhcurveto
          endchar
        </CharString>
        <CharString name="asterisk">
          -186 396 350 hstemhm
          170 74 -36 70 hintmask 11000000
          334 455 rmoveto
          36 67 -37 26 -27 24 83 58 rlineto
          hintmask 10100000
          -31 59 -46 -26 -4 -2 -15 -7 -18 -7 rlinecurve
          6 99 -69 -8 -8 -53 -10 -39 -79 41 -36 -67 38 -27 25 -24 -82 -57 rlineto
          hintmask 11000000
          31 -59 47 26 3 2 15 6 17 7 rlinecurve
          -5 -98 69 8 8 52 rlineto
          3 5 18 5 19 vhcurveto
          endchar
        </CharString>
        <CharString name="at">
          343 -208 82 108 127 297 104 93 64 hstem
          23 125 85 139 429 111 vstem
          529 -19 rmoveto
          218 16 165 161 191 vvcurveto
          220 -150 98 -220 -320 -199 -201 -320 -260 146 -94 196 83 93 16 28 98 vhcurveto
          -7 53 rlineto
          0 -168 -15 -50 -170 -96 93 177 240 126 219 240 170 117 -94 -167 -135 -58 -93 -91 -45 vhcurveto
          5 160 28 129 32 124 -39 28 rcurveline
          -81 -20 rlineto
          4 -29 -70 16 -33 hhcurveto
          -115 -117 -202 -171 -79 24 -76 57 96 88 101 132 59 hvcurveto
          -12 -80 -51 -135 0 vvcurveto
          -46 406 rmoveto
          36 43 -16 -11 26 hvcurveto
          -143 -23 -86 -127 -45 hhcurveto
          -23 -4 26 36 117 41 118 35 hvcurveto
          endchar
        </CharString>
        <CharString name="atilde">
          -33 callsubr
          69 -16 callsubr
          -23 528 hintmask 11110100
          -104 callgsubr
          264 533 rmoveto
          19 callsubr
          hintmask 11101100
          -53 callgsubr
          hintmask 11110100
          -35 callsubr
        </CharString>
        <CharString name="b">
          -77 -4 72 -68 61 175 79 155 73 -3 -20 hstemhm
          352 137 -118 135 hintmask 10010100
          hintmask 10010010
          340 543 rmoveto
          -27 -119 -8 1 -25 hvcurveto
          hintmask 01001100
          -43 -1 -24 5 0 vvcurveto
          -14 -66 40 -9 2 -22 -4 -37 -6 -40 rlinecurve
          -37 -232 -1 -16 -11 -42 -5 -11 rlinecurve
          -42 -7 rlineto
          hintmask 10010100
          -45 callsubr
          0 23 4 44 vhcurveto
          38 89 -4 51 hhcurveto
          115 110 48 121 66 -47 36 -66 10 hvcurveto
          1 5 rlineto
          hintmask 10010010
          72 17 57 56 72 vvcurveto
          74 -74 42 -92 vhcurveto
          -60 -76 rmoveto
          2 9 8 1 8 hhcurveto
          40 26 -29 -30 hvcurveto
          hintmask 10110010
          -61 -32 -35 -46 vhcurveto
          -4 hlineto
          hintmask 10110100
          -16 -79 rlineto
          6 hlineto
          37 36 -12 -51 -62 -44 -43 -60 -8 -9 0 1 -12 hvcurveto
          1 12 6 43 5 33 rrcurveto
          hintmask 10010010
          40 257 rlineto
          endchar
        </CharString>
        <CharString name="b.sups">
          -235 435 74 180 91 hstem
          290 99 vstem
          -7 callsubr
          -5 -62 -24 -230 -42 -145 rlinecurve
          24 -12 66 9 rlineto
          -4 22 39 -8 20 hhcurveto
          79 76 130 114 48 -15 53 -36 -55 -49 -45 -65 -38 hvcurveto
          12 74 19 92 19 95 rrcurveto
          -422 vmoveto
          -23 -26 9 8 -19 hvcurveto
          91 16 53 72 28 hhcurveto
          15 0 -15 -21 -75 -23 -69 -21 hvcurveto
          endchar
        </CharString>
        <CharString name="backslash">
          -187 -65 838 hstem
          73 258 vstem
          331 -35 rmoveto
          -167 808 -91 -30 166 -808 rlineto
          endchar
        </CharString>
        <CharString name="bar">
          -306 -122 882 hstem
          28 222 vstem
          122 -122 rmoveto
          128 874 -94 8 -128 -873 rlineto
          endchar
        </CharString>
        <CharString name="braceleft">
          -296 43 callsubr
          hstemhm
          13 317 -196 193 hintmask 11100000
          194 274 rmoveto
          -26 28 -37 14 0 vvcurveto
          1 9 rlineto
          0 41 14 34 28 vhcurveto
          hintmask 11010000
          24 234 rlineto
          10 callsubr
          -7 -136 -15 -215 vhcurveto
          -18 -20 -46 -19 -9 hhcurveto
          -11 -49 rlineto
          12 41 -20 -18 14 hvcurveto
          -80 -350 20 -29 rlineto
          69 99 -9 callsubr
          12 66 -68 9 rlineto
          25 0 30 5 35 vhcurveto
          endchar
        </CharString>
        <CharString name="braceright">
          -296 43 callsubr
          hstemhm
          -41 316 -313 192 hintmask 11100000
          94 367 rmoveto
          26 -28 37 -14 0 vvcurveto
          -1 -9 rlineto
          0 -41 -14 -34 -28 vhcurveto
          hintmask 11010000
          -24 -234 rlineto
          -6 -40 -17 -50 0 vvcurveto
          -69 -9 -6 -66 rlineto
          0 98 4 69 vhcurveto
          28 29 rlineto
          0 7 135 14 215 vhcurveto
          19 20 47 19 9 hhcurveto
          11 49 rlineto
          -13 -40 19 19 -15 hvcurveto
          81 350 8 callsubr
        </CharString>
        <CharString name="bracketleft">
          -320 43 callsubr
          hstem
          -20 316 vstem
          197 601 rmoveto
          10 callsubr
          -19 -162 -3 -20 vhcurveto
          -67 -457 rlineto
          -2 -20 -29 -166 0 vvcurveto
          20 -29 rlineto
          68 99 -9 callsubr
          12 66 -68 9 rlineto
          8 0 45 5 37 vhcurveto
          endchar
        </CharString>
        <CharString name="bracketright">
          -320 43 callsubr
          hstem
          -31 316 vstem
          67 40 rmoveto
          -6 -40 -17 -50 0 vvcurveto
          -69 -9 -6 -66 rlineto
          0 98 4 69 vhcurveto
          28 29 rlineto
          0 20 166 2 20 vhcurveto
          67 457 rlineto
          3 20 29 162 0 vvcurveto
          8 callsubr
        </CharString>
        <CharString name="breve">
          572 76 hstem
          92 67 vstem
          330 727 rmoveto
          -50 -7 -41 -29 -48 hhcurveto
          -49 -33 29 50 7 hvcurveto
          -64 hlineto
          -100 -15 51 -55 91 hhcurveto
          90 67 55 100 15 hvcurveto
          endchar
        </CharString>
        <CharString name="breve.cap">
          532 76 hstem
          87 301 vstem
          324 687 rmoveto
          -93 callsubr
        </CharString>
        <CharString name="brokenbar">
          -306 -122 882 hstem
          28 222 vstem
          197 392 rmoveto
          53 360 -94 8 -53 -360 rlineto
          -27 -188 rmoveto
          -48 -325 94 -9 48 327 rlineto
          endchar
        </CharString>
        <CharString name="bullet">
          -325 152 203 hstem
          40 171 vstem
          139 355 rmoveto
          -58 -41 -59 -63 -46 27 -35 45 58 41 60 63 47 -27 33 -45 hvcurveto
          endchar
        </CharString>
        <CharString name="c">
          -89 -11 84 389 85 hstem
          24 168 vstem
          -95 callgsubr
          -139 79 -93 161 65 60 13 12 51 hvcurveto
          endchar
        </CharString>
        <CharString name="c.sups">
          -322 437 71 202 67 hstem
          56 97 101 38 vstem
          209 777 rmoveto
          -67 -86 -135 -105 -63 34 -37 56 hvcurveto
          55 1 59 37 36 51 -33 28 rcurveline
          -30 -32 -26 -16 -20 hhcurveto
          -21 -11 13 26 77 27 86 25 15 16 -4 -6 18 hvcurveto
          -61 vlineto
          38 -2 23 107 -18 28 rlineto
          2 -15 -47 3 -26 hhcurveto
          endchar
        </CharString>
        <CharString name="cacute">
          -89 -11 84 389 85 hstem
          24 168 vstem
          -95 callgsubr
          -139 79 -93 161 65 60 13 12 51 hvcurveto
          10 741 18 callgsubr
          endchar
        </CharString>
        <CharString name="caron">
          707 -20 hstem
          50 384 vstem
          109 765 rmoveto
          -83 callsubr
          endchar
        </CharString>
        <CharString name="caron.cap">
          487 191 hstem
          42 384 vstem
          388 678 rmoveto
          -74 callsubr
        </CharString>
        <CharString name="ccaron">
          -89 -11 84 389 85 160 -20 hstem
          24 168 vstem
          -95 callgsubr
          -139 79 -93 161 65 60 13 12 51 hvcurveto
          -201 751 rmoveto
          -83 callsubr
          endchar
        </CharString>
        <CharString name="ccedilla">
          -89 27 callsubr
          91 84 389 85 hstem
          24 168 68 88 vstem
          -95 callgsubr
          -125 63 -88 129 -16 hvcurveto
          -22 -94 -86 callsubr
          16 48 60 2 55 12 48 11 rlinecurve
          endchar
        </CharString>
        <CharString name="ccircumflex">
          -89 -11 84 389 85 hstem
          24 168 vstem
          -95 callgsubr
          -139 79 -93 161 65 60 13 12 51 hvcurveto
          -70 751 rmoveto
          -87 callgsubr
          endchar
        </CharString>
        <CharString name="cdotaccent">
          -89 -11 84 389 85 29 159 hstemhm
          24 168 94 156 hintmask 11011000
          -95 callgsubr
          -139 79 -93 161 65 60 13 12 51 hvcurveto
          hintmask 11111000
          -64 721 rmoveto
          -76 callgsubr
        </CharString>
        <CharString name="cedilla">
          27 callsubr
          hstem
          149 88 vstem
          174 10 rmoveto
          -64 hlineto
          -27 -112 -86 callsubr
          endchar
        </CharString>
        <CharString name="cent">
          -80 65 97 342 182 hstem
          31 160 vstem
          380 686 rmoveto
          -63 hlineto
          -21 -104 rlineto
          -167 -11 -98 -134 -172 vvcurveto
          -114 56 -70 114 -14 vhcurveto
          -20 -106 rlineto
          64 hlineto
          20 104 59 4 63 26 52 41 rlinecurve
          -26 58 rlineto
          0 -53 -32 -69 -76 -24 47 65 113 32 117 103 25 23 -13 -13 13 vhcurveto
          -2 -39 -9 -54 rlineto
          75 hlineto
          41 174 rlineto
          0 -60 16 -71 6 vhcurveto
          endchar
        </CharString>
        <CharString name="circumflex">
          564 201 hstem
          38 384 vstem
          251 765 rmoveto
          -87 callgsubr
          endchar
        </CharString>
        <CharString name="circumflex.cap">
          501 191 hstem
          27 384 vstem
          240 692 rmoveto
          -78 callsubr
        </CharString>
        <CharString name="colon">
          -368 -15 165 -165 502 hstemhm
          15 137 -87 137 hintmask 01100000
          hintmask 10100000
          95 150 14 callsubr
          hintmask 01010000
          50 337 14 callsubr
          endchar
        </CharString>
        <CharString name="comma">
          -364 -136 290 -164 164 hstemhm
          22 140 hintmask 10100000
          hintmask 01100000
          74 -10 -11 callgsubr
        </CharString>
        <CharString name="copyright">
          260 -115 69 90 61 8 53 236 61 83 69 hstemhm
          57 69 96 123 159 56 -43 49 152 70 hintmask 1101111101000000
          -49 callgsubr
          hintmask 1111111011000000
          -154 -83 rmoveto
          -47 -1 rlineto
          0 -2 -21 -1 -7 vhcurveto
          -3 -9 -22 0 vhcurveto
          hintmask 1101111101000000
          -6 -28 -17 -2 -26 hhcurveto
          -66 -23 67 82 83 23 65 67 23 15 -2 -4 24 hvcurveto
          3 -6 4 -14 -1 vvcurveto
          3 -39 49 -2 9 109 rlineto
          9 -39 -39 11 -52 hhcurveto
          -142 -71 -86 -124 -123 71 -86 142 hvcurveto
          hintmask 1101111011000000
          51 44 11 9 39 hvcurveto
          endchar
        </CharString>
        <CharString name="d">
          -17 -5 73 403 72 -3 -20 hstemhm
          413 154 hintmask 11010000
          337 543 rmoveto
          -29 -109 -8 1 -29 hvcurveto
          hintmask 10110000
          -28 callgsubr
          hintmask 11010000
          134 -74 95 -156 vhcurveto
          -27 -72 -46 callgsubr
          38 257 rcurveline
          30 callsubr
        </CharString>
        <CharString name="d.sups">
          -209 437 92 -27 -20 25 -20 221 74 hstemhm
          65 98 hintmask 00111000
          391 951 rmoveto
          -143 -23 2 -35 52 -6 -1 -22 -6 -54 -6 -39 rlinecurve
          4 -23 -29 6 -17 hhcurveto
          -79 -76 -130 -113 hvcurveto
          hintmask 10011000
          -49 14 -53 37 66 60 68 88 40 vhcurveto
          hintmask 01011000
          -14 -66 -9 -18 -23 -59 24 -12 rcurveline
          138 27 3 37 rlineto
          hintmask 00111000
          -57 5 11 70 20 169 40 185 rlinecurve
          -207 -223 rmoveto
          23 26 -9 -7 19 hvcurveto
          hintmask 10011000
          -92 -16 -53 -71 -28 hhcurveto
          -15 -1 15 20 hvcurveto
          hintmask 00111000
          75 24 69 21 vhcurveto
          endchar
        </CharString>
        <CharString name="dagger">
          -53 509 -20 25 247 hstemhm
          253 79 158 22 hintmask 10110000
          hintmask 01110000
          332 514 rmoveto
          7 50 60 22 callgsubr
          -14 -91 rmoveto
          -8 -50 -99 -455 0 vvcurveto
          19 -18 120 10 7 6 rlineto
          0 38 487 3 20 vhcurveto
          hintmask 10110000
          -73 86 -22 callsubr
          endchar
        </CharString>
        <CharString name="daggerdbl">
          -53 313 110 86 -20 25 247 hstemhm
          253 78 100 22 37 22 hintmask 11011100
          hintmask 00110000
          331 514 rmoveto
          7 50 61 22 callgsubr
          -44 -291 rmoveto
          -7 -50 -70 -255 0 vvcurveto
          19 -18 120 10 7 6 rlineto
          0 9 287 2 20 vhcurveto
          hintmask 11011100
          -43 286 -22 callsubr
          -119 -198 rmoveto
          -62 4 -74 11 0 vvcurveto
          -20 -19 -3 -90 5 -6 rlineto
          0 117 18 25 1 vhcurveto
          90 hmoveto
          63 -4 73 -11 0 vvcurveto
          21 19 3 90 -5 6 rlineto
          0 -118 -18 -25 -1 vhcurveto
          -4 2 rmoveto
          3 25 12 84 1 1 rrcurveto
          -80 hlineto
          -16 -110 rlineto
          endchar
        </CharString>
        <CharString name="dcaron">
          -19 -5 73 403 72 -3 -20 187 -20 hstemhm
          413 154 hintmask 11011000
          337 543 rmoveto
          -29 -109 -8 1 -29 hvcurveto
          hintmask 10111000
          -28 callgsubr
          hintmask 11011000
          134 -74 95 -156 vhcurveto
          -27 -72 -46 callgsubr
          38 257 rcurveline
          -8 callsubr
          -93 294 rmoveto
          -83 callsubr
          endchar
        </CharString>
        <CharString name="dcroat">
          -75 callgsubr
        </CharString>
        <CharString name="degree">
          -204 368 61 176 61 hstem
          58 97 130 98 vstem
          383 543 rmoveto
          80 -62 43 -80 -105 -78 -72 -105 -80 60 -41 80 105 80 70 105 vhcurveto
          -150 62 rmoveto
          37 15 -30 -37 -54 -23 -55 -54 -37 -16 27 37 54 24 58 54 hvcurveto
          endchar
        </CharString>
        <CharString name="dieresis">
          586 139 hstem
          52 27 callgsubr
          vstem
          130 725 rmoveto
          -84 callgsubr
        </CharString>
        <CharString name="dieresis.cap">
          546 139 hstem
          47 28 callgsubr
          vstem
          124 685 rmoveto
          -79 callsubr
        </CharString>
        <CharString name="divide">
          6 -6 159 52 102 50 159 hstemhm
          184 148 -95 148 hintmask 01010000
          506 208 rmoveto
          14 100 rlineto
          -455 hlineto
          -15 -105 rlineto
          hintmask 01101000
          269 313 15 callgsubr
          hintmask 11010000
          -53 -363 15 callgsubr
          endchar
        </CharString>
        <CharString name="dollar">
          -79 -91 157 522 170 hstem
          82 160 75 170 vstem
          419 47 callgsubr
          0 -68 13 -60 5 vhcurveto
          17 92 -63 3 -18 -94 rlineto
          -130 -5 -102 -58 -132 -155 235 -57 -113 vvcurveto
          -50 -37 -29 -50 -40 -38 16 21 -33 vhcurveto
          19 110 -63 17 -70 -176 36 -29 69 -32 77 -9 rlinecurve
          -14 -74 64 -3 14 75 rlineto
          138 8 98 84 124 132 -245 85 108 vvcurveto
          40 31 24 40 40 39 -11 -12 30 vhcurveto
          endchar
        </CharString>
        <CharString name="dotaccent">
          576 159 hstem
          156 156 vstem
          246 735 rmoveto
          -76 callgsubr
        </CharString>
        <CharString name="dotaccent.cap">
          536 159 hstem
          151 155 vstem
          240 695 rmoveto
          -56 -33 -40 -53 -39 22 -27 44 56 33 39 54 41 -24 25 -42 hvcurveto
          endchar
        </CharString>
        <CharString name="dotbelowcomb">
          -220 155 hstem
          42 151 vstem
          130 -65 rmoveto
          -56 -32 -39 -52 -38 22 -26 43 55 31 38 52 41 -23 24 -40 hvcurveto
          endchar
        </CharString>
        <CharString name="dotlessi">
          -44 callgsubr
          hstemhm
          18 318 hintmask 11010000
          hintmask 10110000
          336 5 callgsubr
          -41 callgsubr
          hintmask 10110000
          -102 callsubr
          hintmask 11010000
          45 4 rlineto
          endchar
        </CharString>
        <CharString name="dotlessj">
          -282 467 69 4 -20 hstemhm
          -25 345 -73 callsubr
          endchar
        </CharString>
        <CharString name="e">
          -59 callsubr
          -4 callsubr
          hintmask 11010110
          -107 callsubr
          hintmask 10110110
          -75 callsubr
          hintmask 11010110
          -98 callsubr
          hintmask 11001110
          -57 callgsubr
          hintmask 11010110
          -40 callgsubr
          endchar
        </CharString>
        <CharString name="e.sups">
          -296 437 67 211 62 hstem
          56 96 94 89 vstem
          227 777 rmoveto
          -71 -100 -134 -106 -72 43 -28 48 56 68 40 50 39 hvcurveto
          -32 29 rlineto
          -21 -22 -41 -31 -28 hhcurveto
          -19 -16 12 32 9 0 9 1 9 hvcurveto
          114 19 68 54 70 vvcurveto
          39 -37 20 -71 vhcurveto
          -14 -62 rmoveto
          24 9 -6 -10 -30 -31 -37 -56 -14 hvcurveto
          52 11 20 45 23 hhcurveto
          endchar
        </CharString>
        <CharString name="eacute">
          -99 callsubr
          296 215 rmoveto
          hintmask 11000111
          -83 callgsubr
          endchar
        </CharString>
        <CharString name="ebreve">
          -59 callsubr
          -3 -20 54 76 -4 callsubr
          hintmask 1101001110000000
          -107 callsubr
          hintmask 1011001110000000
          -75 callsubr
          hintmask 1101001110000000
          -98 callsubr
          hintmask 1100101110000000
          -57 callgsubr
          hintmask 1101001110000000
          -40 callgsubr
          290 189 rmoveto
          hintmask 1100011110000000
          -93 callsubr
        </CharString>
        <CharString name="ecaron">
          -59 callsubr
          -3 -20 187 50 callsubr
          hintmask 1101001110000000
          -107 callsubr
          hintmask 1011001110000000
          -75 callsubr
          hintmask 1101001110000000
          -98 callsubr
          hintmask 1100101110000000
          -57 callgsubr
          hintmask 1101001110000000
          -40 callgsubr
          79 225 rmoveto
          hintmask 1100011110000000
          -83 callsubr
          endchar
        </CharString>
        <CharString name="ecircumflex">
          -99 callsubr
          217 225 rmoveto
          hintmask 11000111
          -87 callgsubr
          endchar
        </CharString>
        <CharString name="edieresis">
          -59 callsubr
          -3 -20 66 139 hstemhm
          123 134 53 57 -13 133 -81 67 hintmask 1101001110100000
          -107 callsubr
          hintmask 1011001110100000
          -75 callsubr
          hintmask 1101001110100000
          -98 callsubr
          hintmask 1100101110100000
          -57 callgsubr
          hintmask 1101001110100000
          -40 callgsubr
          106 185 rmoveto
          hintmask 1100011101000000
          -84 callgsubr
        </CharString>
        <CharString name="edotaccent">
          -59 callsubr
          -3 -20 56 159 hstemhm
          231 156 -77 57 39 67 hintmask 1101000011000000
          -107 callsubr
          hintmask 1011000011000000
          -75 callsubr
          hintmask 1101000011000000
          -98 callsubr
          hintmask 1100100011000000
          -57 callgsubr
          hintmask 1101000011000000
          -40 callgsubr
          226 195 rmoveto
          hintmask 1100011101000000
          -76 callgsubr
        </CharString>
        <CharString name="egrave">
          -99 callsubr
          319 83 rmoveto
          hintmask 11000111
          -68 callgsubr
        </CharString>
        <CharString name="eight">
          -57 40 callsubr
          14 145 -72 143 111 147 -112 142 hintmask 11101000
          hintmask 11011000
          87 496 rmoveto
          -73 39 -47 48 -35 vhcurveto
          hintmask 11101000
          -74 -40 -86 -66 -92 vvcurveto
          -107 101 -46 111 131 131 58 137 79 -50 50 -56 37 vhcurveto
          hintmask 11100100
          62 40 74 64 82 vvcurveto
          93 -90 52 -101 vhcurveto
          hintmask 11011000
          -121 -119 -66 -120 hvcurveto
          hintmask 11101000
          72 -348 rmoveto
          64 46 48 45 33 vhcurveto
          49 -32 42 -31 -56 vvcurveto
          -64 -38 -40 -65 -51 -28 30 48 vhcurveto
          hintmask 11010100
          217 385 rmoveto
          -55 -33 -47 -35 -34 vhcurveto
          -43 28 -35 29 54 vvcurveto
          58 44 36 41 36 25 -26 -43 vhcurveto
          endchar
        </CharString>
        <CharString name="eight.dnom">
          -225 -7 57 337 56 hstemhm
          -8 52 callgsubr
          hintmask 11011000
          40 322 -66 callgsubr
        </CharString>
        <CharString name="eight.numr">
          -225 293 57 337 56 hstemhm
          32 52 callgsubr
          hintmask 11011000
          80 622 -66 callgsubr
        </CharString>
        <CharString name="eight.osf">
          -90 40 callsubr
          6 145 -71 143 95 145 -108 142 hintmask 11101000
          hintmask 11011000
          80 495 rmoveto
          -72 37 -47 44 -35 vhcurveto
          hintmask 11101000
          -71 -40 -84 -66 -93 vvcurveto
          -106 97 -46 106 126 128 58 139 78 -47 50 -52 36 vhcurveto
          hintmask 11100100
          61 40 72 65 82 vvcurveto
          92 -87 52 -96 vhcurveto
          hintmask 11011000
          -118 -116 -66 -121 hvcurveto
          hintmask 11101000
          71 -350 rmoveto
          63 42 49 43 33 vhcurveto
          44 -31 38 -31 -53 vvcurveto
          -64 -35 -41 -61 -47 -24 29 46 vhcurveto
          hintmask 11010100
          204 390 rmoveto
          -55 -31 -46 -33 -34 vhcurveto
          -38 27 -30 29 50 vvcurveto
          59 41 37 38 32 21 -25 -42 vhcurveto
          endchar
        </CharString>
        <CharString name="eight.sinf">
          -198 -107 58 348 58 hstemhm
          -22 107 -56 105 68 108 -83 104 hintmask 11011000
          29 232 rmoveto
          -49 27 -31 32 -24 vhcurveto
          hintmask 11101000
          -51 -27 -59 -44 -61 vvcurveto
          -72 72 -31 77 91 92 38 93 53 -35 34 -38 25 vhcurveto
          hintmask 11010100
          43 27 51 42 55 vvcurveto
          62 -63 35 -71 vhcurveto
          hintmask 11011000
          -85 -83 -44 -81 hvcurveto
          hintmask 11101000
          56 -232 rmoveto
          40 29 31 29 22 vhcurveto
          32 -20 27 -20 -36 vvcurveto
          -41 -22 -25 -44 -34 -17 19 30 vhcurveto
          hintmask 11010100
          142 257 rmoveto
          -35 -21 -30 -23 -23 vhcurveto
          -28 18 -21 19 34 vvcurveto
          38 28 21 26 23 16 -15 -27 vhcurveto
          endchar
        </CharString>
        <CharString name="eight.sups">
          -225 443 57 211 -20 146 56 hstemhm
          62 52 callgsubr
          hintmask 11101100
          110 772 rmoveto
          -47 25 -31 31 -23 vhcurveto
          hintmask 11110100
          -48 -26 -56 -43 -59 vvcurveto
          -70 68 -30 75 87 88 37 90 52 -33 32 -36 25 vhcurveto
          hintmask 11101010
          41 26 48 41 53 vvcurveto
          60 -61 34 -68 vhcurveto
          hintmask 11101100
          -81 -80 -42 -79 hvcurveto
          hintmask 11110100
          55 -225 rmoveto
          39 27 30 28 21 vhcurveto
          31 -20 25 -19 -35 vvcurveto
          -40 -21 -23 -42 -32 -16 18 29 vhcurveto
          hintmask 11101010
          134 249 rmoveto
          -33 -20 -30 -21 -22 vhcurveto
          -26 18 -20 18 33 vvcurveto
          36 26 21 25 21 15 -15 -26 vhcurveto
          endchar
        </CharString>
        <CharString name="eight.tf">
          -75 40 callsubr
          10 145 -72 142 104 146 -111 142 hintmask 11011000
          83 495 rmoveto
          -72 38 -47 46 -35 vhcurveto
          hintmask 11101000
          -73 -40 -84 -66 -92 vvcurveto
          -107 99 -46 109 128 129 58 137 79 -49 50 -54 37 vhcurveto
          hintmask 11010100
          61 40 73 64 82 vvcurveto
          93 -89 52 -99 vhcurveto
          hintmask 11011000
          -118 -117 -66 -121 hvcurveto
          hintmask 11101000
          72 -347 rmoveto
          63 43 48 44 32 vhcurveto
          47 -31 40 -31 -55 vvcurveto
          -64 -36 -40 -63 -49 -26 30 48 vhcurveto
          hintmask 11010100
          209 385 rmoveto
          -54 -32 -47 -33 -34 vhcurveto
          -42 28 -32 29 53 vvcurveto
          58 42 36 39 34 24 -26 -43 vhcurveto
          endchar
        </CharString>
        <CharString name="eight.tosf">
          -75 40 callsubr
          10 145 -71 143 101 145 -108 142 hintmask 11101000
          hintmask 11011000
          84 495 rmoveto
          -72 38 -47 45 -35 vhcurveto
          hintmask 11101000
          -72 -40 -85 -66 -93 vvcurveto
          -106 98 -46 108 128 129 58 139 78 -48 50 -53 36 vhcurveto
          hintmask 11100100
          61 40 74 64 83 vvcurveto
          92 -88 52 -98 vhcurveto
          hintmask 11011000
          -119 -118 -66 -121 hvcurveto
          hintmask 11101000
          71 -350 rmoveto
          64 44 49 44 33 vhcurveto
          46 -31 39 -31 -54 vvcurveto
          -64 -37 -41 -62 -49 -25 29 46 vhcurveto
          hintmask 11010100
          210 390 rmoveto
          -55 -32 -47 -34 -35 vhcurveto
          -40 28 -32 29 51 vvcurveto
          59 43 37 39 34 22 -25 -42 vhcurveto
          endchar
        </CharString>
        <CharString name="ellipsis">
          28 55 callgsubr
          61 137 cntrmask 01110000
          -20 callsubr
          198 hmoveto
          -47 -33 -48 -51 -38 21 -28 36 47 33 49 51 38 -21 27 -36 hvcurveto
          endchar
        </CharString>
        <CharString name="emacron">
          -59 callsubr
          -3 -20 76 73 -4 callsubr
          hintmask 1101001110000000
          -107 callsubr
          hintmask 1011001110000000
          -75 callsubr
          hintmask 1101001110000000
          -98 callsubr
          hintmask 1100101110000000
          -57 callgsubr
          hintmask 1101001110000000
          -40 callgsubr
          378 56 rmoveto
          hintmask 1100011110000000
          -52 callgsubr
        </CharString>
        <CharString name="emdash">
          349 206 95 hstem
          -10 1016 vstem
          1006 301 rmoveto
          -1006 hlineto
          -10 -95 rlineto
          998 hlineto
          endchar
        </CharString>
        <CharString name="endash">
          -123 206 95 hstem
          -10 514 vstem
          504 301 rmoveto
          -504 hlineto
          -10 -95 rlineto
          496 hlineto
          endchar
        </CharString>
        <CharString name="eng">
          -104 -197 64 133 78 153 73 7 46 106 73 -6 13 hstemhm
          178 108 24 57 39 67 hintmask 1110100110000000
          81 474 rmoveto
          43 -9 2 -19 -2 -28 -51 callsubr
          -11 -47 -4 -6 rlinecurve
          -45 -35 callgsubr
          hintmask 1110101110000000
          0 21 3 47 1 vhcurveto
          181 hlineto
          -40 -32 -45 -25 -64 vvcurveto
          -51 38 -13 callsubr
          -11 -2 -9 hhcurveto
          -27 -11 18 22 71 70 16 42 3 hvcurveto
          16 14 32 144 rlineto
          hintmask 1110100110000000
          37 callgsubr
          -5 -16 -4 -11 rlinecurve
          -5 -8 -5 -12 -10 -15 rrcurveto
          -3 -14 -18 -3 -21 hhcurveto
          -85 hlineto
          11 79 12 74 rlineto
          1 17 -1 0 vhcurveto
          12 hlineto
          16 24 -9 callsubr
          1 -43 57 4 rlineto
          hintmask 1101100110000000
          -75 callsubr
          hintmask 1110100110000000
          -98 callsubr
          hintmask 1110010110000000
          -57 callgsubr
          hintmask 1110100110000000
          -40 callgsubr
          endchar
        </CharString>
        <CharString name="eogonek">
          35 0 63 403 74 -19 14 hstemhm
          14 635 -633 179 274 176 hintmask 11010000
          hintmask 11000100
          649 -14 callsubr
          -67 -4 -62 vhcurveto
          -80 5 -13 -63 42 -12 -1 -11 -1 -48 -5 -37 rlinecurve
          -24 -167 -119 208 rlineto
          hintmask 10110000
          -9 17 -37 93 0 vvcurveto
          -12 14 rlineto
          -98 hlineto
          hintmask 11001100
          -46 1 -22 4 0 vvcurveto
          -14 -66 41 -9 1 -7 -1 -40 31 callsubr
          -11 -45 -4 -8 rlinecurve
          -44 -35 callgsubr
          0 26 4 45 98 43 -4 0 vhcurveto
          13 65 -43 4 1 6 0 45 6 42 rlinecurve
          20 140 176 -300 rlineto
          -1 -6 -73 -117 0 vvcurveto
          44 -27 92 76 66 54 -1 25 rlinecurve
          0 8 58 6 42 vhcurveto
          46 315 1 7 9 35 2 6 rlinecurve
          44 hlineto
          endchar
        </CharString>
        <CharString name="equal">
          0 100 103 87 103 hstem
          43 498 vstem
          526 293 rmoveto
          15 34 callsubr
          428 -185 rmoveto
          14 34 callsubr
          endchar
        </CharString>
        <CharString name="estimated">
          212 -12 20 303 18 302 20 hstem
          40 135 468 134 vstem
          180 311 rmoveto
          597 8 hlineto
          184 -165 148 -203 -203 -166 -148 -184 -183 166 -148 203 118 107 51 78 67 vhcurveto
          -54 hlineto
          -67 -57 -85 -42 -95 hhcurveto
          -89 -81 37 60 -56 hvcurveto
          -5 6 -4 7 8 vvcurveto
          181 vlineto
          3 2 1 3 vhcurveto
          463 205 rmoveto
          -182 vlineto
          -3 -2 -2 -3 vhcurveto
          -458 hlineto
          -3 -2 2 3 hvcurveto
          178 vlineto
          9 4 8 6 6 vhcurveto
          59 57 79 37 89 hhcurveto
          87 79 -36 -57 57 hvcurveto
          6 -6 4 -7 -9 vvcurveto
          endchar
        </CharString>
        <CharString name="eth">
          -75 callgsubr
        </CharString>
        <CharString name="etilde">
          -59 callsubr
          -3 -20 74 91 -53 91 -4 callsubr
          hintmask 1101001011000000
          -107 callsubr
          hintmask 1011001011000000
          -75 callsubr
          hintmask 1101001011000000
          -98 callsubr
          hintmask 1100101011000000
          -57 callgsubr
          hintmask 1101001011000000
          -40 callgsubr
          338 183 rmoveto
          hintmask 1100011011000000
          19 callsubr
          -41 -73 38 -41 hhcurveto
          -42 -59 -105 0 hvcurveto
          hintmask 1101000111000000
          -22 callgsubr
          -35 callsubr
        </CharString>
        <CharString name="exclam">
          -346 721 -20 hstem
          17 139 vstem
          170 241 rmoveto
          0 4 47 4 30 vhcurveto
          23 157 55 218 0 vvcurveto
          -23 28 -112 -9 -53 -416 rlineto
          -4 -30 -6 -36 0 vvcurveto
          37 52 -4 -1 5 hvcurveto
          -54 -71 -47 callsubr
        </CharString>
        <CharString name="exclamdown">
          -346 339 169 0 -20 hstemhm
          82 139 hintmask 01100000
          68 252 rmoveto
          0 -4 -47 -4 -30 vhcurveto
          -23 -157 -54 -218 0 vvcurveto
          21 -28 113 9 53 416 rlineto
          4 30 6 36 0 vvcurveto
          -37 -52 4 1 -5 hvcurveto
          77 240 rmoveto
          -48 -33 -49 -52 hvcurveto
          hintmask 10100000
          -39 21 -29 37 48 33 50 52 vhcurveto
          hintmask 01100000
          39 -21 28 -37 vhcurveto
          endchar
        </CharString>
        <CharString name="f">
          -145 0 63 159 73 6 46 116 73 4 -20 23 -20 hstemhm
          310 56 40 67 hintmask 11010011
          hintmask 11000111
          468 543 rmoveto
          0 -71 -7 -16 vhcurveto
          hintmask 11010011
          -219 hlineto
          -47 -62 callsubr
          hintmask 11001011
          43 -9 2 -11 -2 -36 -51 callsubr
          -11 -47 -4 -6 -63 callsubr
          99 99 -4 0 vhcurveto
          12 65 -68 4 -2 14 1 33 6 42 rlinecurve
          11 68 rlineto
          31 hlineto
          14 26 -5 0 hvcurveto
          -43 vlineto
          56 5 rlineto
          0 7 66 6 38 vhcurveto
          2 15 8 47 0 vvcurveto
          hintmask 10110011
          -53 4 -14 -48 rlineto
          0 -11 -6 -16 vhcurveto
          -36 hlineto
          hintmask 11010011
          -4 -1 -1 1 -5 hvcurveto
          18 119 rlineto
          2 7 34 2 13 vhcurveto
          72 hlineto
          25 20 -2 -2 14 hvcurveto
          -1 -6 0 -5 2 -2 rrcurveto
          -11 -2 -24 -12 vvcurveto
          61 4 13 127 rlineto
          endchar
        </CharString>
        <CharString name="f.sups">
          -356 297 76 345 55 103 75 hstem
          -64 459 vstem
          238 773 rmoveto
          8 40 9 35 7 10 rrcurveto
          11 7 29 7 30 hhcurveto
          14 23 -9 callsubr
          30 74 rlineto
          0 -23 5 -18 -102 -81 -56 -86 -22 vhcurveto
          2 -4 -19 -11 -7 vhcurveto
          -10 -8 -18 -5 -25 -9 -5 -45 rcurveline
          58 hlineto
          -14 -105 -20 -201 -32 -25 rrcurveto
          -9 -12 -20 -5 -30 hhcurveto
          -12 -12 1 3 -14 hvcurveto
          -32 -78 rlineto
          -1 14 12 -1 14 hhcurveto
          63 92 21 99 44 hvcurveto
          24 48 3 104 25 149 rrcurveto
          66 hlineto
          14 55 rlineto
          -69 hlineto
          endchar
        </CharString>
        <CharString name="five">
          -112 280 103 138 131 hstem
          273 159 vstem
          229 652 rmoveto
          -87 hlineto
          -21 -18 rlineto
          0 -44 -187 -26 -127 vhcurveto
          38 -54 rlineto
          11 38 29 3 21 hhcurveto
          67 29 -35 -57 -110 -52 -60 -220 -49 hvcurveto
          11 -74 rlineto
          279 43 141 108 172 vvcurveto
          102 -65 63 -128 -16 -24 -1 -3 -20 vhcurveto
          18 81 12 61 0 vvcurveto
          93 hlineto
          29 123 14 0 hvcurveto
          12 127 rlineto
          endchar
        </CharString>
        <CharString name="five.dnom">
          -261 180 71 81 92 hstem
          159 113 vstem
          137 424 rmoveto
          -60 hlineto
          -14 -12 rlineto
          0 -26 -103 -20 -99 vhcurveto
          -69 callsubr
        </CharString>
        <CharString name="five.numr">
          -261 480 71 -41 -20 142 92 hstemhm
          199 113 hintmask 10110000
          177 724 rmoveto
          -60 hlineto
          -14 -12 rlineto
          hintmask 01110000
          0 -26 -103 -20 -99 vhcurveto
          hintmask 10110000
          -69 callsubr
        </CharString>
        <CharString name="five.osf">
          -90 38 callsubr
          272 160 hintmask 11001000
          219 539 rmoveto
          -89 hlineto
          hintmask 10101000
          -21 -18 rlineto
          0 -44 -187 -26 -127 vhcurveto
          40 -54 rlineto
          11 40 29 3 22 hhcurveto
          71 31 -35 -59 -110 -64 -59 -217 -48 hvcurveto
          11 -74 rlineto
          282 43 148 107 171 vvcurveto
          103 -69 64 -132 -18 -25 -1 -3 -20 vhcurveto
          hintmask 11001000
          17 81 12 61 0 vvcurveto
          94 hlineto
          31 130 47 callsubr
        </CharString>
        <CharString name="five.sinf">
          -235 85 74 84 94 hstem
          154 117 vstem
          130 337 rmoveto
          -62 hlineto
          -15 -12 rlineto
          0 -28 -108 -21 -101 vhcurveto
          27 -40 rlineto
          7 26 20 2 14 hhcurveto
          44 19 -22 -37 -69 -26 -39 -157 -35 hvcurveto
          8 -53 rlineto
          199 31 93 73 114 vvcurveto
          68 -44 43 -89 -10 -16 -1 -1 -13 vhcurveto
          12 53 7 33 0 vvcurveto
          68 hlineto
          20 78 8 0 hvcurveto
          10 93 rlineto
          endchar
        </CharString>
        <CharString name="five.sups">
          -261 630 71 81 92 hstem
          229 113 vstem
          207 874 rmoveto
          -60 hlineto
          -14 -12 rlineto
          0 -26 -103 -20 -99 vhcurveto
          -69 callsubr
        </CharString>
        <CharString name="five.tf">
          -75 280 103 138 131 hstem
          298 159 vstem
          242 652 rmoveto
          -89 hlineto
          -21 -18 rlineto
          0 -48 -187 -23 -127 vhcurveto
          39 -54 rlineto
          11 41 30 3 22 hhcurveto
          73 32 -35 -58 -109 -65 -60 -224 -49 hvcurveto
          12 -74 rlineto
          285 43 151 107 172 vvcurveto
          103 -69 63 -134 -18 -26 -1 -3 -22 vhcurveto
          19 81 14 61 0 vvcurveto
          94 hlineto
          30 136 14 0 hvcurveto
          10 127 rlineto
          endchar
        </CharString>
        <CharString name="five.tosf">
          -75 38 callsubr
          282 160 hintmask 11001000
          224 539 rmoveto
          -89 hlineto
          hintmask 10101000
          -22 -18 rlineto
          0 -45 -187 -25 -127 vhcurveto
          41 -54 rlineto
          11 40 30 3 23 hhcurveto
          73 32 -35 -59 -110 -69 -59 -219 -48 hvcurveto
          12 -74 rlineto
          284 43 152 107 170 vvcurveto
          104 -71 64 -134 -19 -25 -1 -3 -21 vhcurveto
          hintmask 11001000
          17 81 13 61 0 vvcurveto
          94 hlineto
          32 134 47 callsubr
        </CharString>
        <CharString name="florin">
          -218 -194 78 535 75 195 81 hstem
          -65 557 vstem
          275 560 rmoveto
          80 14 13 49 50 hhcurveto
          15 12 -4 -4 9 hvcurveto
          -3 -44 -7 -45 74 -3 40 167 rlineto
          0 -76 14 -69 -110 -75 -67 -106 -19 vhcurveto
          -18 -95 -19 -7 -20 -5 -26 -8 rlinecurve
          -6 -63 rlineto
          56 hlineto
          -75 -409 rlineto
          -75 -14 -11 -51 -61 hhcurveto
          -14 -78 rlineto
          132 84 68 105 19 hvcurveto
          79 440 rlineto
          114 hlineto
          20 75 rlineto
          -120 hlineto
          endchar
        </CharString>
        <CharString name="foundryicon">
          139 61 152 52 157 135 87 hstem
          88 91 74 67 74 65 142 70 vstem
          591 61 rmoveto
          52 28 28 52 hvcurveto
          423 vlineto
          52 -28 28 -52 vhcurveto
          -423 hlineto
          -52 -28 -28 -52 hvcurveto
          -423 vlineto
          -52 28 -28 52 vhcurveto
          148 403 rmoveto
          45 33 -31 -42 hvcurveto
          -178 -74 136 vlineto
          38 -14 18 -29 -18 -6 -3 -9 vhcurveto
          -180 -74 344 74 -116 vlineto
          -6 2 -3 4 3 3 2 2 3 vhcurveto
          155 -14 rmoveto
          18 vlineto
          89 56 rlineto
          21 -28 hlineto
          -6 4 -4 6 vhcurveto
          58 -36 -58 hlineto
          -7 -3 -4 -6 hvcurveto
          -90 vlineto
          -40 12 -17 29 8 9 1 3 9 vhcurveto
          -25 vlineto
          -63 -37 rlineto
          -45 -33 31 42 hvcurveto
          132 vlineto
          7 -3 3 -7 vhcurveto
          endchar
        </CharString>
        <CharString name="four">
          -36 0 73 109 91 hstem
          14 508 vstem
          425 739 rmoveto
          -411 -465 61 -92 rlineto
          200 hlineto
          -3 -21 rlineto
          -3 -19 -18 -65 -1 vvcurveto
          -95 -12 -5 -69 rlineto
          0 67 5 46 109 83 -5 0 vhcurveto
          15 75 -63 46 callsubr
          91 hlineto
          16 105 -92 -5 19 136 -147 -48 -14 -97 rlineto
          -130 hlineto
          222 257 rlineto
          17 23 115 102 -9 callgsubr
        </CharString>
        <CharString name="four.dnom">
          -211 0 49 67 64 hstem
          -6 341 vstem
          264 480 rmoveto
          -270 -299 44 -65 rlineto
          125 hlineto
          -1 -8 rlineto
          -2 -13 -12 -45 1 vvcurveto
          -62 -7 -21 callgsubr
          9 51 -74 callgsubr
        </CharString>
        <CharString name="four.numr">
          -211 300 49 67 64 57 -20 hstem
          34 341 vstem
          304 780 rmoveto
          -270 -299 44 -65 rlineto
          125 hlineto
          -1 -8 rlineto
          -2 -13 -12 -45 1 vvcurveto
          -62 -7 -21 callgsubr
          9 51 -74 callgsubr
        </CharString>
        <CharString name="four.osf">
          -90 -43 callsubr
        </CharString>
        <CharString name="four.sinf">
          -182 -100 51 69 65 hstem
          -19 356 vstem
          263 395 rmoveto
          -282 -309 45 -66 rlineto
          132 hlineto
          -2 -9 -2 -13 -13 -46 1 1 rlinecurve
          -65 -8 -4 -48 rlineto
          0 41 3 35 79 61 -3 0 vhcurveto
          10 52 -41 4 1 -1 -3 26 4 28 rlinecurve
          2 14 rlineto
          63 hlineto
          12 75 -64 -4 12 88 -109 -35 -9 -59 rlineto
          -82 hlineto
          153 170 rlineto
          12 15 76 65 -9 callgsubr
        </CharString>
        <CharString name="four.sups">
          -211 450 51 -7 -20 24 -20 88 64 91 -20 hstemhm
          64 341 hintmask 10011100
          334 930 rmoveto
          -270 -299 44 -65 rlineto
          125 hlineto
          -1 -8 rlineto
          -2 -13 -12 -45 1 vvcurveto
          hintmask 01011100
          -62 -7 rlineto
          hintmask 10011100
          -21 callgsubr
          hintmask 00111100
          9 51 rlineto
          hintmask 10011100
          -74 callgsubr
        </CharString>
        <CharString name="four.tf">
          -75 0 73 109 91 hstemhm
          9 487 -245 140 hintmask 11100000
          400 739 rmoveto
          -391 -465 60 -92 rlineto
          hintmask 11010000
          183 hlineto
          -2 -21 -3 -19 -18 -65 1 -1 rlinecurve
          -90 -12 -5 -69 rlineto
          0 58 5 47 107 82 -5 0 vhcurveto
          15 75 -58 46 callsubr
          86 hlineto
          17 105 -88 -5 19 136 -148 -48 -13 -97 rlineto
          -116 hlineto
          212 257 rlineto
          17 23 106 102 -9 callgsubr
        </CharString>
        <CharString name="four.tosf">
          -75 -43 callsubr
        </CharString>
        <CharString name="fraction">
          -488 720 -20 hstem
          -254 579 vstem
          264 720 -7 callgsubr
          endchar
        </CharString>
        <CharString name="g">
          -24 callsubr
          hstem
          25 168 vstem
          -105 callgsubr
          endchar
        </CharString>
        <CharString name="g.sups">
          -235 297 75 65 92 179 74 hstem
          64 98 vstem
          363 782 rmoveto
          -56 -13 rlineto
          2 -18 -45 11 -26 hhcurveto
          -78 -76 -129 -114 -49 14 -53 37 66 59 67 87 40 hvcurveto
          -6 -51 -29 -78 -16 vvcurveto
          -3 1 -47 -11 -10 vhcurveto
          -10 -11 -30 -4 -25 hhcurveto
          -42 -39 14 11 -23 hvcurveto
          -30 -81 rlineto
          -9 16 34 -10 52 hhcurveto
          76 106 30 133 18 hvcurveto
          15 118 20 121 19 64 rrcurveto
          -184 -55 rmoveto
          22 27 -9 -7 19 hvcurveto
          -92 -16 -54 -71 -27 hhcurveto
          -15 -1 15 20 75 23 69 22 hvcurveto
          endchar
        </CharString>
        <CharString name="gbreve">
          -24 callsubr
          27 76 hstemhm
          25 168 hintmask 11101000
          -105 callgsubr
          hintmask 11111000
          105 182 rmoveto
          -93 callsubr
        </CharString>
        <CharString name="gcircumflex">
          -24 callsubr
          hstem
          25 168 vstem
          -105 callgsubr
          32 218 rmoveto
          -87 callgsubr
          endchar
        </CharString>
        <CharString name="gcommaaccent">
          -24 callsubr
          hstem
          25 168 35 127 vstem
          -105 callgsubr
          -128 -680 rmoveto
          -96 callgsubr
          endchar
        </CharString>
        <CharString name="gdieresis">
          -24 callsubr
          39 139 hstemhm
          25 168 -14 27 callgsubr
          hintmask 11111010
          -105 callgsubr
          hintmask 11110110
          -99 178 rmoveto
          -84 callgsubr
        </CharString>
        <CharString name="gdotaccent">
          -24 callsubr
          29 159 hstemhm
          25 168 91 156 hintmask 11101100
          -105 callgsubr
          hintmask 11111100
          18 188 rmoveto
          -76 callgsubr
        </CharString>
        <CharString name="germandbls">
          1 -13 88 -75 61 379 107 hstemhm
          405 145 hintmask 10110000
          264 247 rmoveto
          115 -74 26 -21 -33 vvcurveto
          -32 -17 -12 -30 -18 -14 6 10 -10 vhcurveto
          -7 19 rlineto
          5 46 2 7 1 vvcurveto
          -66 4 rlineto
          hintmask 01110000
          -33 -150 rlineto
          hintmask 10110000
          0 51 -31 75 114 93 73 97 49 -30 33 -100 59 vhcurveto
          154 185 rlineto
          38 -52 -93 26 -82 hhcurveto
          -140 -98 -83 -130 -19 hvcurveto
          hintmask 01110000
          -30 -204 -1 -8 -10 -33 -7 -24 rlinecurve
          -46 -35 callgsubr
          0 13 4 83 vhcurveto
          107 hlineto
          1 38 11 108 2 12 25 180 rcurveline
          58 9 44 44 51 hhcurveto
          36 28 -9 -11 7 hvcurveto
          endchar
        </CharString>
        <CharString name="grave">
          58 callgsubr
          359 623 rmoveto
          -68 callgsubr
        </CharString>
        <CharString name="grave.cap">
          529 168 hstem
          95 265 vstem
          360 593 rmoveto
          -60 callsubr
        </CharString>
        <CharString name="greater">
          -104 -16 528 hstem
          52 389 vstem
          183 512 rmoveto
          -76 -75 188 -189 -243 -189 54 -75 335 264 rlineto
          endchar
        </CharString>
        <CharString name="greaterequal">
          -4 0 93 403 -20 hstem
          20 469 vstem
          34 91 rmoveto
          -14 32 callsubr
          -174 257 rmoveto
          -223 -143 50 -83 344 226 -278 226 -74 -83 rlineto
          endchar
        </CharString>
        <CharString name="gtilde">
          -24 callsubr
          47 -16 callsubr
          25 168 hintmask 11110100
          -105 callgsubr
          146 176 rmoveto
          19 callsubr
          hintmask 11101100
          -53 callgsubr
          hintmask 11110100
          -35 callsubr
        </CharString>
        <CharString name="guillemotleft">
          -149 10 464 hstem
          16 421 vstem
          382 11 callgsubr
          -107 464 rmoveto
          -186 -232 119 -232 73 45 -78 187 133 187 rlineto
          endchar
        </CharString>
        <CharString name="guillemotright">
          -149 10 464 hstem
          -1 421 vstem
          227 429 rmoveto
          77 -187 -132 -187 61 -45 187 232 -120 232 rlineto
          -247 -45 8 callgsubr
        </CharString>
        <CharString name="guilsinglleft">
          -342 10 464 hstem
          12 247 vstem
          204 11 callgsubr
          endchar
        </CharString>
        <CharString name="guilsinglright">
          -341 10 464 hstem
          -7 247 vstem
          47 429 8 callgsubr
        </CharString>
        <CharString name="h">
          -80 callgsubr
          endchar
        </CharString>
        <CharString name="h.sups">
          -191 49 callgsubr
          308 102 hintmask 00111000
          -7 callsubr
          -5 -62 -24 -230 -42 -145 rlinecurve
          25 -12 82 12 rlineto
          2 vlineto
          87 7 68 154 50 hhcurveto
          13 0 -17 -12 hvcurveto
          hintmask 10011000
          -35 -28 23 callsubr
          rlineto
          hintmask 01011000
          2 37 rlineto
          hintmask 00111000
          -43 3 rlineto
          8 82 27 84 57 vvcurveto
          31 -20 23 -34 -83 -53 -86 -75 -33 vhcurveto
          13 82 24 111 22 117 rrcurveto
          endchar
        </CharString>
        <CharString name="hbar">
          65 0 63 156 82 58 57 51 69 4 -20 hstemhm
          14 646 hintmask 11110100
          hintmask 11101100
          660 -55 callgsubr
          hintmask 11110100
          -47 -20 4 0 hvcurveto
          -13 -66 rlineto
          hintmask 11101100
          42 -9 -1 -8 0 -17 -2 -24 rlinecurve
          -181 hlineto
          2 9 9 29 4 11 44 4 rcurveline
          hintmask 11110100
          7 71 rlineto
          -44 callsubr
          hintmask 11101100
          -47 -62 callsubr
          hintmask 11110100
          43 -9 -1 -8 0 -17 -2 -24 rlinecurve
          hintmask 11101100
          -61 hlineto
          -9 -57 rlineto
          63 hlineto
          -33 -225 -25 callsubr
          51 callgsubr
          -36 16 callsubr
          10 62 rlineto
          182 hlineto
          -13 -85 -2 -16 -14 -47 -1 -6 rlinecurve
          -44 -39 callsubr
          47 99 66 -4 0 vhcurveto
          13 65 -38 4 2 11 -2 40 7 41 rlinecurve
          29 202 rlineto
          64 hlineto
          9 57 rlineto
          -64 hlineto
          3 9 8 29 4 11 45 4 rcurveline
          -404 -169 rmoveto
          9 59 rlineto
          hintmask 11110100
          183 hlineto
          -8 -56 rlineto
          endchar
        </CharString>
        <CharString name="hcircumflex">
          -80 callgsubr
          -245 296 rmoveto
          hintmask 11101000
          -87 callgsubr
          endchar
        </CharString>
        <CharString name="hungarumlaut">
          565 197 hstem
          36 438 vstem
          428 762 rmoveto
          -212 -139 46 -58 65 49 rlineto
          17 9 130 62 0 vvcurveto
          -227 77 rmoveto
          -211 -139 45 -58 65 49 rlineto
          18 12 123 70 -9 callgsubr
        </CharString>
        <CharString name="hungarumlaut.cap">
          707 -20 hstem
          8 481 vstem
          236 707 rmoveto
          -49 callsubr
        </CharString>
        <CharString name="hyphen">
          -332 206 95 hstem
          17 233 vstem
          250 301 rmoveto
          -222 hlineto
          -11 -95 rlineto
          215 hlineto
          endchar
        </CharString>
        <CharString name="i">
          -44 callgsubr
          hstemhm
          18 318 hintmask 11010000
          hintmask 10110000
          336 5 callgsubr
          -41 callgsubr
          hintmask 10110000
          -102 callsubr
          hintmask 11010000
          45 4 rlineto
          endchar
        </CharString>
        <CharString name="i.sups">
          -373 465 41 -4 -20 24 -20 344 108 hstemhm
          73 178 -103 103 hintmask 00111000
          206 9 callsubr
          43 -3 rlineto
          hintmask 10011000
          -4 -75 -14 -86 -29 -105 24 -12 rcurveline
          137 27 rlineto
          hintmask 01011000
          3 37 rlineto
          hintmask 00111000
          -50 4 9 87 21 105 17 65 rlinecurve
          hintmask 00110100
          -30 175 rmoveto
          -30 29 callgsubr
          -31 hvcurveto
          endchar
        </CharString>
        <CharString name="iacute">
          -44 callgsubr
          hstemhm
          18 347 hintmask 11010000
          hintmask 10110000
          336 5 callgsubr
          -41 callgsubr
          hintmask 10110000
          -102 callsubr
          hintmask 11010000
          45 4 rlineto
          -11 286 18 callgsubr
          endchar
        </CharString>
        <CharString name="ibreve">
          -44 callgsubr
          54 76 hstemhm
          18 358 hintmask 11011000
          hintmask 10111000
          336 -55 callgsubr
          hintmask 11011000
          -41 callgsubr
          hintmask 10111000
          -102 callsubr
          hintmask 11011000
          45 4 rlineto
          -18 260 rmoveto
          -93 callsubr
        </CharString>
        <CharString name="icircumflex">
          -44 callgsubr
          hstemhm
          18 412 hintmask 11010000
          hintmask 10110000
          336 5 callgsubr
          -41 callgsubr
          hintmask 10110000
          -102 callsubr
          hintmask 11010000
          45 4 rlineto
          -71 296 rmoveto
          -87 callgsubr
          endchar
        </CharString>
        <CharString name="idieresis">
          -44 callgsubr
          66 139 hstemhm
          88 129 41 128 hintmask 11011100
          hintmask 10111100
          336 -55 callgsubr
          hintmask 11011100
          -41 callgsubr
          hintmask 10111100
          -102 callsubr
          hintmask 11011100
          45 4 rlineto
          -167 256 -19 callsubr
          endchar
        </CharString>
        <CharString name="idotaccent">
          -44 callgsubr
          56 159 hstemhm
          155 156 hintmask 11011000
          hintmask 10111000
          336 -55 callgsubr
          hintmask 11011000
          -41 callgsubr
          hintmask 10111000
          -102 callsubr
          hintmask 11011000
          45 4 rlineto
          -85 266 rmoveto
          -76 callgsubr
        </CharString>
        <CharString name="igrave">
          -44 callgsubr
          hstemhm
          18 332 hintmask 11010000
          hintmask 10110000
          336 5 callgsubr
          -41 callgsubr
          hintmask 10110000
          -102 callsubr
          hintmask 11010000
          45 4 rlineto
          20 154 rmoveto
          -68 callgsubr
        </CharString>
        <CharString name="ij">
          11 0 63 404 68 5 -20 hstemhm
          13 594 hintmask 11010000
          hintmask 10110000
          607 -14 callsubr
          -71 -4 -98 vhcurveto
          hintmask 11010000
          -278 hlineto
          -45 -21 -6 callgsubr
          42 -9 1 -17 -1 -30 31 callsubr
          -13 -44 -2 -9 rlinecurve
          -45 -35 callgsubr
          0 23 4 45 97 66 -4 0 vhcurveto
          13 65 -38 4 rlineto
          5 0 46 6 42 vhcurveto
          37 256 1 6 9 34 6 11 rlinecurve
          hintmask 11010000
          63 5 59 -5 1 -13 -1 -34 -8 -52 rlinecurve
          -52 -358 rlineto
          -2 -15 -73 -118 0 vvcurveto
          45 -27 102 81 64 48 4 27 rlinecurve
          59 410 1 6 12 40 3 5 rlinecurve
          45 4 rlineto
          endchar
        </CharString>
        <CharString name="imacron">
          -44 callgsubr
          76 73 hstemhm
          18 375 hintmask 11011000
          hintmask 10111000
          336 -55 callgsubr
          hintmask 11011000
          -41 callgsubr
          hintmask 10111000
          -102 callsubr
          hintmask 11011000
          45 4 rlineto
          47 127 rmoveto
          16 73 rlineto
          -251 hlineto
          -11 -73 rlineto
          endchar
        </CharString>
        <CharString name="infinity">
          165 95 146 187 146 hstem
          13 80 563 80 vstem
          595 575 rmoveto
          -93 -65 -60 -65 -50 hvcurveto
          60 -29 -50 64 -82 hhcurveto
          -141 -72 -159 -140 -98 39 -83 102 94 66 61 67 50 hvcurveto
          -61 31 50 -66 78 hhcurveto
          141 72 159 140 98 -39 83 -102 hvcurveto
          -391 -147 rmoveto
          54 39 -35 -37 27 hvcurveto
          -64 -43 -40 -52 -66 hhcurveto
          -50 -32 26 51 72 52 39 59 hvcurveto
          341 -187 rmoveto
          -54 -39 36 37 -26 hvcurveto
          63 42 40 52 66 hhcurveto
          50 32 -26 -51 -73 -52 -38 -59 hvcurveto
          endchar
        </CharString>
        <CharString name="integral">
          -153 -235 80 790 80 hstem
          -18 469 vstem
          292 544 rmoveto
          50 7 20 41 56 hhcurveto
          17 22 -4 -3 10 hvcurveto
          27 75 rlineto
          5 -15 -31 7 -20 hhcurveto
          -114 -69 -70 -101 -15 hvcurveto
          -25 -170 0 -298 -21 -140 rrcurveto
          -50 -7 -20 -41 -56 hhcurveto
          -17 -22 4 3 -10 hvcurveto
          -27 -75 rlineto
          -6 15 31 -6 20 hhcurveto
          114 69 70 101 15 hvcurveto
          25 170 0 298 21 140 rrcurveto
          endchar
        </CharString>
        <CharString name="iogonek">
          -256 -197 64 129 67 404 69 4 -20 hstemhm
          -52 108 hintmask 11101000
          hintmask 11011000
          336 -55 callgsubr
          hintmask 11101000
          -46 -21 17 callsubr
          -35 -232 rlineto
          -23 -154 -113 -6 -95 vvcurveto
          -51 38 -13 callsubr
          -11 -2 -9 hhcurveto
          -26 -12 18 22 37 32 47 54 9 hvcurveto
          66 -1 43 -3 0 vvcurveto
          12 65 -37 4 1 11 -1 40 7 41 rlinecurve
          37 257 1 6 10 33 4 12 rlinecurve
          hintmask 11101000
          45 4 rlineto
          endchar
        </CharString>
        <CharString name="itilde">
          -44 callgsubr
          74 -16 callsubr
          18 372 hintmask 11001100
          hintmask 10101100
          336 -55 callgsubr
          hintmask 11001100
          -41 callgsubr
          hintmask 10101100
          -102 callsubr
          hintmask 11010100
          45 4 rlineto
          16 254 rmoveto
          0 -26 -38 -17 vhcurveto
          -35 -64 38 -35 hhcurveto
          -36 -54 -105 0 hvcurveto
          hintmask 11001100
          42 -28 rlineto
          0 30 42 18 vhcurveto
          35 62 -38 36 hhcurveto
          36 52 101 1 callgsubr
        </CharString>
        <CharString name="j">
          -282 467 69 4 -20 hstemhm
          -25 345 -73 callsubr
          endchar
        </CharString>
        <CharString name="j.sups">
          -374 830 108 hstemhm
          13 239 -103 103 hintmask 11000000
          206 9 callsubr
          44 -3 -5 -85 -19 -95 -19 -77 rlinecurve
          -1 -5 -32 -77 -32 -57 33 -23 rcurveline
          40 38 90 79 3 26 17 149 9 50 29 124 rrcurveto
          hintmask 10100000
          -28 175 rmoveto
          -31 29 callgsubr
          -30 hvcurveto
          endchar
        </CharString>
        <CharString name="jcircumflex">
          -282 467 69 4 -20 hstemhm
          -25 433 -73 callsubr
          hintmask 10100000
          -32 300 rmoveto
          -87 callgsubr
          endchar
        </CharString>
        <CharString name="k">
          7 33 callgsubr
          18 596 -95 callsubr
          endchar
        </CharString>
        <CharString name="k.sups">
          -214 502 -20 25 -20 222 73 hstemhm
          316 98 hintmask 01110000
          -7 callsubr
          -10 -138 -34 -205 -27 -94 rlinecurve
          26 -12 82 12 1 10 1 10 2 10 rlinecurve
          110 15 65 119 44 hhcurveto
          10 7 -7 -10 hvcurveto
          hintmask 10110000
          -38 -39 -36 -62 -22 vhcurveto
          -32 vlineto
          74 -125 115 26 3 37 rlineto
          hintmask 01110000
          -43 5 -21 21 -22 31 -18 31 rlinecurve
          76 36 35 43 58 vvcurveto
          38 -1 -19 17 -41 hhcurveto
          -51 -69 -54 -70 -39 hvcurveto
          13 80 22 101 17 92 rrcurveto
          endchar
        </CharString>
        <CharString name="kcommaaccent">
          7 33 callgsubr
          226 127 -95 callsubr
          -97 -602 rmoveto
          hintmask 11010000
          -96 callgsubr
          endchar
        </CharString>
        <CharString name="kgreenlandic">
          7 33 callgsubr
          18 596 -95 callsubr
          endchar
        </CharString>
        <CharString name="l">
          -141 15 callsubr
          14 413 hintmask 11010000
          hintmask 10110000
          333 5 callgsubr
          -47 -20 -6 callgsubr
          -94 callsubr
          hintmask 11010000
          44 4 rlineto
          endchar
        </CharString>
        <CharString name="l.sups">
          -384 465 41 -4 -20 24 -20 hstemhm
          63 183 hintmask 00110000
          -7 callsubr
          rlineto
          hintmask 10010000
          -5 -62 -24 -230 -42 -145 24 -12 rcurveline
          137 27 rlineto
          hintmask 01010000
          3 37 rlineto
          hintmask 00110000
          -49 4 8 70 26 169 34 186 rlinecurve
          endchar
        </CharString>
        <CharString name="lacute">
          -141 15 callsubr
          14 413 hintmask 11010000
          hintmask 10110000
          333 5 callgsubr
          -47 -20 -6 callgsubr
          -94 callsubr
          hintmask 11010000
          44 4 rlineto
          1 286 18 callgsubr
          endchar
        </CharString>
        <CharString name="lcaron">
          -129 0 78 389 36 -36 69 -33 33 4 -20 hstemhm
          14 458 hintmask 10100100
          hintmask 10010100
          357 503 rmoveto
          0 -1 -127 -2 -19 vhcurveto
          -14 -93 84 -5 rlineto
          hintmask 11001100
          48 244 rlineto
          -139 37 -50 callsubr
          hintmask 10100100
          -47 -62 callsubr
          hintmask 10001100
          -94 callsubr
          hintmask 10100100
          44 4 rlineto
          endchar
        </CharString>
        <CharString name="lcommaaccent">
          -141 15 callsubr
          160 127 hintmask 11010000
          hintmask 10110000
          333 5 callgsubr
          -47 -20 -6 callgsubr
          -94 callsubr
          hintmask 11010000
          44 4 rlineto
          -166 -602 rmoveto
          -96 callgsubr
          endchar
        </CharString>
        <CharString name="ldot">
          -143 0 78 169 169 51 69 4 -20 hstemhm
          296 156 hintmask 11101000
          386 416 rmoveto
          -55 -35 -43 -56 -42 23 -28 42 56 35 42 57 44 -24 26 -42 hvcurveto
          hintmask 11011000
          -53 124 -50 callsubr
          hintmask 11101000
          -47 -62 callsubr
          hintmask 11011000
          -94 callsubr
          hintmask 11101000
          44 4 rlineto
          endchar
        </CharString>
        <CharString name="less">
          -104 -15 528 hstem
          40 388 vstem
          297 -15 rmoveto
          76 75 -187 189 242 189 -54 75 -334 -264 rlineto
          endchar
        </CharString>
        <CharString name="lessequal">
          -4 0 93 404 -20 hstem
          20 478 vstem
          33 91 rmoveto
          -13 32 callsubr
          -214 258 rmoveto
          223 143 -50 83 -344 -226 278 -226 74 83 rlineto
          endchar
        </CharString>
        <CharString name="logicalnot">
          0 209 99 hstem
          67 470 vstem
          82 308 rmoveto
          -15 -101 362 4 -23 -146 rlineto
          96 hlineto
          35 243 rlineto
          endchar
        </CharString>
        <CharString name="lozenge">
          19 2 568 hstem
          39 524 vstem
          343 570 rmoveto
          -304 -286 221 -282 303 282 rlineto
          -283 -146 rmoveto
          -114 147 157 148 113 -148 rlineto
          endchar
        </CharString>
        <CharString name="lslash">
          -121 15 callsubr
          34 413 hintmask 11010000
          hintmask 10110000
          353 5 callgsubr
          -47 -20 -6 callgsubr
          23 callgsubr
          -13 -91 -84 -29 11 -53 64 22 -12 -81 -25 callsubr
          vhcurveto
          213 hlineto
          15 70 -30 callgsubr
          -6 -16 -5 -11 rlinecurve
          -1 -4 -8 -15 -9 -16 rrcurveto
          -3 -13 -20 -3 -20 hhcurveto
          -61 hlineto
          19 2 28 4 32 vhcurveto
          16 112 143 50 -12 54 -122 -43 13 84 1 6 10 33 4 12 rlinecurve
          hintmask 11010000
          44 4 rlineto
          endchar
        </CharString>
        <CharString name="m">
          177 0 59 462 14 -14 15 4 -20 hstemhm
          12 729 -727 164 -28 191 hintmask 11001000
          hintmask 10101000
          548 536 rmoveto
          hintmask 11001000
          -17 -15 rlineto
          0 -32 -81 -8 -18 vhcurveto
          hintmask 11000010
          -108 -235 -31 221 rlineto
          -5 33 -6 80 0 vvcurveto
          -13 14 rlineto
          -143 hlineto
          hintmask 10010010
          -42 1 -23 4 0 vvcurveto
          -12 -62 42 -10 rlineto
          -36 vlineto
          hintmask 10010100
          -72 -332 -2 -8 -6 -15 -6 -15 rlinecurve
          -47 -8 -5 -58 rlineto
          0 32 4 41 94 31 -4 0 vhcurveto
          14 61 -45 5 1 20 3 27 3 14 rlinecurve
          48 244 61 -367 rlineto
          94 hlineto
          177 367 -30 -244 -2 -14 -5 -27 -4 -20 rlinecurve
          -47 -8 -5 -58 rlineto
          0 29 4 41 94 56 -4 0 vhcurveto
          12 61 -43 5 rlineto
          -1 15 -2 15 8 vvcurveto
          26 332 8 38 42 10 6 60 rlineto
          0 -62 -4 -27 vhcurveto
          endchar
        </CharString>
        <CharString name="m.sups">
          2 49 callgsubr
          311 101 89 101 hintmask 00111100
          206 9 callsubr
          43 -3 -4 -75 -18 -86 -30 -105 rlinecurve
          24 -12 81 12 4 25 rlineto
          85 13 61 133 47 hhcurveto
          12 1 -17 -12 -35 -29 -101 -24 -78 hvcurveto
          24 -12 82 12 rlineto
          8 vlineto
          88 9 66 147 49 hhcurveto
          12 1 -17 -12 hvcurveto
          hintmask 10011100
          -35 -29 23 callsubr
          rlineto
          hintmask 01011100
          3 37 rlineto
          hintmask 00111100
          -43 3 rlineto
          7 82 27 84 57 vvcurveto
          31 -20 23 -34 -62 -46 -49 -57 -33 vhcurveto
          3 19 2 18 15 vvcurveto
          31 -20 23 -34 -78 -52 -77 -72 -33 vhcurveto
          13 57 12 35 14 38 rrcurveto
          endchar
        </CharString>
        <CharString name="macron">
          596 73 hstem
          72 344 vstem
          398 596 rmoveto
          -52 callgsubr
        </CharString>
        <CharString name="macron.cap">
          576 73 hstem
          66 324 vstem
          372 576 rmoveto
          18 73 rlineto
          -313 hlineto
          -11 -73 rlineto
          endchar
        </CharString>
        <CharString name="minus">
          -4 205 103 hstem
          55 470 vstem
          510 208 rmoveto
          15 34 callsubr
          endchar
        </CharString>
        <CharString name="mu">
          -11 510 -20 hstemhm
          -25 570 -180 96 hintmask 11000000
          hintmask 10100000
          545 492 rmoveto
          -34 18 -114 -18 rlineto
          -149 -18 -101 -234 -78 hhcurveto
          -20 -2 25 20 60 39 146 35 122 hvcurveto
          -39 28 -190 -43 rlineto
          -52 vlineto
          69 -4 -20 -167 -53 -227 -27 -134 rlinecurve
          -7 -36 -10 -46 1 vvcurveto
          9 -9 7 0 12 -2 19 -3 rcurveline
          -3 19 55 -3 1 hhcurveto
          11 8 2 34 11 99 3 17 rlinecurve
          7 43 16 2 14 3 15 6 rlinecurve
          87 33 63 98 39 88 -10 -68 -32 -87 -21 -58 34 -18 rcurveline
          200 42 4 53 -79 6 10 119 32 131 42 159 rlinecurve
          endchar
        </CharString>
        <CharString name="multiply">
          -29 24 436 hstem
          39 476 vstem
          287 312 rmoveto
          -128 147 -78 -69 127 -148 -169 -150 59 -68 169 148 126 -146 81 72 -126 144 167 147 -62 71 rlineto
          endchar
        </CharString>
        <CharString name="n">
          40 0 63 403 73 -18 15 34 callgsubr
          hintmask 11010000
          -10 callsubr
          hintmask 10110000
          -81 5 rlineto
          hintmask 11010000
          -60 callgsubr
          hintmask 10110000
          -10 callgsubr
          hintmask 11010000
          -28 callsubr
          rlineto
          hintmask 11001000
          -2 -16 -12 -45 -3 -8 -45 -7 rcurveline
          -82 callgsubr
          endchar
        </CharString>
        <CharString name="n.sups">
          -185 502 -20 24 -20 207 89 hstemhm
          313 101 hintmask 01110000
          361 782 rmoveto
          -80 -53 -78 -71 -33 hvcurveto
          13 57 12 35 14 38 39 callgsubr
          -75 -19 -86 -29 -105 rlinecurve
          24 -12 81 12 1 7 1 9 2 8 rlinecurve
          85 13 63 134 47 hhcurveto
          12 1 -17 -12 hvcurveto
          hintmask 10110000
          -35 -28 23 callsubr
          3 37 rlineto
          hintmask 01110000
          -44 4 rlineto
          8 81 26 84 57 vvcurveto
          31 -19 23 -34 vhcurveto
          endchar
        </CharString>
        <CharString name="nacute">
          40 0 63 403 73 -18 15 34 callgsubr
          hintmask 11010000
          -10 callsubr
          hintmask 10110000
          -81 5 rlineto
          hintmask 11010000
          -60 callgsubr
          hintmask 10110000
          -10 callgsubr
          hintmask 11010000
          -28 callsubr
          rlineto
          hintmask 11001000
          -2 -16 -12 -45 -3 -8 -45 -7 rcurveline
          -82 callgsubr
          -160 288 18 callgsubr
          endchar
        </CharString>
        <CharString name="nbspace">
          -361 endchar
        </CharString>
        <CharString name="ncaron">
          40 0 63 403 73 -18 15 171 -20 34 callgsubr
          hintmask 11011000
          -10 callsubr
          hintmask 10111000
          -81 5 rlineto
          hintmask 11011000
          -60 callgsubr
          hintmask 10111000
          -10 callgsubr
          hintmask 11011000
          -28 callsubr
          rlineto
          hintmask 11010100
          -2 -16 -12 -45 -3 -8 -45 -7 rcurveline
          -82 callgsubr
          -390 298 rmoveto
          -83 callsubr
          endchar
        </CharString>
        <CharString name="ncommaaccent">
          40 0 63 403 73 -18 15 hstemhm
          16 183 48 127 hintmask 11001000
          -10 callsubr
          hintmask 10101000
          -81 5 rlineto
          hintmask 11001000
          -60 callgsubr
          hintmask 10101000
          -10 callgsubr
          hintmask 11011000
          -28 callsubr
          -2 -16 -12 -45 -3 -8 rlinecurve
          -45 -7 -82 callgsubr
          -399 -600 rmoveto
          -96 callgsubr
          endchar
        </CharString>
        <CharString name="nine">
          -48 238 79 253 92 hstem
          55 160 163 158 vstem
          231 238 rmoveto
          30 22 5 5 15 hvcurveto
          5 72 rlineto
          2 -20 -3 -13 hhcurveto
          -37 -20 42 55 57 20 99 77 47 19 -56 -64 -126 -51 -273 -313 -82 hvcurveto
          11 -74 rlineto
          334 59 177 281 212 vvcurveto
          126 -82 89 -140 -140 -119 -110 -144 -107 63 -63 113 vhcurveto
          endchar
        </CharString>
        <CharString name="nine.dnom">
          -219 153 54 159 64 hstem
          21 113 97 112 vstem
          136 153 -71 callsubr
        </CharString>
        <CharString name="nine.numr">
          -219 453 54 159 64 hstem
          61 113 97 112 vstem
          176 453 -71 callsubr
        </CharString>
        <CharString name="nine.osf">
          -90 125 79 253 92 hstem
          31 159 144 158 vstem
          194 125 rmoveto
          29 21 5 5 12 hvcurveto
          6 71 rlineto
          -1 -4 -13 -1 -8 hhcurveto
          -31 -16 40 52 46 14 115 75 40 15 -53 -60 -117 -42 -285 -305 -86 hvcurveto
          10 -74 rlineto
          319 59 176 284 212 vvcurveto
          125 -78 87 -133 -134 -116 -112 -146 -105 58 -61 105 vhcurveto
          68 82 7 callsubr
        </CharString>
        <CharString name="nine.sinf">
          -191 58 56 164 66 hstem
          8 118 103 116 vstem
          129 58 rmoveto
          21 15 3 3 9 hvcurveto
          4 51 rlineto
          -3 -9 -1 -6 hhcurveto
          -22 -12 26 35 35 11 68 51 29 12 -35 -40 -82 -33 -186 -215 -52 hvcurveto
          8 -53 rlineto
          231 38 125 190 141 vvcurveto
          85 -58 60 -98 -98 -83 -75 -97 -72 43 -42 78 vhcurveto
          49 58 7 callsubr
        </CharString>
        <CharString name="nine.sups">
          -219 603 54 159 64 hstem
          91 113 97 112 vstem
          206 603 -71 callsubr
        </CharString>
        <CharString name="nine.tf">
          -75 238 79 253 92 hstem
          50 159 151 157 vstem
          219 238 rmoveto
          29 21 5 5 14 hvcurveto
          5 71 rlineto
          -1 -4 -15 -1 -9 hhcurveto
          -33 -18 42 54 57 18 100 73 43 17 -55 -64 -125 -48 -275 -303 -82 hvcurveto
          11 -74 rlineto
          323 59 174 282 212 vvcurveto
          125 -79 89 -136 -136 -116 -110 -145 -106 60 -63 109 vhcurveto
          69 82 7 callsubr
        </CharString>
        <CharString name="nine.tosf">
          -75 125 79 253 92 hstem
          34 159 151 158 vstem
          201 125 rmoveto
          29 22 5 5 12 hvcurveto
          6 71 rlineto
          -1 -3 -15 -1 -9 hhcurveto
          -33 -17 40 52 47 16 114 76 43 16 -53 -61 -117 -44 -284 -310 -86 hvcurveto
          10 -74 rlineto
          325 59 177 283 212 vvcurveto
          126 -79 87 -136 -136 -117 -112 -146 -105 60 -61 107 vhcurveto
          69 82 7 callsubr
        </CharString>
        <CharString name="notequal">
          10 101 102 86 105 104 -20 hstem
          48 498 vstem
          182 -19 rmoveto
          72 119 250 3 14 101 rlineto
          -200 hlineto
          53 87 160 2 15 101 rlineto
          -113 hlineto
          64 104 -90 16 -73 -120 rlineto
          -243 hlineto
          -15 -106 194 2 -52 -86 rlineto
          -155 hlineto
          -15 -106 106 1 -62 -102 rlineto
          endchar
        </CharString>
        <CharString name="ntilde">
          40 0 63 403 73 -18 15 58 91 -53 91 34 callgsubr
          hintmask 11010100
          -10 callsubr
          hintmask 10110100
          -81 5 rlineto
          hintmask 11010100
          -60 callgsubr
          hintmask 10110100
          -10 callgsubr
          hintmask 11010100
          -28 callsubr
          rlineto
          hintmask 11010010
          -2 -16 -12 -45 -3 -8 -45 -7 rcurveline
          -82 callgsubr
          -122 256 rmoveto
          19 callsubr
          -41 -73 38 -41 hhcurveto
          hintmask 11001100
          -42 -59 -105 0 hvcurveto
          -22 callgsubr
          26 callsubr
          hintmask 11010100
          42 57 101 1 callgsubr
        </CharString>
        <CharString name="numbersign">
          -15 140 86 -86 90 97 90 -86 86 hstemhm
          29 520 hintmask 10011000
          hintmask 01011000
          391 230 rmoveto
          29 101 116 1 13 86 rlineto
          -103 hlineto
          42 144 -73 10 -45 -154 rlineto
          -84 hlineto
          42 144 -73 10 rlineto
          hintmask 10101000
          -45 -154 rlineto
          -121 hlineto
          -13 -91 107 1 -29 -101 -112 -1 -13 -86 rlineto
          99 hlineto
          -42 -145 74 -10 45 155 rlineto
          83 hlineto
          -42 -145 74 -10 rlineto
          hintmask 01011000
          45 155 rlineto
          124 hlineto
          14 91 rlineto
          -243 98 rmoveto
          84 1 rlineto
          hintmask 10011000
          -30 -101 -84 -1 rlineto
          endchar
        </CharString>
        <CharString name="o">
          22 callsubr
          -101 callgsubr
          endchar
        </CharString>
        <CharString name="o.sups">
          -43 callgsubr
        </CharString>
        <CharString name="oacute">
          22 callsubr
          -101 callgsubr
          261 554 18 callgsubr
          endchar
        </CharString>
        <CharString name="obreve">
          42 callgsubr
          22 76 hstemhm
          25 164 239 164 hintmask 11011000
          -101 callgsubr
          hintmask 11111000
          255 528 rmoveto
          -93 callsubr
        </CharString>
        <CharString name="ocircumflex">
          22 callsubr
          -101 callgsubr
          182 564 rmoveto
          -87 callgsubr
          endchar
        </CharString>
        <CharString name="odieresis">
          42 callgsubr
          34 139 hstemhm
          25 164 3 27 callgsubr
          -128 164 hintmask 11010010
          -101 callgsubr
          hintmask 11101100
          81 524 rmoveto
          -84 callgsubr
        </CharString>
        <CharString name="oe">
          220 -16 92 -76 79 155 71 7 46 102 92 -89 73 7 -20 29 -20 hstemhm
          25 160 451 56 38 67 hintmask 0110010011100000
          771 155 rmoveto
          -58 4 -3 -13 -5 -15 -5 -11 rlinecurve
          -4 -8 -5 -12 -10 -16 rrcurveto
          -3 -14 -19 -2 -21 hhcurveto
          -85 hlineto
          1 15 5 36 4 28 11 76 rcurveline
          33 hlineto
          15 25 -5 0 hvcurveto
          1 -43 56 5 rlineto
          hintmask 0101010011100000
          0 6 66 6 38 vhcurveto
          2 15 8 46 0 vvcurveto
          -52 4 -14 -48 rlineto
          hintmask 0110010011100000
          0 -13 -7 -15 vhcurveto
          -48 hlineto
          16 109 10 49 rlineto
          73 hlineto
          hintmask 0110100011100000
          24 20 -1 -2 14 hvcurveto
          2 -4 -1 -8 1 -2 rrcurveto
          -11 -2 -24 -12 vvcurveto
          61 4 rlineto
          hintmask 0110000111100000
          13 127 rlineto
          hintmask 0110001011100000
          -23 callsubr
          hintmask 0110010011100000
          -218 hlineto
          -18 -15 1 1 -14 hvcurveto
          10 -26 -31 4 -34 hhcurveto
          hintmask 1010100011100000
          -181 -143 -129 -198 -148 96 -93 145 34 32 4 10 31 hvcurveto
          11 11 1 1 24 hvcurveto
          hintmask 0110010011100000
          228 hlineto
          16 70 -16 callgsubr
          rlineto
          -312 175 rmoveto
          -67 -34 -27 -43 -87 hhcurveto
          hintmask 1010100011100000
          -62 -32 32 95 161 27 96 123 88 4 -29 -48 29 hvcurveto
          endchar
        </CharString>
        <CharString name="ogonek">
          -197 64 hstem
          78 108 vstem
          177 6 rmoveto
          -45 -28 -54 -35 -64 vvcurveto
          -51 38 -25 56 39 6 callsubr
          5 callsubr
          37 23 30 54 32 hvcurveto
          endchar
        </CharString>
        <CharString name="ograve">
          22 callsubr
          -101 callgsubr
          274 422 rmoveto
          -68 callgsubr
        </CharString>
        <CharString name="ohungarumlaut">
          22 callsubr
          -101 callgsubr
          386 561 rmoveto
          -212 -139 46 -58 65 49 rlineto
          17 9 130 62 0 vvcurveto
          -227 77 rmoveto
          -211 -139 45 -58 65 49 rlineto
          18 12 123 70 -9 callgsubr
        </CharString>
        <CharString name="omacron">
          42 callgsubr
          44 73 -36 callsubr
          -101 callgsubr
          349 395 rmoveto
          -52 callgsubr
        </CharString>
        <CharString name="one">
          -169 0 77 hstem
          45 340 vstem
          376 71 rmoveto
          -74 6 rlineto
          -1 0 66 50 8 hvcurveto
          34 233 rlineto
          7 50 35 184 0 vvcurveto
          -102 12 rlineto
          0 -44 -48 -12 -9 vhcurveto
          -22 -16 -131 -92 0 vvcurveto
          27 -62 105 39 -47 -321 rlineto
          -3 -20 -18 -66 0 vvcurveto
          -88 -12 -5 -70 rlineto
          0 79 5 47 113 75 -5 0 vhcurveto
          endchar
        </CharString>
        <CharString name="one.dnom">
          -297 0 50 hstem
          15 233 vstem
          242 48 rmoveto
          -79 callgsubr
          -58 -7 -4 -48 rlineto
          0 49 3 35 79 52 -3 0 vhcurveto
          endchar
        </CharString>
        <CharString name="one.numr">
          -297 300 50 hstem
          55 233 vstem
          282 348 rmoveto
          -79 callgsubr
          -58 -7 -4 -48 rlineto
          0 49 3 35 79 52 -3 0 vhcurveto
          endchar
        </CharString>
        <CharString name="one.osf">
          -90 0 74 478 -20 hstem
          43 390 vstem
          433 71 rmoveto
          -99 6 rlineto
          0 -2 66 6 50 vhcurveto
          13 29 callsubr
          -51 -48 -14 -9 vhcurveto
          -26 -16 -157 -92 0 vvcurveto
          33 -62 137 39 -23 -201 rlineto
          -20 -3 -16 -66 -2 hhcurveto
          -110 -12 -1 -70 rlineto
          0 112 5 43 122 81 -5 0 vhcurveto
          endchar
        </CharString>
        <CharString name="one.sinf">
          -273 -100 52 hstem
          2 243 vstem
          238 -50 rmoveto
          -50 4 -1 -2 0 46 5 35 rlinecurve
          23 152 rlineto
          5 34 25 123 0 vvcurveto
          -78 8 rlineto
          0 -30 -32 -8 -6 vhcurveto
          -16 -11 -91 -61 0 vvcurveto
          20 -44 71 23 -31 -207 -3 -13 -13 -47 1 2 rlinecurve
          -61 -8 -4 -49 rlineto
          0 52 3 36 82 54 -3 0 vhcurveto
          endchar
        </CharString>
        <CharString name="one.sups">
          -297 450 52 -7 -20 23 -20 hstemhm
          85 233 hintmask 10010000
          hintmask 00110000
          312 498 rmoveto
          hintmask 10010000
          -79 callgsubr
          hintmask 01010000
          -58 -7 rlineto
          hintmask 10010000
          -4 -48 rlineto
          0 49 3 35 79 52 -3 0 vhcurveto
          endchar
        </CharString>
        <CharString name="one.tf">
          -75 0 74 hstem
          71 356 vstem
          427 71 rmoveto
          -87 6 rlineto
          0 0 66 7 50 vhcurveto
          36 233 rlineto
          7 50 37 184 0 vvcurveto
          -98 12 rlineto
          0 -49 -48 -13 -9 vhcurveto
          -25 -16 -147 -92 0 vvcurveto
          30 -62 124 39 -52 -321 rlineto
          -20 -2 -19 -66 -1 hhcurveto
          -100 -12 -4 -70 rlineto
          0 98 5 45 118 77 -5 0 vhcurveto
          endchar
        </CharString>
        <CharString name="one.tosf">
          -75 0 74 478 -20 hstem
          47 396 vstem
          443 71 rmoveto
          -102 6 rlineto
          0 -2 66 6 50 vhcurveto
          14 29 callsubr
          -52 -48 -14 -9 vhcurveto
          -26 -16 -160 -92 0 vvcurveto
          33 -62 141 39 -24 -201 rlineto
          -20 -3 -16 -66 -2 hhcurveto
          -112 -12 -1 -70 rlineto
          0 116 5 42 123 82 -5 0 vhcurveto
          endchar
        </CharString>
        <CharString name="onedotenleader">
          -367 -15 169 hstem
          15 139 vstem
          96 154 -47 callsubr
        </CharString>
        <CharString name="onehalf">
          243 0 90 210 50 11 69 290 -20 hstemhm
          665 117 hintmask 11011000
          282 348 rmoveto
          -79 callgsubr
          -58 -7 -4 -48 rlineto
          0 49 3 35 79 52 -3 0 vhcurveto
          332 423 -7 callgsubr
          hintmask 11111000
          -19 -245 -89 callgsubr
        </CharString>
        <CharString name="onequarter">
          195 0 49 67 64 120 50 370 -20 hstem
          55 686 vstem
          282 348 rmoveto
          -79 callgsubr
          -58 -7 -4 -48 rlineto
          0 49 3 35 79 52 -3 0 vhcurveto
          332 423 -56 callgsubr
        </CharString>
        <CharString name="ordfeminine">
          -67 callsubr
        </CharString>
        <CharString name="ordmasculine">
          -43 callgsubr
        </CharString>
        <CharString name="oslash">
          22 callsubr
          592 310 -69 callgsubr
        </CharString>
        <CharString name="oslashacute">
          22 callsubr
          440 755 18 callgsubr
          106 -369 -69 callgsubr
        </CharString>
        <CharString name="otilde">
          42 callgsubr
          42 -16 callsubr
          25 164 239 164 hintmask 11101100
          -101 callgsubr
          301 522 rmoveto
          19 callsubr
          hintmask 11011100
          -53 callgsubr
          hintmask 11101100
          -35 callsubr
        </CharString>
        <CharString name="p">
          -98 0 63 135 75 195 75 -7 -20 24 -20 hstemhm
          353 150 hintmask 11100100
          348 543 rmoveto
          -43 -87 -7 -41 hhcurveto
          hintmask 11010100
          -15 hlineto
          -47 -62 callsubr
          hintmask 11001100
          23 callgsubr
          -34 -232 -25 callsubr
          99 77 -4 0 vhcurveto
          12 65 -46 16 callsubr
          6 41 rlineto
          22 hlineto
          118 128 74 126 91 -60 54 -95 hvcurveto
          -81 -129 rmoveto
          hintmask 11100100
          1 4 4 31 4 19 rrcurveto
          6 hlineto
          53 18 -20 -46 -77 -43 -47 -64 -5 hvcurveto
          endchar
        </CharString>
        <CharString name="p.sups">
          -235 437 74 180 91 hstem
          292 99 vstem
          199 9 callsubr
          45 -3 -6 -96 -24 -204 -38 -134 rlinecurve
          23 -12 82 12 7 62 7 54 7 49 rlinecurve
          -5 21 27 -5 15 hhcurveto
          79 76 130 114 49 -15 52 -36 -54 -50 -45 -64 -38 hvcurveto
          8 30 11 31 10 29 rrcurveto
          21 -252 rmoveto
          -23 -27 10 7 -18 hvcurveto
          91 16 53 72 28 hhcurveto
          15 1 -15 -21 -1 hvcurveto
          -75 -23 -69 -21 vhcurveto
          endchar
        </CharString>
        <CharString name="paragraph">
          -52 706 -20 24 -20 22 -20 23 -20 hstemhm
          25 541 hintmask 00011000
          hintmask 00101000
          566 712 rmoveto
          0 -66 -4 -75 -2 vhcurveto
          hintmask 10001000
          -11 -10 -1 -11 hhcurveto
          -33 hlineto
          -30 -237 -34 -232 -28 -117 -3 -14 -50 -117 -47 -84 47 -34 rcurveline
          46 46 93 87 38 54 30 43 -1 96 7 51 rrcurveto
          hintmask 00101000
          19 142 21 109 30 131 61 13 rcurveline
          hintmask 00011000
          -286 73 rmoveto
          -145 -103 -95 -150 -120 95 -59 115 hvcurveto
          30 25 rlineto
          hintmask 01001000
          56 394 rlineto
          hintmask 00011000
          3 -17 -17 2 -14 hhcurveto
          endchar
        </CharString>
        <CharString name="parenleft">
          -291 -135 904 hstem
          22 125 vstem
          337 725 rmoveto
          -48 44 rlineto
          -181 -148 -86 -198 -206 vvcurveto
          -131 42 -121 94 -100 vhcurveto
          60 44 rlineto
          -44 62 -27 98 120 vvcurveto
          195 59 201 131 140 vhcurveto
          endchar
        </CharString>
        <CharString name="parenright">
          -292 -135 904 hstem
          155 125 vstem
          -34 -91 rmoveto
          47 -44 rlineto
          180 147 87 198 204 vvcurveto
          132 -42 122 -94 101 vhcurveto
          -60 -44 rlineto
          44 -63 27 -98 -123 vvcurveto
          -194 -61 -197 -128 -141 vhcurveto
          endchar
        </CharString>
        <CharString name="partialdiff">
          -3 -11 77 258 79 239 78 hstem
          39 126 266 123 vstem
          301 403 rmoveto
          -141 -121 -97 -140 -105 81 -72 118 219 97 238 229 147 -55 117 -152 -53 -53 -20 -25 -44 hvcurveto
          16 -59 rlineto
          10 32 34 16 51 hhcurveto
          78 23 -84 -94 -106 -37 -292 -143 -60 -26 46 57 73 50 82 83 31 29 -4 -3 21 hvcurveto
          18 66 rlineto
          8 -20 -45 12 -31 hhcurveto
          endchar
        </CharString>
        <CharString name="percent">
          286 3 callsubr
          hintmask 1011011110000000
          -31 callgsubr
          -678 240 rmoveto
          hintmask 1101011110000000
          20 callgsubr
          hintmask 1011011110000000
          37 callsubr
          hintmask 1101011110000000
          21 callgsubr
          hintmask 1011011110000000
          36 11 -43 -43 hvcurveto
          hintmask 1010111110000000
          352 160 rmoveto
          -518 -724 63 -45 516 724 rlineto
          endchar
        </CharString>
        <CharString name="period">
          -367 -15 169 hstem
          15 139 vstem
          96 154 -47 callsubr
        </CharString>
        <CharString name="periodcentered">
          -391 282 169 hstem
          35 139 vstem
          116 451 -47 callsubr
        </CharString>
        <CharString name="perthousand">
          688 3 callsubr
          41 112 137 111 hintmask 1011011111100000
          -31 callgsubr
          153 -82 rmoveto
          -90 42 -75 109 149 60 121 119 90 -42 75 -108 -149 -61 -121 -119 vhcurveto
          249 81 rmoveto
          -61 -35 -116 -53 -38 -11 45 43 62 34 117 54 38 11 -45 -45 vhcurveto
          -1080 241 rmoveto
          hintmask 0101011000000000
          20 callgsubr
          hintmask 1011011111100000
          37 callsubr
          hintmask 0101011000000000
          21 callgsubr
          hintmask 1011011111100000
          36 11 -43 -43 hvcurveto
          hintmask 0000100100000000
          352 160 rmoveto
          -518 -724 63 -45 516 724 rlineto
          endchar
        </CharString>
        <CharString name="pi">
          107 387 110 49 -20 hstemhm
          31 659 -321 147 hintmask 11100000
          169 396 rmoveto
          -12 -77 -23 -139 -8 -43 rrcurveto
          -4 -20 -29 -100 0 vvcurveto
          18 -19 rlineto
          0 70 2 25 vhcurveto
          43 hlineto
          hintmask 11010000
          21 167 32 223 115 -6 -16 -95 -27 -169 -5 -35 rlinecurve
          -12 -86 121 -6 62 -8 29 70 rcurveline
          -56 30 -4 -5 13 87 32 213 rcurveline
          44 11 92 102 0 vvcurveto
          -50 53 rlineto
          0 -52 -49 -25 vhcurveto
          -54 -265 17 -70 hhcurveto
          -40 -103 -114 0 hvcurveto
          49 -53 rlineto
          0 55 49 25 vhcurveto
          endchar
        </CharString>
        <CharString name="plus">
          -4 207 101 hstem
          25 530 vstem
          333 206 rmoveto
          208 2 14 100 rlineto
          -208 hlineto
          28 203 rlineto
          -100 hlineto
          -30 -203 rlineto
          -205 hlineto
          -15 -105 205 2 -30 -205 rlineto
          105 hlineto
          endchar
        </CharString>
        <CharString name="plusminus">
          16 0 93 211 96 hstem
          32 513 vstem
          350 303 rmoveto
          181 2 14 95 rlineto
          -182 hlineto
          22 162 rlineto
          -95 hlineto
          -24 -162 rlineto
          -176 hlineto
          -15 -100 177 2 -24 -165 rlineto
          100 hlineto
          -283 -46 rmoveto
          -13 32 callsubr
          endchar
        </CharString>
        <CharString name="product">
          34 602 103 -101 100 hstemhm
          32 635 hintmask 10100000
          hintmask 01100000
          572 604 rmoveto
          80 1 rlineto
          hintmask 10100000
          15 100 rlineto
          -579 hlineto
          -16 -105 rlineto
          81 hlineto
          -121 -828 rlineto
          115 hlineto
          116 829 198 2 -121 -831 rlineto
          115 hlineto
          endchar
        </CharString>
        <CharString name="q">
          12 4 callgsubr
          470 -170 rmoveto
          96 107 rlineto
          0 -99 43 -11 7 vhcurveto
          -39 29 rlineto
          103 54 72 102 138 vvcurveto
          149 -98 93 -146 -180 -143 -129 -198 -148 99 -93 146 2 4 0 -1 2 vhcurveto
          -89 218 rmoveto
          167 36 92 112 61 30 -31 -95 -167 -36 -91 -112 -61 -30 31 94 vhcurveto
          endchar
        </CharString>
        <CharString name="q.sups">
          -238 437 92 179 74 hstem
          65 99 vstem
          357 782 rmoveto
          -54 -13 rlineto
          4 -21 -42 9 -20 hhcurveto
          -79 -76 -130 -113 -49 15 -53 36 60 56 57 76 39 hvcurveto
          -10 -63 -13 -32 -6 -30 -13 -61 -13 -59 -13 -45 23 -12 rcurveline
          137 27 3 36 -51 4 11 88 28 235 30 105 rlinecurve
          -176 -55 rmoveto
          23 26 -9 -7 19 hvcurveto
          -92 -16 -53 -71 -28 hhcurveto
          -15 -1 15 20 1 hvcurveto
          75 23 69 21 vhcurveto
          endchar
        </CharString>
        <CharString name="question">
          -163 229 164 260 74 hstem
          53 139 128 124 vstem
          320 553 rmoveto
          -75 -42 -85 -75 -12 -27 1 2 -16 vhcurveto
          -34 -34 -19 -130 3 -3 rlineto
          39 46 -3 -1 7 hvcurveto
          19 16 8 80 rlineto
          129 4 98 90 147 vvcurveto
          107 -69 58 -118 -55 -48 -15 -24 -52 vhcurveto
          -11 -148 57 4 24 93 rlineto
          10 16 24 6 25 hhcurveto
          58 25 -42 -58 hvcurveto
          -186 -399 -47 callsubr
        </CharString>
        <CharString name="questiondown">
          -163 -234 74 260 164 75 169 0 -20 hstemhm
          -13 124 126 139 hintmask 11011100
          111 -60 rmoveto
          75 42 85 75 12 27 -1 -2 16 vhcurveto
          34 34 19 130 -3 3 rlineto
          -39 -46 3 1 -7 hvcurveto
          -19 -16 -8 -80 rlineto
          -129 -4 -98 -90 -147 vvcurveto
          -107 69 -58 118 55 48 15 24 52 vhcurveto
          11 148 -56 -5 -25 -92 rlineto
          -10 -16 -24 -6 -25 hhcurveto
          -58 -25 42 58 hvcurveto
          207 568 rmoveto
          -48 -33 -49 -52 hvcurveto
          hintmask 11101100
          -39 21 -29 37 48 33 50 52 vhcurveto
          hintmask 11011100
          39 -21 28 -37 vhcurveto
          endchar
        </CharString>
        <CharString name="quotedbl">
          -226 514 241 hstem
          73 289 vstem
          91 756 rmoveto
          1 callsubr
          49 hmoveto
          1 callsubr
          endchar
        </CharString>
        <CharString name="quotedblbase">
          -171 -134 25 callsubr
          0 159 42 159 hintmask 10110000
          hintmask 01110000
          62 -33 -42 callgsubr
        </CharString>
        <CharString name="quotedblleft">
          -176 514 155 -155 256 hstemhm
          63 159 41 159 hintmask 01110000
          hintmask 10110000
          160 669 rmoveto
          -32 callsubr
          200 hmoveto
          -32 callsubr
          endchar
        </CharString>
        <CharString name="quotedblright">
          -175 514 25 callsubr
          81 159 42 159 hintmask 10110000
          hintmask 01110000
          143 615 -42 callgsubr
        </CharString>
        <CharString name="quoteleft">
          -376 514 155 -155 256 hstemhm
          73 159 hintmask 01100000
          hintmask 10100000
          170 669 rmoveto
          -32 callsubr
          endchar
        </CharString>
        <CharString name="quoteright">
          -376 514 25 callsubr
          81 159 hintmask 10100000
          hintmask 01100000
          143 615 -2 callsubr
          endchar
        </CharString>
        <CharString name="quotesinglbase">
          -374 -134 25 callsubr
          -2 159 hintmask 10100000
          hintmask 01100000
          60 -33 -2 callsubr
          endchar
        </CharString>
        <CharString name="quotesingle">
          -386 512 244 -242 241 hstemhm
          73 129 hintmask 10100000
          hintmask 01100000
          91 756 rmoveto
          1 callsubr
          endchar
        </CharString>
        <CharString name="r">
          -1 callgsubr
          hstemhm
          363 149 hintmask 11101000
          0 callgsubr
          hintmask 11011000
          -92 callsubr
          hintmask 11101000
          85 -62 55 -97 vhcurveto
          -66 -75 -38 callsubr
        </CharString>
        <CharString name="r.sups">
          -294 438 344 -155 154 hstemhm
          289 38 hintmask 10100000
          hintmask 01100000
          322 782 rmoveto
          -37 -61 -68 -85 -38 hvcurveto
          10 44 12 30 26 60 39 callgsubr
          -66 -15 -81 -33 -119 rlinecurve
          24 -12 81 12 11 77 24 74 49 71 32 14 rlinecurve
          -57 vlineto
          38 -3 28 125 -17 28 rlineto
          2 -8 -4 1 -4 hhcurveto
          endchar
        </CharString>
        <CharString name="racute">
          -1 callgsubr
          hstemhm
          363 149 hintmask 11101000
          0 callgsubr
          hintmask 11011000
          -92 callsubr
          hintmask 11101000
          85 -62 55 -97 vhcurveto
          70 212 18 callgsubr
          -182 -211 -38 callsubr
        </CharString>
        <CharString name="radical">
          73 721 -20 hstem
          29 694 vstem
          368 109 rmoveto
          -47 408 -292 -71 11 -111 178 48 69 -473 rlineto
          98 hlineto
          338 784 -106 27 rlineto
          endchar
        </CharString>
        <CharString name="rcaron">
          -1 callgsubr
          187 -20 hstemhm
          363 149 hintmask 11101100
          0 callgsubr
          hintmask 11011100
          -92 callsubr
          hintmask 11101100
          85 -62 55 -97 vhcurveto
          -141 222 rmoveto
          -83 callsubr
          18 -244 -38 callsubr
        </CharString>
        <CharString name="rcommaaccent">
          -1 callgsubr
          hstemhm
          203 127 33 149 hintmask 11101100
          0 callgsubr
          hintmask 11011100
          -92 callsubr
          hintmask 11101100
          85 -62 55 -97 vhcurveto
          -150 -676 rmoveto
          -96 callgsubr
          84 601 -38 callsubr
        </CharString>
        <CharString name="registered">
          260 -115 69 110 46 107 54 146 48 81 69 hstem
          57 69 162 106 74 112 138 70 vstem
          -49 callgsubr
          -280 221 rmoveto
          -33 -58 -6 -35 hhcurveto
          -33 -28 3 0 hvcurveto
          -3 -48 35 -7 rlineto
          1 -12 4 -24 -35 vvcurveto
          -179 vlineto
          -12 -4 -33 -1 -6 vhcurveto
          -36 -6 3 -45 rlineto
          0 21 3 34 74 52 -3 0 vhcurveto
          2 47 -32 4 rlineto
          -1 8 -6 29 31 vvcurveto
          37 26 vlineto
          46 -87 rlineto
          7 -14 21 -52 0 vvcurveto
          74 46 -3 0 hvcurveto
          2 47 -22 3 -7 12 -7 10 -3 6 rlinecurve
          -3 3 -35 48 -26 53 rrcurveto
          40 23 27 37 46 vvcurveto
          75 -59 47 -83 vhcurveto
          -36 -54 rmoveto
          50 16 -23 -46 -49 -15 -28 -54 hvcurveto
          -5 102 hlineto
          3 1 23 2 18 vhcurveto
          endchar
        </CharString>
        <CharString name="ring">
          570 58 75 58 hstem
          138 67 63 66 vstem
          250 761 rmoveto
          -34 callgsubr
          18 8 -14 -17 -21 -12 -23 -25 -19 -7 14 16 21 10 24 27 hvcurveto
          endchar
        </CharString>
        <CharString name="ring.cap">
          530 58 75 58 hstem
          132 68 62 66 vstem
          244 721 rmoveto
          -34 callgsubr
          18 8 -14 -17 -21 -12 -23 -25 -19 -6 14 16 21 9 24 27 hvcurveto
          endchar
        </CharString>
        <CharString name="s">
          13 callgsubr
          hstem
          61 157 43 157 vstem
          -97 callgsubr
          endchar
        </CharString>
        <CharString name="s.sups">
          -303 437 53 243 49 hstemhm
          83 33 -26 100 6 107 -43 37 hintmask 11010100
          224 782 rmoveto
          -86 -48 -36 -63 hvcurveto
          hintmask 11101000
          -84 106 -34 -42 vvcurveto
          -21 -9 -12 -22 -15 -18 6 14 -17 vhcurveto
          2 60 -34 9 -31 -79 8 -32 rlineto
          -22 40 32 -9 35 hhcurveto
          81 55 47 66 hvcurveto
          hintmask 11010100
          71 -113 47 40 vvcurveto
          15 8 10 14 vhcurveto
          hintmask 11001000
          17 17 -5 -12 14 hvcurveto
          -54 vlineto
          hintmask 11010100
          37 -2 26 84 -15 28 rlineto
          0 -50 10 -34 vhcurveto
          endchar
        </CharString>
        <CharString name="sacute">
          13 callgsubr
          hstem
          61 157 43 157 vstem
          -97 callgsubr
          260 573 18 callgsubr
          endchar
        </CharString>
        <CharString name="scaron">
          13 callgsubr
          160 -20 hstem
          61 157 43 157 vstem
          -97 callgsubr
          59 583 rmoveto
          -83 callsubr
          endchar
        </CharString>
        <CharString name="scedilla">
          -142 27 callsubr
          563 86 hstemhm
          61 157 -19 88 -26 157 hintmask 11110100
          51 186 rmoveto
          -36 -163 rlineto
          hintmask 11101000
          0 58 -26 82 -6 vhcurveto
          -22 -93 -86 callsubr
          17 49 rlineto
          hintmask 11110100
          112 10 89 76 110 148 -200 -9 80 vvcurveto
          33 29 23 48 22 12 -11 -7 6 vhcurveto
          4 -11 2 -5 -1 vvcurveto
          -2 -10 -66 0 vhcurveto
          73 -4 34 164 rlineto
          18 -52 -64 11 -54 hhcurveto
          -118 -89 -72 -109 hvcurveto
          -158 200 14 -89 vvcurveto
          -41 -39 -15 -34 -39 -21 15 7 -8 vhcurveto
          -5 12 -4 11 2 vvcurveto
          -1 9 59 0 vhcurveto
          endchar
        </CharString>
        <CharString name="scircumflex">
          13 callgsubr
          hstem
          61 157 43 157 vstem
          -97 callgsubr
          200 583 rmoveto
          -87 callgsubr
          endchar
        </CharString>
        <CharString name="scommaaccent">
          13 callgsubr
          hstemhm
          61 157 -88 127 4 157 hintmask 11101000
          -97 callgsubr
          hintmask 11010000
          10 -315 rmoveto
          -96 callgsubr
          endchar
        </CharString>
        <CharString name="section">
          -144 -114 74 686 74 hstemhm
          24 110 -53 136 13 138 -44 106 hintmask 11010100
          277 720 rmoveto
          -103 -93 -55 -101 hvcurveto
          -167 243 -40 -90 vvcurveto
          -18 -12 -20 -10 -14 vhcurveto
          32 -28 rlineto
          0 96 50 110 121 -213 59 66 vvcurveto
          28 22 25 28 40 29 -13 -9 17 vhcurveto
          -41 vlineto
          -14 1 -13 -13 vvcurveto
          52 -4 39 126 -22 39 rlineto
          0 -67 16 -79 vhcurveto
          hintmask 11101000
          -155 -304 rmoveto
          0 -63 -33 -25 -69 vhcurveto
          -6 -17 -4 -19 -22 -121 206 -56 -66 vvcurveto
          -35 -32 -18 -35 -35 -28 10 9 -17 vhcurveto
          -4 42 -3 42 -52 4 -37 -146 rlineto
          0 72 -35 89 105 115 54 105 vhcurveto
          161 -234 43 90 vvcurveto
          18 7 16 12 14 vhcurveto
          endchar
        </CharString>
</ttFont>
